<?xml version="1.0" encoding="UTF-8" standalone="no"?>
<!DOCTYPE svg PUBLIC "-//W3C//DTD SVG 1.1//EN" "http://www.w3.org/Graphics/SVG/1.1/DTD/svg11.dtd">
<!-- Created with Vectornator (http://vectornator.io/) -->
<svg height="100%" stroke-miterlimit="10" style="fill-rule:nonzero;clip-rule:evenodd;stroke-linecap:round;stroke-linejoin:round;" version="1.1" viewBox="0 0 1024 1024" width="100%" xml:space="preserve" xmlns="http://www.w3.org/2000/svg" xmlns:vectornator="http://vectornator.io" xmlns:xlink="http://www.w3.org/1999/xlink">
<defs/>
<g id="Layer-2" vectornator:layerName="Layer 2"/>
<clipPath id="ArtboardFrame">
<rect height="1024" width="1024" x="0" y="0"/>
</clipPath>
<g clip-path="url(#ArtboardFrame)" id="Layer-1" vectornator:layerName="Layer 1">
<path d="M489.075 1033.85C489.075 1033.85 739.31 1177.09 909.99 1002.43C1080.67 827.773 980.142 687.463 980.142 687.463L861.534 644.346L533.915 631.923L470.994 647.27L420.369 766.387L489.075 1033.85Z" fill="#ffffff" fill-rule="evenodd" opacity="1" stroke="none"/>
<path d="M43.2024 698.823C43.2024 698.823 444.83 606.162 452.551 660.5C460.271 714.837 465.595 758.415 465.595 758.415L277.914 920.352L76.6559 898.563L85.4409 765.678L43.2024 698.823Z" fill="#4a588c" fill-rule="evenodd" opacity="1" stroke="none"/>
<path d="M43.2024 698.823C43.2024 698.823 444.83 606.162 452.551 660.5C460.271 714.837 465.595 758.415 465.595 758.415L277.914 920.352L76.6559 898.563L85.4409 765.678L43.2024 698.823Z" fill="#566082" fill-rule="evenodd" opacity="1" stroke="none"/>
<path d="M660.012 807.523C660.012 807.523 642.78 976.631 631.45 1000.48C631.45 1000.48 640.892 1016.94 636.879 1023.62L654.347 1003.82C654.347 1003.82 665.441 808.954 672.286 812.293C679.132 815.632 668.746 804.184 668.746 804.184L660.012 807.523Z" fill="#932721" fill-rule="evenodd" opacity="1" stroke="none"/>
<path d="M637.52 749.345C637.52 749.345 614.558 774.056 612.683 788.66L624.343 780.337L638.318 757.707L637.52 749.345Z" fill="#979797" fill-rule="evenodd" opacity="1" stroke="none"/>
<path d="M733.121 749.175C733.121 749.175 770.164 791.883 762.908 808.409L747.203 791.774L730.957 767.806L733.121 749.175Z" fill="#979797" fill-rule="evenodd" opacity="1" stroke="none"/>
<path d="M646.091 727.437C625.434 794.484 587.875 772.979 654.542 814.409C721.209 855.839 754.699 806.819 753.134 788.475C751.569 770.132 724.652 759.379 739.362 717.949C754.073 676.519 686.467 697.708 686.467 697.708C686.467 697.708 666.749 660.389 646.091 727.437Z" fill="#c72f27" fill-rule="evenodd" opacity="1" stroke="none"/>
<path d="M670.774 818.95C670.774 818.95 697.279 985.54 645.79 1031.1C645.79 1031.1 732.063 1053.46 719.573 1078.25C719.573 1078.25 755.705 964.491 780.54 987.16C780.54 987.16 694.443 865.104 698.97 825.545C703.497 785.986 683.573 809.124 683.573 809.124L670.774 818.95Z" fill="#c72f27" fill-rule="evenodd" opacity="1" stroke="none"/>
<path d="M891.997 659.035C891.997 659.035 1453.55 639.469 1441.06 693.75L1425.44 1032.69C1425.44 1032.69 1242.42 1107.17 976.324 1046.58C976.324 1046.58 886.08 1036.86 848.852 1064.83C848.852 1064.83 804.871 1079.01 845.093 1024.6L864.05 830.915L846.611 741.692L865.122 664.501L891.997 659.035Z" fill="#45608c" fill-rule="evenodd" opacity="1" stroke="none"/>
<path d="M891.997 659.035C891.997 659.035 1453.55 639.469 1441.06 693.75L1425.44 1032.69C1425.44 1032.69 1242.42 1107.17 976.324 1046.58C976.324 1046.58 886.08 1036.86 848.852 1064.83C848.852 1064.83 804.871 1079.01 845.093 1024.6L864.05 830.915L846.611 741.692L865.122 664.501L891.997 659.035Z" fill="#566082" fill-rule="evenodd" opacity="1" stroke="none"/>
<path d="M763.64 805.485L790.358 799.342" fill="#979797" fill-rule="evenodd" opacity="1" stroke="none"/>
<path d="M790.143 799.522L762.833 808.389L763.345 804.359L790.143 799.522Z" fill="#979797" fill-rule="evenodd" opacity="1" stroke="none"/>
<path d="M612.491 788.173L592.906 776.808L613.451 786.775L612.491 788.173Z" fill="#979797" fill-rule="evenodd" opacity="1" stroke="none"/>
<path d="M303.162 1030.61C303.162 1030.61 615.413 1187.57 598.506 1012.99C581.599 838.417 564.164 868.314 564.164 868.314L530.878 774.886L466.42 737.516L348.071 780.225C348.071 780.225 352.826 919.031 334.862 952.131" fill="#566082" fill-rule="evenodd" opacity="1" stroke="none"/>
<path d="M864.092 728.297L863.454 726.989L862.026 726.779L863.059 725.762L862.815 724.325L864.092 725.003L865.369 724.325L865.126 725.762L866.159 726.779L864.731 726.989L864.092 728.297Z" fill="#ffffff" fill-rule="evenodd" opacity="1" stroke="none"/>
<path d="M864.37 735.257L863.568 733.616L861.775 733.353L863.073 732.075L862.766 730.271L864.37 731.123L865.973 730.271L865.667 732.075L866.964 733.353L865.171 733.616L864.37 735.257Z" fill="#ffffff" fill-rule="evenodd" opacity="1" stroke="none"/>
<path d="M877.823 741.891L876.668 739.526L874.086 739.147L875.954 737.306L875.513 734.707L877.823 735.934L880.133 734.707L879.692 737.306L881.56 739.147L878.978 739.526L877.823 741.891Z" fill="#ffffff" fill-rule="evenodd" opacity="1" stroke="none"/>
<path d="M864.878 742.872L864.158 741.397L862.548 741.161L863.713 740.013L863.438 738.393L864.878 739.158L866.318 738.393L866.043 740.013L867.209 741.161L865.598 741.397L864.878 742.872Z" fill="#ffffff" fill-rule="evenodd" opacity="1" stroke="none"/>
<path d="M585.036 1072.38C585.036 1072.38 496.201 860.586 470.751 852.337L504.758 815.494L385.7 734.436L408.313 641.636L487.9 627.966C487.9 627.966 696.587 942.364 585.036 1072.38Z" fill="#434b66" fill-rule="evenodd" opacity="1" stroke="none"/>
<path d="M868.392 730.586L868.093 729.974L867.424 729.875L867.908 729.399L867.794 728.726L868.392 729.044L868.99 728.726L868.875 729.399L869.359 729.875L868.691 729.974L868.392 730.586Z" fill="#ffffff" fill-rule="evenodd" opacity="1" stroke="none"/>
<path d="M344.743 860.29C344.743 860.29 425.985 774.901 403.861 719.93C403.861 719.93 391.892 660.56 419.819 714.799C419.819 714.799 446.658 786.995 416.192 824.009C416.192 824.009 510.49 669.722 521.371 819.978C521.371 819.978 502.874 850.396 492.719 792.492C492.719 792.492 459.714 790.293 453.549 831.705C453.549 831.705 443.031 865.055 454.637 873.117" fill="#e5b665" fill-rule="evenodd" opacity="1" stroke="#f0c08e" stroke-linecap="butt" stroke-linejoin="round" stroke-width="0.1"/>
<path d="M444.482 867.986C444.482 867.986 501.382 891.831 508.108 842.951C508.108 842.951 510.954 819.165 520.266 835.502C520.266 835.502 547.428 868.175 524.017 887.257C524.017 887.257 497.631 902.94 465.813 903.855C465.813 903.855 444.86 903.986 435.418 923.459C425.976 942.933 395.451 913.527 395.451 913.527L381.482 896.536L346.698 859.562L412.344 842.979L444.482 867.986Z" fill="#e5b665" fill-rule="evenodd" opacity="1" stroke="#f0c08e" stroke-linecap="butt" stroke-linejoin="round" stroke-width="0.1"/>
<path d="M346.835 858.369C346.835 858.369 376.103 765.692 362.494 742.334C362.494 742.334 352.987 718.223 374.985 736.118C374.985 736.118 392.694 802.047 380.391 828.23C380.391 828.23 392.135 739.885 381.509 718.223C381.509 718.223 377.967 693.17 393.999 714.267C393.999 714.267 418.234 784.34 401.456 813.349L402.015 843.299L367.341 862.701L346.835 858.369Z" fill="#e5b665" fill-rule="evenodd" opacity="1" stroke="#f0c08e" stroke-linecap="butt" stroke-linejoin="round" stroke-width="0.1"/>
<path d="M1204.72 837.558C1204.72 837.558 1173.89 744.1 1181.14 726.508C1181.14 726.508 1161.15 725.066 1169.27 750.958C1169.27 750.958 1168.2 775.77 1175.03 793.247C1175.03 793.247 1157.74 733.481 1163.29 719.241C1163.29 719.241 1155.6 691.839 1150.69 717.083C1150.69 717.083 1144.07 731.323 1153.04 758.078C1153.04 758.078 1151.54 783.106 1159.66 795.188C1159.66 795.188 1136.96 718.376 1140.87 706.727C1140.87 706.727 1132.54 678.462 1126.13 717.515C1126.13 717.515 1124.85 731.539 1135.1 754.194C1135.1 754.194 1128.91 762.393 1138.95 784.4C1138.95 784.4 1111.83 721.183 1094.1 727.008C1094.1 727.008 1051.19 745.564 1063.36 785.695C1063.36 785.695 1074.25 810.076 1077.66 798.641C1077.66 798.641 1066.13 754.841 1094.53 752.252C1094.53 752.252 1150.9 821.295 1135.32 835.104C1135.32 835.104 1101.15 847.834 1091.97 814.823C1091.97 814.823 1071.9 790.226 1075.1 817.628C1075.1 817.628 1073.82 855.17 1104.35 863.8C1104.35 863.8 1158.16 864.879 1169.91 887.318C1181.65 909.757 1214.11 865.311 1214.11 865.311L1204.72 837.558Z" fill="#e5b665" fill-rule="evenodd" opacity="1" stroke="none"/>
<path d="M840.918 1066.65C840.918 1066.65 908.414 830.377 935.466 852.299L879.487 808.996L983.142 726.45C1006.18 719.982 876.469 642.557 876.469 642.557L834.365 684.837L840.918 1066.65Z" fill="#434b66" fill-rule="evenodd" opacity="1" stroke="none"/>
<path d="M841.287 1053.45L832.95 674.41L870.195 712.921L866.774 758.153L816.92 675.159C816.92 675.159 784.705 1007.16 841.287 1053.45Z" fill="#434b66" fill-rule="evenodd" opacity="1" stroke="none"/>
<path d="M860.504 729.332L861.019 737.434L910.892 739.664L911.481 729.778L895.003 726.731L868.228 726.062L861.534 726.582L860.504 729.332Z" fill="#ffffff" fill-rule="evenodd" opacity="1" stroke="none"/>
<path d="M860.651 722.271L860.578 728.589L911.701 729.852L911.701 721.899L860.651 722.271Z" fill="#932721" fill-rule="evenodd" opacity="1" stroke="none"/>
<path d="M861.019 735.278L861.828 743.083L910.745 745.759L910.892 736.393L861.019 735.278Z" fill="#932721" fill-rule="evenodd" opacity="1" stroke="none"/>
<path d="M861.987 741.937L862.21 752.99L911.277 752.944L910.027 744.328L861.987 741.937Z" fill="#ffffff" fill-rule="evenodd" opacity="1" stroke="none"/>
<path d="M862.285 747.745L862.285 755.193L911.452 756.071L910.674 749.179L862.285 747.745Z" fill="#932721" fill-rule="evenodd" opacity="1" stroke="none"/>
<path d="M860.547 722.49C860.547 722.49 859.036 737.232 861.822 741.478C864.608 745.724 880.141 742.957 881.605 742.719C883.069 742.48 883.021 722.681 881.038 721.679C879.055 720.677 862.955 720.391 860.547 722.49Z" fill="#283067" fill-rule="evenodd" opacity="1" stroke="none"/>
<path d="M872.368 729.558L871.308 727.388L868.938 727.04L870.653 725.351L870.248 722.966L872.368 724.092L874.487 722.966L874.082 725.351L875.797 727.04L873.427 727.388L872.368 729.558Z" fill="#ffffff" fill-rule="evenodd" opacity="1" stroke="none"/>
<path d="M878.1 730.959L877.53 729.791L876.254 729.604L877.177 728.694L876.959 727.41L878.1 728.016L879.242 727.41L879.024 728.694L879.947 729.604L878.671 729.791L878.1 730.959Z" fill="#ffffff" fill-rule="evenodd" opacity="1" stroke="none"/>
<path d="M870.75 738.574L869.798 736.627L867.672 736.314L869.211 734.799L868.847 732.658L870.75 733.669L872.652 732.658L872.288 734.799L873.827 736.314L871.701 736.627L870.75 738.574Z" fill="#ffffff" fill-rule="evenodd" opacity="1" stroke="none"/>
<path d="M871.767 743.058L871.413 742.335L870.623 742.219L871.195 741.656L871.06 740.861L871.767 741.237L872.473 740.861L872.338 741.656L872.91 742.219L872.12 742.335L871.767 743.058Z" fill="#ffffff" fill-rule="evenodd" opacity="1" stroke="none"/>
<path d="M878.378 726.381L877.997 725.602L877.147 725.477L877.762 724.871L877.617 724.015L878.378 724.419L879.139 724.015L878.993 724.871L879.609 725.477L878.758 725.602L878.378 726.381Z" fill="#ffffff" fill-rule="evenodd" opacity="1" stroke="none"/>
<path d="M827.848 692.285L838.157 1016.89C838.157 1016.89 866.686 909.335 867.884 904.975C869.083 900.615 845.109 715.783 845.109 715.783L846.548 680.415L827.848 692.285Z" fill="#434b66" fill-rule="evenodd" opacity="1" stroke="none"/>
<path d="M863.088 727.796L862.513 726.619L861.227 726.43L862.158 725.513L861.938 724.218L863.088 724.83L864.239 724.218L864.019 725.513L864.95 726.43L863.664 726.619L863.088 727.796Z" fill="#ffffff" fill-rule="evenodd" opacity="1" stroke="none"/>
<path d="M876.455 736.479L875.964 735.474L874.866 735.312L875.661 734.53L875.473 733.425L876.455 733.947L877.437 733.425L877.25 734.53L878.044 735.312L876.946 735.474L876.455 736.479Z" fill="#ffffff" fill-rule="evenodd" opacity="1" stroke="none"/>
<path d="M862.706 736.769L861.458 734.212L858.666 733.802L860.686 731.812L860.209 729.002L862.706 730.329L865.204 729.002L864.727 731.812L866.747 733.802L863.955 734.212L862.706 736.769Z" fill="#ffffff" fill-rule="evenodd" opacity="1" stroke="none"/>
<path d="M879.272 739.904L878.795 738.927L877.728 738.771L878.5 738.01L878.318 736.937L879.272 737.444L880.226 736.937L880.044 738.01L880.815 738.771L879.749 738.927L879.272 739.904Z" fill="#ffffff" fill-rule="evenodd" opacity="1" stroke="none"/>
<path d="M865.093 742.316L864.266 740.621L862.415 740.349L863.754 739.03L863.438 737.167L865.093 738.047L866.749 737.167L866.433 739.03L867.772 740.349L865.921 740.621L865.093 742.316Z" fill="#ffffff" fill-rule="evenodd" opacity="1" stroke="none"/>
<path d="M868.34 730.835L868.115 730.376L867.613 730.302L867.976 729.944L867.891 729.439L868.34 729.678L868.789 729.439L868.703 729.944L869.066 730.302L868.564 730.376L868.34 730.835Z" fill="#ffffff" fill-rule="evenodd" opacity="1" stroke="none"/>
<path d="M866.812 724.468L866.419 723.664L865.541 723.535L866.176 722.908L866.026 722.024L866.812 722.442L867.598 722.024L867.448 722.908L868.083 723.535L867.205 723.664L866.812 724.468Z" fill="#ffffff" fill-rule="evenodd" opacity="1" stroke="none"/>
<path d="M879.272 735.418L879.005 734.872L878.409 734.785L878.84 734.36L878.739 733.76L879.272 734.043L879.805 733.76L879.703 734.36L880.134 734.785L879.538 734.872L879.272 735.418Z" fill="#ffffff" fill-rule="evenodd" opacity="1" stroke="none"/>
<path d="M881.134 732.234L880.979 731.918L880.634 731.867L880.884 731.622L880.825 731.274L881.134 731.438L881.442 731.274L881.383 731.622L881.633 731.867L881.288 731.918L881.134 732.234Z" fill="#ffffff" fill-rule="evenodd" opacity="1" stroke="none"/>
<path d="M875.023 732.041L874.925 731.84L874.705 731.808L874.864 731.651L874.827 731.43L875.023 731.535L875.219 731.43L875.182 731.651L875.341 731.808L875.121 731.84L875.023 732.041Z" fill="#ffffff" fill-rule="evenodd" opacity="1" stroke="none"/>
<path d="M1206.46 839.425C1206.46 839.425 1175.63 745.967 1182.88 728.375C1182.88 728.375 1162.9 726.933 1171.01 752.824C1171.01 752.824 1169.94 777.636 1176.78 795.113C1176.78 795.113 1159.48 735.347 1165.03 721.107C1165.03 721.107 1157.34 693.706 1152.43 718.95C1152.43 718.95 1145.81 733.19 1154.78 759.944C1154.78 759.944 1153.29 784.972 1161.4 797.055C1161.4 797.055 1138.7 720.242 1142.61 708.593C1142.61 708.593 1134.28 680.329 1127.88 719.381C1127.88 719.381 1126.6 733.406 1136.85 756.06C1136.85 756.06 1130.65 764.259 1140.69 786.267C1140.69 786.267 1113.57 723.049 1095.85 728.875C1095.85 728.875 1052.93 747.43 1065.1 787.561C1065.1 787.561 1075.99 811.942 1079.41 800.507C1079.41 800.507 1067.88 756.708 1096.28 754.119C1096.28 754.119 1152.65 823.162 1137.06 836.97C1137.06 836.97 1102.89 849.7 1093.71 816.689C1093.71 816.689 1073.64 792.092 1076.84 819.494C1076.84 819.494 1075.56 857.036 1106.1 865.667C1106.1 865.667 1159.91 866.745 1171.65 889.184C1183.39 911.624 1215.85 867.177 1215.85 867.177L1206.46 839.425Z" fill="#e5b665" fill-rule="evenodd" opacity="1" stroke="none"/>
<path d="M873.925 729.388L873.729 728.986L873.289 728.921L873.607 728.608L873.532 728.166L873.925 728.375L874.318 728.166L874.243 728.608L874.561 728.921L874.121 728.986L873.925 729.388Z" fill="#ffffff" fill-rule="evenodd" opacity="1" stroke="none"/>
<path d="M876.026 729.34L875.885 729.053L875.572 729.007L875.799 728.783L875.745 728.467L876.026 728.616L876.306 728.467L876.253 728.783L876.48 729.007L876.166 729.053L876.026 729.34Z" fill="#ffffff" fill-rule="evenodd" opacity="1" stroke="none"/>
<path d="M138.599 864.684C138.599 864.684 332.575 837.742 352.144 828.844L213.695 933.643L116.829 911.893L115.606 898.298L136.153 877.042L133.463 869.627L138.599 864.684Z" fill="#2b324e" fill-rule="evenodd" opacity="1" stroke="none"/>
<path d="M1126.34 900.197C1126.34 900.197 1212.03 839.904 1199.14 818.199C1199.14 818.199 1315.85 824.71 1330.41 854.375C1330.41 854.375 1349.88 714.016 1364.45 723.941C1364.45 723.941 1391.7 684.56 1433.21 681.679C1433.21 681.679 1503.87 697.687 1510.84 845.603C1510.84 845.603 1579.91 1123.51 1365.4 1049.23C1365.4 1049.23 1232.91 978.163 1126.34 900.197Z" fill="#566082" fill-rule="evenodd" opacity="1" stroke="none"/>
<path d="M31.5171 712.781C31.5171 712.781-298.5 1132.17 169.867 1062.5C169.867 1062.5 440.591 1056 470.927 925.029C470.927 925.029 331.658 942.678 344.068 842.359C344.068 842.359 138.612 908.774 101.381 913.419C101.381 913.419 186.873 821.924 166.649 787.091C166.649 787.091 171.705 690.952 31.5171 712.781Z" fill="#566082" fill-rule="evenodd" opacity="1" stroke="none"/>
<path d="M42.3993 698.721C42.3993 698.721-287.618 1118.11 180.749 1048.44C180.749 1048.44 451.473 1041.94 481.809 910.97C481.809 910.97 342.54 928.619 354.95 828.3C354.95 828.3 149.494 894.715 112.264 899.359C112.264 899.359 197.755 807.864 177.532 773.031C177.532 773.031 182.588 676.892 42.3993 698.721Z" fill="#566082" fill-rule="evenodd" opacity="1" stroke="none"/>
<path d="M121.839 800.809C121.839 800.809 143.414 862.857 116.528 897.403C116.528 897.403 183.577 854.472 121.839 800.809Z" fill="#2b324e" fill-rule="evenodd" opacity="1" stroke="none"/>
<path d="M323.716 1039.37C323.716 1039.37 451.01 969.617 457.13 957.249" fill="#566082" fill-rule="evenodd" opacity="1" stroke="none"/>
<path d="M322.736 1038.63C322.736 1038.63 459.577 962.444 463.494 940.677L322.736 1038.63Z" fill="#2b324e" fill-rule="evenodd" opacity="1" stroke="none"/>
<path d="M384.304 895.651C384.304 895.651 446.943 938.476 460.664 940.275C460.664 940.275 448.371 922.176 445.306 911.363C445.306 911.363 417.895 911.171 384.304 895.651Z" fill="#2b324e" fill-rule="evenodd" opacity="1" stroke="none"/>
<path d="M1225.55 832.919C1225.55 832.919 1357 884.052 1384.05 913.318C1384.05 913.318 1328.36 844.496 1225.55 832.919Z" fill="#2b324e" fill-rule="evenodd" opacity="1" stroke="none"/>
<path d="M1282.31 756.482C1282.31 756.482 1268.4 865.629 1264.32 866.945C1260.23 868.261 1284.07 879.646 1286.51 886.374C1286.51 886.374 1276.4 800.638 1282.31 756.482Z" fill="#2b324e" fill-rule="evenodd" opacity="1" stroke="none"/>
<path d="M1150.75 919.771C1150.75 919.771 1252.08 1014.54 1309.42 1025.89C1309.42 1025.89 1161.17 926.5 1150.75 919.771Z" fill="#2b324e" fill-rule="evenodd" opacity="1" stroke="none"/>
<path d="M1152.99 874.789C1152.99 874.789 1139.59 890.023 1137.05 901.479C1137.05 901.479 1157.52 878.863 1157.77 876.24C1158.01 873.616 1152.99 874.789 1152.99 874.789Z" fill="#2b324e" fill-rule="evenodd" opacity="1" stroke="none"/>
<path d="M676.725 825.1C676.725 825.1 689.234 831.209 696.225 829.405L676.725 825.1Z" fill="#932721" fill-rule="evenodd" opacity="1" stroke="none"/>
<path d="M451.167 369.939C451.167 369.939 203.574 516.975 455.51 669.498C455.51 669.498 780.204 857.134 1015.85 565.256C1015.85 565.256 1104.9 463.208 950.695 373.231C950.695 373.231 1007.16 327.145 911.601 227.292C911.601 227.292 694.415 59.4072 476.143 210.833C476.143 210.833 408.815 248.14 451.167 369.939Z" fill="#e5b665" fill-rule="evenodd" opacity="1" stroke="none"/>
<path d="M990.708 420.337C990.708 420.337 1082.95 397.727 1053.96 357.812C1053.96 357.812 1027.24 255.834 931.798 348.122C836.355 440.41 970.386 427.028 970.386 427.028L990.708 420.337Z" fill="#e5b665" fill-rule="evenodd" opacity="1" stroke="none"/>
<path d="M956.175 280.45C956.175 280.45 915.967 384.73 976.279 400.982C976.279 400.982 954.165 363.062 969.578 349.519C969.578 349.519 955.505 396.242 990.352 395.565C990.352 395.565 994.373 350.873 984.321 340.039C984.321 340.039 1001.74 386.085 1023.86 383.376" fill="#e0c58e" fill-rule="evenodd" opacity="1" stroke="#f0c08e" stroke-linecap="butt" stroke-linejoin="round" stroke-width="0.1"/>
<path d="M997.724 358.322L1017.16 375.25C1017.16 375.25 1001.74 273.002 989.012 261.49C976.279 249.979 958.856 261.49 958.856 261.49L965.557 323.11L997.724 358.322Z" fill="#e0c58e" fill-rule="evenodd" opacity="1" stroke="#f0c08e" stroke-linecap="butt" stroke-linejoin="round" stroke-width="0.1"/>
<path d="M560.504 394.496C560.504 394.496 738.235 415.77 700.045 382.128" fill="none" fill-rule="evenodd" opacity="1" stroke="#d4924d" stroke-linecap="butt" stroke-linejoin="round" stroke-width="8"/>
<path d="M774.956 386.58C774.956 386.58 750.965 421.706 876.796 414.78" fill="none" fill-rule="evenodd" opacity="1" stroke="#d4924d" stroke-linecap="butt" stroke-linejoin="round" stroke-width="8"/>
<path d="M524.762 483.054C524.762 483.054 824.897 554.296 906.173 531.043C987.449 507.79 822.938 706.179 632.967 632.464C442.996 558.748 524.762 483.054 524.762 483.054Z" fill="#f0f0f0" fill-rule="evenodd" opacity="1" stroke="#e29b5c" stroke-linecap="butt" stroke-linejoin="round" stroke-width="8"/>
<path d="M895.883 411.447C895.883 411.447 925.286 399.562 918.304 383.599" fill="none" fill-rule="evenodd" opacity="1" stroke="#d4924d" stroke-linecap="butt" stroke-linejoin="round" stroke-width="8"/>
<path d="M900.937 417.551C900.937 417.551 925.31 431.042 926.034 413.754" fill="none" fill-rule="evenodd" opacity="1" stroke="#d4924d" stroke-linecap="butt" stroke-linejoin="round" stroke-width="8"/>
<path d="M898.189 430.622C898.189 430.622 912.355 455.706 932.389 441.364" fill="none" fill-rule="evenodd" opacity="1" stroke="#d4924d" stroke-linecap="butt" stroke-linejoin="round" stroke-width="8"/>
<path d="M547.761 382.576C547.761 382.576 519.372 378.41 532.732 358.222" fill="none" fill-rule="evenodd" opacity="1" stroke="#d4924d" stroke-linecap="butt" stroke-linejoin="round" stroke-width="8"/>
<path d="M536.912 396.937C536.912 396.937 500.835 402.976 496.23 387.226" fill="none" fill-rule="evenodd" opacity="1" stroke="#d4924d" stroke-linecap="butt" stroke-linejoin="round" stroke-width="8"/>
<path d="M539.244 411.271C539.244 411.271 529.099 435.784 505.835 418.761" fill="none" fill-rule="evenodd" opacity="1" stroke="#d4924d" stroke-linecap="butt" stroke-linejoin="round" stroke-width="8"/>
<path d="M709.588 440.874C709.588 440.874 700.523 459.687 722.008 454.192C722.008 454.192 742.431 489.24 747.702 459.011C747.702 459.011 786.171 471.71 769.266 443.142C752.361 414.575 786.99 425.947 748.884 361.661" fill="none" fill-rule="evenodd" opacity="1" stroke="#d4924d" stroke-linecap="butt" stroke-linejoin="round" stroke-width="8"/>
<path d="M807.095 463.492C807.095 463.492 850.297 535.475 921.076 518.292" fill="none" fill-rule="evenodd" opacity="1" stroke="#d4924d" stroke-linecap="butt" stroke-linejoin="round" stroke-width="8"/>
<path d="M680.703 443.058C680.703 443.058 582.808 496.465 540.524 468.136" fill="none" fill-rule="evenodd" opacity="1" stroke="#d4924d" stroke-linecap="butt" stroke-linejoin="round" stroke-width="8"/>
<path d="M890.212 547.762C890.212 547.762 846.13 536.68 814.48 536.054C814.48 536.054 872.504 537.953 901.006 533.847C929.508 529.741 900.413 548.398 900.413 548.398L890.212 547.762Z" fill="#000000" fill-rule="evenodd" opacity="1" stroke="none"/>
<path d="M480.053 364.849C480.053 364.849 506.336 262.986 557.24 308.707C557.24 308.707 778.82 425.698 887.946 304C997.073 182.302 844.695 210.542 844.695 210.542L535.614 193.396L467.743 225.67L450.442 342.997L480.053 364.849Z" fill="#dda749" fill-rule="evenodd" opacity="1" stroke="none"/>
<path d="M505.844 172.108C505.844 172.108 367.796 180.91 397.282 333.945C397.282 333.945 434.139 372.542 413.365 416.556C413.365 416.556 450.223 393.533 446.202 373.219C446.202 373.219 446.872 407.753 455.584 415.202C455.584 415.202 480.379 388.116 469.657 369.156C469.657 369.156 481.049 411.816 488.42 352.228C488.42 352.228 492.441 198.516 523.938 224.925C555.434 251.333 543.371 193.776 543.371 193.776L505.844 172.108Z" fill="#e0c58e" fill-rule="evenodd" opacity="1" stroke="#f0c08e" stroke-linecap="butt" stroke-linejoin="round" stroke-width="0.1"/>
<path d="M864.568 602.773C864.568 602.773 928.383 563.32 925.342 535.132L924.601 531.206C924.601 531.206 904.701 531.27 894.415 535.271C884.129 539.271 894.57 579.407 864.568 602.773Z" fill="#000000" fill-rule="evenodd" opacity="1" stroke="none"/>
<path d="M470.327 163.982C470.327 163.982 462.955 285.19 699.513 330.559C936.071 375.928 978.96 275.71 995.043 252.01C1011.13 228.31 977.62 96.9447 885.811 75.2761C794.002 53.6076 611.725 23.8133 527.958 72.5676C444.191 121.322 431.459 109.81 376.508 143.668C321.556 177.525 507.854 103.716 470.327 163.982Z" fill="#e0c58e" fill-rule="evenodd" opacity="1" stroke="#f0c08e" stroke-linecap="butt" stroke-linejoin="round" stroke-width="0.1"/>
<path d="M383.301 437.407C383.301 437.407 332.5 468.561 309.346 392.701C309.346 392.701 295.946 337.798 357.482 325.836C419.019 313.874 416.584 371.935 428.968 380.288C441.351 388.64 435.656 422.899 435.656 422.899L383.301 437.407Z" fill="#e5b665" fill-rule="evenodd" opacity="1" stroke="#f0c08e" stroke-linecap="butt" stroke-linejoin="round" stroke-width="0.1"/>
<path d="M360.592 409.442C360.116 409.442 360.297 409.337 360.071 409.793" fill="#e5b665" fill-rule="evenodd" opacity="1" stroke="#f0c08e" stroke-linecap="butt" stroke-linejoin="round" stroke-width="0.1"/>
<path d="M350.872 408.214C350.872 408.214 380.206 404.356 376.734 385.765C376.734 385.765 376.734 352.616 403.638 396.639" fill="none" fill-rule="evenodd" opacity="1" stroke="#d3914c" stroke-linecap="butt" stroke-linejoin="round" stroke-width="8.23817"/>
<path d="M341.93 407.222C341.93 407.222 297.461 337.309 380.19 350.429" fill="none" fill-rule="evenodd" opacity="1" stroke="#d3914c" stroke-linecap="butt" stroke-linejoin="round" stroke-width="8.23817"/>
<path d="M578.914 664.06C578.914 664.06 709.247 755.312 816.316 667.346" fill="none" fill-rule="evenodd" opacity="1" stroke="#d3914c" stroke-linecap="butt" stroke-linejoin="round" stroke-width="8.23817"/>
<path d="M128.472 662.814C128.472 662.814-37.6288 914.005 247.728 1059.94C247.728 1059.94 509.874 1134.24 556.138 949.819C556.138 949.819 556.815 862.451 515.008 815.729L410.4 691.827L218.802 670.282L128.472 662.814Z" fill="#ffffff" fill-rule="evenodd" opacity="1" stroke="none"/>
<path d="M157.285 638.977C157.285 638.977 240.641 1044.67 182.562 1062.11C124.482 1079.55-17.9723 1049.63-17.9723 1049.63L-181.07 1007.8C-181.07 1007.8-238.968 1002.52-286.859 1022.61" fill="#616161" fill-rule="evenodd" opacity="1" stroke="none"/>
<path d="M-279.933 1016.52C-279.933 1016.52-303.339 890.455-261.37 799.819C-261.37 799.819 29.1847 747.085 94.5595 693.528" fill="#616161" fill-rule="evenodd" opacity="1" stroke="none"/>
<path d="M400.722 737.919C400.722 737.919 493.22 1025.64 459.256 1052.94C459.256 1052.94 562.594 1069.9 678.217 1024.9C678.217 1024.9 732.415 1016.05 783 1049.25C783 1049.25 836.476 917.929 808.293 876.615C808.293 876.615 423.847 790.299 433.241 677.424C442.635 564.549 392.773 698.081 392.773 698.081L400.722 737.919Z" fill="#616161" fill-rule="evenodd" opacity="1" stroke="none"/>
<path d="M272.411 765.533C272.411 765.533 257.011 794.271 253.537 815.625" fill="#bababa" fill-rule="evenodd" opacity="1" stroke="none"/>
<path d="M262.914 863.031L198.443 900.112L199.155 913.836C199.155 913.836 257.239 866.353 262.914 863.031Z" fill="#bbbbbb" fill-rule="evenodd" opacity="1" stroke="none"/>
<path d="M263.989 819.792L186.653 807.602L185.141 799.558L263.989 819.792Z" fill="#bbbbbb" fill-rule="evenodd" opacity="1" stroke="none"/>
<path d="M333.283 768.479C333.283 768.479 358.179 792.952 361.692 807.49" fill="#bababa" fill-rule="evenodd" opacity="1" stroke="none"/>
<path d="M356.945 864.215L439.428 875.495L444.053 887.038C444.053 887.038 398.058 871.036 356.945 864.215Z" fill="#bbbbbb" fill-rule="evenodd" opacity="1" stroke="none"/>
<path d="M356.174 810.963L413.475 778.434L416.045 787.353C416.045 787.353 413.475 782.369 356.174 810.963Z" fill="#bbbbbb" fill-rule="evenodd" opacity="1" stroke="none"/>
<path d="M144.589 1064.56C144.589 1064.56 134.873 899.592 96.3329 850.219L122.393 812.306L57.2603 757.506L73.4901 707.837C73.4901 707.837 85.1866 702.051 91.667 693.688C98.1475 685.324 134.236 692.609 134.236 692.609L169.437 710.359C169.437 710.359 242.024 1050.01 185.2 1058.55C185.2 1058.55 188.041 1069.57 144.589 1064.56Z" fill="#504f4f" fill-rule="evenodd" opacity="1" stroke="none"/>
<path d="M399.128 738.744C399.128 738.744 415.084 787.4 416.974 789.758C418.864 792.115 481.22 1042.04 458.965 1049.33C458.965 1049.33 457.108 1057.53 463.267 1057.53C463.267 1057.53 476.392 1053.11 478.44 1054.2C478.44 1054.2 500.918 1056.8 514.908 1054.81C514.908 1054.81 490.815 890.965 516.851 871.129L470.219 833.044L489.26 783.85C489.26 783.85 469.83 748.938 467.11 742.987C464.39 737.036 451.566 726.325 450.788 712.043C450.011 697.76 413.094 719.184 413.094 719.184L399.128 738.744Z" fill="#504f4f" fill-rule="evenodd" opacity="1" stroke="none"/>
<path d="M274.975 818.308C274.975 818.308 315.317 760.596 345.125 816.996C345.125 816.996 312.748 771.614 274.975 818.308Z" fill="#bbbbbb" fill-rule="evenodd" opacity="1" stroke="none"/>
<path d="M273.947 858.444C273.947 858.444 294.761 911.696 346.666 862.641C346.666 862.641 303.24 904.089 273.947 858.444Z" fill="#bbbbbb" fill-rule="evenodd" opacity="1" stroke="none"/>
<path d="M208.227 879.889L198.838 899.629C198.838 899.629 163.143 932.329 156.265 859.401C156.265 859.401 158.464 849.423 164.774 849.702C164.774 849.702 143.07 819.728 149.521 807.364C149.521 807.364 148.332 789.051 186.488 807.774C224.644 826.497 220.075 834.062 220.075 834.062L208.227 879.889Z" fill="#ffffff" fill-rule="evenodd" opacity="1" stroke="none"/>
<path d="M158.462 861.299C158.462 861.299 140.59 826.416 152.617 815.859C164.644 805.302 170.601 836.399 170.601 836.399L179.256 862.791" fill="#ffffff" fill-rule="evenodd" opacity="1" stroke="none"/>
<path d="M416.871 787.183C416.871 787.183 455.202 775.785 454.644 824.415C454.644 824.415 457.621 846.261 464.134 863.357C464.134 863.357 470.46 877.984 441.991 875.135C413.522 872.285 419.104 867.157 419.104 867.157L400.497 839.802L416.871 787.183Z" fill="#ffffff" fill-rule="evenodd" opacity="1" stroke="none"/>
<path d="M194.373 899.273C194.373 899.273 201.276 901.844 203.235 895.559C205.194 889.273 204.914 881.559 204.914 881.559L194.373 899.273Z" fill="#ffffff" fill-rule="evenodd" opacity="1" stroke="none"/>
<path d="M413.779 788.198L414.602 792.322L419.661 789.865L416.993 787.304L414.836 787.44L413.779 788.198Z" fill="#ffffff" fill-rule="evenodd" opacity="1" stroke="none"/>
<path d="M435.744 874.084L437.988 875.193C437.988 875.193 443.219 875.199 443.224 874.18C443.229 873.161 441.375 871.979 441.375 871.979L435.744 874.084Z" fill="#ffffff" fill-rule="evenodd" opacity="1" stroke="none"/>
<path d="M-78.8262 908.319C-78.8262 908.319-69.4214 1030.32-72.9161 1032.97C-76.4108 1035.61-64.5717 1035.5-64.5717 1035.5C-64.5717 1035.5-71.8073 915.61-78.8262 908.319Z" fill="#504f4f" fill-rule="evenodd" opacity="1" stroke="none"/>
<path d="M656.782 945.029C656.782 945.029 636.818 1033.43 640.546 1038.41L651.71 1034.4C651.71 1034.4 655.337 955.285 656.782 945.029Z" fill="#504f4f" fill-rule="evenodd" opacity="1" stroke="none"/>
<path d="M70.4766 204.848C70.4766 204.848 50.9315 634.152 26.6482 685.547C26.6482 685.547 166.425 730.291 230.391 728.477C230.391 728.477 342.452 807.809 450.424 720.462C450.424 720.462 540.512 721.188 562.619 703.292C562.619 703.292 478.851 262.201 541.212 192.715C541.212 192.715 248.439-31.9431 70.4766 204.848Z" fill="#f8e5d2" fill-rule="evenodd" opacity="1" stroke="none"/>
<path d="M69.7349 480.49L60.7679 116.93C60.7679 116.93 68.4539 75.735 117.132 79.0044L518.726 97.3132C518.726 97.3132 584.698 99.9288 565.483 167.279L533.458 369.983L514.883 447.142L329.778 266.67L122.256 396.793L69.7349 480.49Z" fill="#f8e5d2" fill-rule="evenodd" opacity="1" stroke="none"/>
<path d="M315.597 416.767C315.597 416.767 311.031 429.159 327.541 442.542C327.541 442.542 308.572 467.821 295.574 438.824" fill="none" fill-rule="evenodd" opacity="1" stroke="#c9b4a1" stroke-linecap="butt" stroke-linejoin="round" stroke-width="8.23817"/>
<path d="M350.031 406.121C350.031 406.121 356.98 395.91 382.325 404.713" fill="none" fill-rule="evenodd" opacity="1" stroke="#c9b4a1" stroke-linecap="butt" stroke-linejoin="round" stroke-width="8.23817"/>
<path d="M348.396 399.255C348.396 399.255 350.848 370.208 387.231 390.981" fill="none" fill-rule="evenodd" opacity="1" stroke="#c9b4a1" stroke-linecap="butt" stroke-linejoin="round" stroke-width="8.23817"/>
<path d="M349.622 413.339C349.622 413.339 358.411 424.958 386.004 419.852" fill="none" fill-rule="evenodd" opacity="1" stroke="#c9b4a1" stroke-linecap="butt" stroke-linejoin="round" stroke-width="8.23817"/>
<path d="M241.793 390.399C241.793 390.399 237.016 381.916 219.328 394.581" fill="none" fill-rule="evenodd" opacity="1" stroke="#c9b4a1" stroke-linecap="butt" stroke-linejoin="round" stroke-width="8.23817"/>
<path d="M244.306 399.063C244.306 399.063 237.678 413.014 219.417 406.54" fill="none" fill-rule="evenodd" opacity="1" stroke="#c9b4a1" stroke-linecap="butt" stroke-linejoin="round" stroke-width="8.23817"/>
<path d="M151.922 140.364L133.474 133.483" fill="#4c321a" fill-rule="evenodd" opacity="1" stroke="none"/>
<path d="M80.2299 201.167L74.8673 284.811C74.8673 284.811 194.989 56.4731 420.4 129.393C645.811 202.314 338.722 89.647 338.722 89.647L217.497 76.4068L129.041 68.197L114.524 67.4288L84.1867 121.538L75.5389 186.491L84.9398 205.105" fill="#ecd8c5" fill-rule="evenodd" opacity="1" stroke="none"/>
<path d="M333.397 470.332C333.397 470.332 372.947 582.347 398.539 575.019" fill="none" fill-rule="evenodd" opacity="1" stroke="#c9b4a1" stroke-linecap="butt" stroke-linejoin="round" stroke-width="8.62564"/>
<path d="M286.6 456.271C286.6 456.271 278.205 564.283 243.365 596.687" fill="none" fill-rule="evenodd" opacity="1" stroke="#c9b4a1" stroke-linecap="butt" stroke-linejoin="round" stroke-width="8.62564"/>
<path d="M409.722 657.36C409.722 657.36 422.637 697.603 444.802 712.297" fill="none" fill-rule="evenodd" opacity="1" stroke="#c9b4a1" stroke-linecap="round" stroke-linejoin="round" stroke-width="8.62564"/>
<path d="M184.197 111.257C184.197 111.257 438.861 161.533 472.591 134.673C472.591 134.673 517.453 92.6622 474.953 58.227C474.953 58.227 416.599 68.9019 394.337 43.0755C394.337 43.0755 383.543 60.6375 395.686 69.5906C395.686 69.5906 345.051 62.1328 344.344 42.1056C344.344 42.1056 311.825 50.4052 339.926 72.2366C339.926 72.2366 266.582 12.8767 272.237 39.2188C272.237 39.2188 262.517 41.7447 216.567 47.1575C216.567 47.1575 125.518 40.2032 98.6447 79.1283C98.6447 79.1283 52.6859 141.904 71.5701 216.117C71.5701 216.117 58.052 304.098 36.9016 336.563L58.9161 333.609L52.7603 376.178L82.4829 290.856L96.3937 231.454L102.234 168.718L109.6 113.373L115.512 90.8623L123.056 75.1713C123.056 75.1713 139.682 108.002 184.197 111.257Z" fill="#493b2d" fill-rule="evenodd" opacity="1" stroke="none"/>
<path d="M116.882 71.6675C116.882 71.6675 3.59771 63.1007 64.4357 246.752" fill="#493b2d" fill-rule="evenodd" opacity="1" stroke="none"/>
<path d="M479.537 113.721C479.537 113.721 563.372 157.745 556.371 210.598C556.371 210.598 535.893 280.066 539.774 310.096C539.774 310.096 542.337 362.991 532.162 374.595C532.162 374.595 577.427 315.867 579.797 290.552C579.797 290.552 571.743 232.616 581.275 211.565C581.275 211.565 593.222 122.02 557.227 114.091C557.227 114.091 563.5 82.3649 534.251 88.4889C534.251 88.4889 502.167 85.5387 489.833 93.8842" fill="#493b2d" fill-rule="evenodd" opacity="1" stroke="none"/>
<path d="M197.318 269.471C197.318 269.471 307.923 282.927 435.72 272.981" fill="none" fill-rule="evenodd" opacity="1" stroke="#c9b4a1" stroke-linecap="butt" stroke-linejoin="round" stroke-width="8.23817"/>
<path d="M176.128 227.589C176.128 227.589 379.551 260.764 452.791 221.705" fill="none" fill-rule="evenodd" opacity="1" stroke="#c9b4a1" stroke-linecap="butt" stroke-linejoin="round" stroke-width="8.23817"/>
<path d="M330.986 409.952C330.986 409.952 298.77 336.531 437.342 353.637C437.342 353.637 333.138 377.667 330.986 409.952Z" fill="#ecd8c5" fill-rule="evenodd" opacity="1" stroke="none"/>
<path d="M209.956 183.009C209.956 183.009 352.894 218.776 399.56 192.145" fill="none" fill-rule="evenodd" opacity="1" stroke="#c9b4a1" stroke-linecap="butt" stroke-linejoin="round" stroke-width="8.23817"/>
<path d="M272.741 155.089C272.741 155.089 328.391 179.191 359.065 163.114" fill="none" fill-rule="evenodd" opacity="1" stroke="#c9b4a1" stroke-linecap="butt" stroke-linejoin="round" stroke-width="8.23817"/>
<path d="M562.139 704.407C562.139 704.407 396.223 512.351 404.932 479.452C404.932 479.452 512.059 412.766 521.204 413.21C521.204 413.21 553.429 680.845 562.139 704.407Z" fill="#ecd8c5" fill-rule="evenodd" opacity="1" stroke="none"/>
<path d="M171.471 357.578C171.471 357.578 271.639 374.742 266.429 420.434C266.429 420.434 297.214 370.633 272.823 350.325C272.823 350.325 208.176 332.436 171.471 357.578Z" fill="#ecd8c5" fill-rule="evenodd" opacity="1" stroke="none"/>
<path d="M243.103 383.375C243.103 383.375 228.258 367.032 203.099 384.659" fill="none" fill-rule="evenodd" opacity="1" stroke="#c9b4a1" stroke-linecap="butt" stroke-linejoin="round" stroke-width="8.23817"/>
<path d="M229.727 725.6C229.727 725.6 253.74 704.933 249.843 665.439" fill="none" fill-rule="evenodd" opacity="1" stroke="#c9b4a1" stroke-linecap="butt" stroke-linejoin="round" stroke-width="8.23817"/>
<path d="M218.223 612.108C218.223 612.108 291.432 611.181 308.373 598.519C308.373 598.519 319.264 594.195 325.314 599.136C325.314 599.136 327.735 595.122 338.625 598.828C338.625 598.828 393.381 617.976 409.717 613.034L435.129 603.769C435.129 603.769 410.322 629.712 368.877 626.005C368.877 626.005 330.155 621.682 312.609 621.991C312.609 621.991 253.315 621.064 218.223 612.108Z" fill="#b07678" fill-rule="evenodd" opacity="1" stroke="none"/>
<path d="M193.739 347.429C193.739 347.429 286.134 337.226 281.443 381.578L288.989 369.709L275.324 344.931L234.123 338.059L193.739 347.429Z" fill="#000000" fill-rule="evenodd" opacity="1" stroke="none"/>
<path d="M329.154 384.344C329.154 384.344 334.974 351.168 402.391 351.334L355.183 353.809L334.489 359.751L325.435 373.12L323.495 381.043" fill="#000000" fill-rule="evenodd" opacity="1" stroke="none"/>
<path d="M355.258 354.228C355.258 354.228 399.179 348.44 401.685 351.06L402.318 351.455" fill="#000000" fill-rule="evenodd" opacity="1" stroke="none"/>
<path d="M78.9093 674.258C78.9093 674.258 169.913 658.535 200.714 618.515" fill="#ecd8c5" fill-rule="evenodd" opacity="1" stroke="none"/>
<path d="M52.0022 138.939C52.0022 138.939 41.2062 189.757 16.7704 196.089C16.7704 196.089 49.5682 191.196 59.0234 173.508" fill="#493b2d" fill-rule="evenodd" opacity="1" stroke="none"/>
<path d="M49.3846 175.66C49.3846 175.66 57.0027 202.509 32.8606 221.337C8.71849 240.165 70.6017 195.569 70.6017 195.569L49.3846 175.66Z" fill="#493b2d" fill-rule="evenodd" opacity="1" stroke="none"/>
<path d="M55.5748 199.127C55.5748 199.127 79.3098 188.066 42.129 235.275L76.4634 207.735L55.5748 199.127Z" fill="#493b2d" fill-rule="evenodd" opacity="1" stroke="none"/>
<path d="M79.9389 229.281L64.6116 202.924C64.6116 202.924 66.8345 235.818 33.449 256.801C0.0634075 277.784 77.0174 233.312 77.0174 233.312" fill="#493b2d" fill-rule="evenodd" opacity="1" stroke="none"/>
<path d="M282.016 35.1415C282.016 35.1415 251.385 29.7288 230.607 18.0418C209.829 6.35482 250.186 51.9215 271.529 51.967C292.873 52.0124 282.016 35.1415 282.016 35.1415Z" fill="#493b2d" fill-rule="evenodd" opacity="1" stroke="none"/>
<path d="M208.142 18.9446C208.142 18.9446 237.867 46.0931 258.854 42.1107C279.841 38.1284 257.458 63.714 257.458 63.714C257.458 63.714 203.746 28.4796 208.142 18.9446Z" fill="#493b2d" fill-rule="evenodd" opacity="1" stroke="none"/>
<path d="M148.49 22.8501C148.49 22.8501 259.109 38.4267 231.941 53.4277C204.773 68.4288 189.86 57.0748 189.86 57.0748C189.86 57.0748 195.36 32.4696 148.49 22.8501Z" fill="#493b2d" fill-rule="evenodd" opacity="1" stroke="none"/>
<path d="M152.946 54.969C152.946 54.969 157.458 49.0394 136.099 40.9481C136.099 40.9481 174.676 35.2828 191.11 49.5494" fill="#493b2d" fill-rule="evenodd" opacity="1" stroke="none"/>
<path d="M570.223 127.162C570.223 127.162 568.336 152.589 597.017 172.045L561.543 146.425L570.223 127.162Z" fill="#493b2d" fill-rule="evenodd" opacity="1" stroke="none"/>
<path d="M577.771 157.405C577.771 157.405 595.696 211.92 615.697 215.002C635.698 218.084 572.299 220.011 570.6 185.53C568.902 151.048 577.771 157.405 577.771 157.405Z" fill="#493b2d" fill-rule="evenodd" opacity="1" stroke="none"/>
<path d="M580.601 206.141C580.601 206.141 585.318 234.458 614.754 247.943C644.189 261.427 577.582 244.86 572.676 222.9C567.77 200.94 576.638 203.444 576.638 203.444L580.601 206.141Z" fill="#493b2d" fill-rule="evenodd" opacity="1" stroke="none"/>
<path d="M576.827 228.872C576.827 228.872 582.488 271.829 603.244 279.919C603.244 279.919 579.091 279.342 571.732 247.365C564.374 215.388 568.713 223.863 568.713 223.863L576.827 228.872Z" fill="#493b2d" fill-rule="evenodd" opacity="1" stroke="none"/>
<path d="M574.279 265.89C574.279 265.89 562.659 293.851 590.463 327.744C590.463 327.744 557.264 308.679 560.169 270.55C563.074 232.421 574.279 265.89 574.279 265.89Z" fill="#493b2d" fill-rule="evenodd" opacity="1" stroke="none"/>
<path d="M62.4367 240.145C62.4367 240.145 64.7067 257.241 65.2795 259.902C65.8523 262.563 75.8669 248.297 75.8669 248.297L71.9165 233.881L62.4679 235.483L61.8808 240.894" fill="#493b2d" fill-rule="evenodd" opacity="1" stroke="none"/>
</g>
</svg>
