<?xml version="1.0" encoding="UTF-8" standalone="no"?>
<!DOCTYPE svg PUBLIC "-//W3C//DTD SVG 1.1//EN" "http://www.w3.org/Graphics/SVG/1.1/DTD/svg11.dtd">
<!-- Created with Vectornator (http://vectornator.io/) -->
<svg height="100%" stroke-miterlimit="10" style="fill-rule:nonzero;clip-rule:evenodd;stroke-linecap:round;stroke-linejoin:round;" version="1.1" viewBox="0 0 3370.82 2384.24" width="100%" xml:space="preserve" xmlns="http://www.w3.org/2000/svg" xmlns:vectornator="http://vectornator.io" xmlns:xlink="http://www.w3.org/1999/xlink">
<defs/>
<g id="Layer-2" vectornator:layerName="Layer 2">
<path d="M1239.38 900.727C1239.38 900.727 1296.98 1482.69 1268.28 1602L1541.99 1395.25L1647 1017L1450.99 868.547L1239.38 900.727Z" fill="#000000" fill-rule="evenodd" opacity="1" stroke="none"/>
<path d="M2055.86 966.619C2055.86 966.619 1986.02 1449.91 2036 1550.68L1749.82 1579.19L1656.02 1277.55L1829.24 981.867L2055.86 966.619Z" fill="#000000" fill-rule="evenodd" opacity="1" stroke="none"/>
<path d="M1486.2 1246.11C1486.2 1246.11 1479.68 1515.63 1455.76 1551.85C1455.76 1551.85 1855.87 1927.08 1908.93 1461.73C1908.93 1461.73 1774.11 1364.87 1768.46 1256.22" fill="#f8c19b" fill-rule="evenodd" opacity="1" stroke="none"/>
<path d="M1486.37 1257.95C1486.37 1257.95 1661.12 1413.18 1774.59 1294.23C1774.59 1294.23 1758.42 1355.98 1630.99 1368.99C1630.99 1368.99 1485.84 1461.37 1471.37 1493.37L1486.37 1257.95Z" fill="#d89f76" fill-rule="evenodd" opacity="1" stroke="none"/>
<path d="M1461.28 1547.31C1461.28 1547.31 1061.6 1801.61 1375.93 1902.54C1375.93 1902.54 2281.14 2023.33 2181.02 1671.28C2181.02 1671.28 1893.78 1431.29 1836.33 1419.37" fill="#f8c19b" fill-rule="evenodd" opacity="1" stroke="none"/>
</g>
<g id="Layer-3" vectornator:layerName="Layer 3">
<path d="M1414.94 1420.5C1414.94 1420.5 1424.8 1332.75 1499.56 1427.59C1499.56 1427.59 1543.1 1714.82 1663.87 1786.22C1663.87 1786.22 1847.08 1422.68 1845.44 1357.27C1845.44 1357.27 1833.11 1305.5 1919.38 1403.06C1919.38 1403.06 1974.52 1505.87 1995.06 1497.69C1995.06 1497.69 1907.87 1902.86 1781.35 1949.19C1781.35 1949.19 1294.99 1790.63 1414.94 1420.5Z" fill="#000000" fill-rule="evenodd" opacity="1" stroke="none"/>
<path d="M1426.36 1490.49L1040.92 1595.35" fill="#000000" fill-rule="evenodd" opacity="1" stroke="none"/>
<path d="M1454.5 1456.72C1454.5 1456.72 1016.44 1562.17 990.136 1614.3C990.136 1614.3 836.571 1956.14 1087.41 1929.48C1087.41 1929.48 1743.94 1944.22 1786.59 1972.08" fill="#000000" fill-rule="evenodd" opacity="1" stroke="none"/>
<path d="M1897.94 1483.07C1897.94 1483.07 2189 1577.7 2236.61 1626.13C2236.61 1626.13 2315.15 1867.9 2281.33 1956.68C2281.33 1956.68 1731.73 2067.98 1680.58 1881.62L1786.13 1632.52L1806.45 1535.68L1855.94 1484.11L1897.94 1483.07Z" fill="#000000" fill-rule="evenodd" opacity="1" stroke="none"/>
</g>
<g id="Layer-1" vectornator:layerName="Layer 1">
<path d="M1344.78 913.351C1344.78 913.351 1243.86 1030.77 1501.24 1139.09L1825.89 1129.25C1825.89 1129.25 2038.68 1063.34 1970.62 906.533C1970.62 906.533 2113 484.589 1808.68 419.442C1808.68 419.442 1582.02 348.644 1394.52 465.032C1394.52 465.032 1194.87 538.42 1344.78 913.351Z" fill="#f8c19b" fill-rule="evenodd" opacity="1" stroke="none"/>
<path d="M1381.45 815.805C1381.45 815.805 1493.41 714.704 1599.07 788.398C1599.07 788.398 1622.97 807.888 1593.41 817.023C1593.41 817.023 1511.65 757.337 1383.97 834.686L1363.21 837.122L1381.45 815.805Z" fill="#000000" fill-rule="evenodd" opacity="1" stroke="none"/>
<path d="M1729.32 797.404C1729.32 797.404 1878.74 682.166 1962.62 804.249L1962.62 822.505L1948.46 815.089C1948.46 815.089 1890.79 731.227 1753.96 807.102C1753.96 807.102 1733.51 815.089 1729.32 797.404Z" fill="#000000" fill-rule="evenodd" opacity="1" stroke="none"/>
<path d="M1600.68 944.396C1600.68 944.396 1574.31 996.468 1631.7 990.96C1631.7 990.96 1682.38 1033.52 1699.44 1019L1745.98 962.921C1745.98 962.921 1768.21 976.44 1760.45 932.379C1760.45 932.379 1742.36 923.367 1729.43 929.375C1729.43 929.375 1687.03 891.823 1691.17 834.745" fill="none" fill-rule="evenodd" opacity="1" stroke="#af7f61" stroke-linecap="butt" stroke-linejoin="round" stroke-width="8.23817"/>
<path d="M1413.38 1075.24C1413.38 1075.24 1414.88 1289.7 1632.67 1340.81C1632.67 1340.81 1810.99 1387.82 1911.89 1049.68L1889.41 1026.72L1851.95 1011.19L1781.02 1077.33L1801.5 1076.83L1714.09 1019.21L1627.67 1026.72L1413.38 1075.24Z" fill="#f8c19b" fill-rule="evenodd" opacity="1" stroke="none"/>
<path d="M1466.58 1096.13C1466.58 1096.13 1657.54 1648.37 1845.93 1111.82" fill="#f8c19b" fill-rule="evenodd" opacity="1" stroke="none"/>
<path d="M1528.59 1098.88C1528.59 1098.88 1638.28 1092.72 1658.41 1069.63C1658.41 1069.63 1679.08 1087.08 1693.91 1071.68C1693.91 1071.68 1783.99 1124.02 1820.02 1094.26C1820.02 1094.26 1783.99 1213.81 1706.1 1256.39C1706.1 1256.39 1578.93 1312.83 1528.59 1098.88Z" fill="#ab0013" fill-rule="evenodd" opacity="1" stroke="none"/>
<path d="M1536.95 1108.4C1536.95 1108.4 1614.58 1230.29 1661.63 1220.71C1661.63 1220.71 1711.08 1246.83 1808.19 1108.69C1808.19 1108.69 1731.46 1149.9 1687.41 1124.36C1687.41 1124.36 1608.53 1130.75 1536.95 1108.4Z" fill="#000000" fill-rule="evenodd" opacity="1" stroke="none"/>
<path d="M1610.19 1130.36C1610.19 1130.36 1590.91 1202.59 1617.31 1209.89C1617.31 1209.89 1651.25 1229.16 1657.12 1207.05C1657.12 1207.05 1666.13 1155.72 1665.5 1129.55C1665.5 1129.55 1630.93 1134.62 1610.19 1130.36Z" fill="#fffdfd" fill-rule="evenodd" opacity="1" stroke="none"/>
<path d="M1665.55 1130.21C1665.55 1130.21 1645.16 1228.5 1672.58 1218.28C1672.58 1218.28 1699.78 1227.81 1704.93 1205.57C1704.93 1205.57 1719.23 1141.79 1717.82 1137.7C1716.42 1133.62 1692.51 1138.84 1689.46 1131.12C1689.46 1131.12 1673.05 1135.21 1665.55 1130.21Z" fill="#fffdfd" fill-rule="evenodd" opacity="1" stroke="none"/>
<path d="M1717.6 1139.17C1717.6 1139.17 1695.27 1204.18 1727.26 1197.89C1727.26 1197.89 1739.76 1194.99 1741.09 1184.5C1741.09 1184.5 1747.92 1144.01 1745.92 1137.07L1717.6 1139.17Z" fill="#fffdfd" fill-rule="evenodd" opacity="1" stroke="none"/>
<path d="M1746 1143.99C1746 1143.99 1737.64 1179.62 1748.34 1179.74C1748.34 1179.74 1760.16 1171.16 1762.37 1163.65C1762.37 1163.65 1766.31 1134.1 1765.57 1129.93C1765.57 1129.93 1747.85 1137.91 1744.28 1135.05" fill="#fffdfd" fill-rule="evenodd" opacity="1" stroke="none"/>
<path d="M1716.15 1137.98C1716.15 1137.98 1742.47 1130.68 1747.21 1136.52C1751.95 1142.36 1738.2 1148.21 1738.2 1148.21L1713.24 1146.47L1716.15 1137.98Z" fill="#fffdfd" fill-rule="evenodd" opacity="1" stroke="none"/>
<path d="M1765.24 1130.9C1765.24 1130.9 1762.07 1163.86 1770.53 1152.67C1770.53 1152.67 1780.57 1144.57 1781.56 1138.01C1781.56 1138.01 1784.26 1125.41 1783.08 1122.57C1783.08 1122.57 1763.3 1128.05 1765.24 1130.9Z" fill="#fffdfd" fill-rule="evenodd" opacity="1" stroke="none"/>
<path d="M1658.51 1198.24C1658.51 1198.24 1658.79 1150.56 1662.3 1141.06C1662.3 1141.06 1659.63 1191.59 1658.51 1198.24Z" fill="#aeaeae" fill-rule="evenodd" opacity="1" stroke="none"/>
<path d="M1711.11 1147.71C1711.11 1147.71 1713.92 1165.51 1710.41 1178.55" fill="#aeaeae" fill-rule="evenodd" opacity="1" stroke="none"/>
<path d="M1743.61 1146.71C1743.61 1146.71 1745.57 1158.42 1743.32 1167.48" fill="#aeaeae" fill-rule="evenodd" opacity="1" stroke="none"/>
<path d="M1764.48 1134.79C1764.48 1134.79 1766.57 1137.17 1765.23 1142.25" fill="#aeaeae" fill-rule="evenodd" opacity="1" stroke="none"/>
<path d="M1581.46 1131.87C1581.46 1131.87 1561.96 1192.99 1603.68 1184.41C1603.68 1184.41 1613.61 1149.15 1615.27 1138.74C1615.27 1138.74 1617.4 1129.47 1607.94 1126.95" fill="#fffdfd" fill-rule="evenodd" opacity="1" stroke="none"/>
<path d="M1560.64 1127.03C1560.64 1127.03 1568.82 1163.05 1580.91 1155.25C1580.91 1155.25 1611.32 1136.18 1588.05 1126.03C1588.05 1126.03 1558.11 1117.77 1560.64 1127.03Z" fill="#fffdfd" fill-rule="evenodd" opacity="1" stroke="none"/>
<path d="M1607.92 1144.79C1607.92 1144.79 1604.73 1166.79 1605.21 1175.96" fill="#aeaeae" fill-rule="evenodd" opacity="1" stroke="none"/>
<path d="M1579.6 1131.31C1579.6 1131.31 1577.47 1139.83 1577.18 1151.06" fill="#aeaeae" fill-rule="evenodd" opacity="1" stroke="none"/>
<path d="M1727.58 995.253C1727.58 995.253 1788.67 1019.11 1816.26 1076.35C1816.26 1076.35 1749.26 1002.89 1727.58 995.253Z" fill="#af7f61" fill-rule="evenodd" opacity="1" stroke="none"/>
<path d="M1580.71 983.185C1580.71 983.185 1547.82 1012.97 1523.42 1078.72" fill="#af7f61" fill-rule="evenodd" opacity="1" stroke="none"/>
<path d="M1569.17 371.247L1624.78 421.533C1624.78 421.533 1293.22 526.615 1328.13 846.8L1314.76 888.684L1234.6 853.348C1234.6 853.348 1187.51 409.621 1569.17 371.247Z" fill="#0b0806" fill-rule="evenodd" opacity="1" stroke="none"/>
<path d="M1715.09 423.553C1715.09 423.553 2037.73 502.379 1988.09 877.281L2064.53 890.739C2064.53 890.739 2142.96 362.031 1739.91 367.798C1336.86 373.566 1715.09 423.553 1715.09 423.553Z" fill="#0b0806" fill-rule="evenodd" opacity="1" stroke="none"/>
<path d="M1569.38 437.457C1569.38 437.457 1693.85 414.697 1697.49 406.042C1701.13 397.387 1654.12 360.843 1654.12 360.843C1654.12 360.843 1574.67 350.585 1542.89 390.976C1511.11 431.366 1569.38 437.457 1569.38 437.457Z" fill="#0b0806" fill-rule="evenodd" opacity="1" stroke="none"/>
<path d="M1653.79 390.014L1655.78 361.484C1655.78 361.484 1784.22 341.61 1809.38 395.143" fill="#0b0806" fill-rule="evenodd" opacity="1" stroke="none"/>
<path d="M1342.16 878.103C1342.16 878.103 1249.84 748.084 1188.92 883.435C1128 1018.79 1294.57 986.384 1283.62 1025.35C1283.62 1025.35 1331.69 1071.29 1351.2 1022.89C1351.2 1022.89 1325.58 968.081 1358.22 915.524C1358.22 915.524 1345.87 882.953 1342.16 878.103Z" fill="#f8c19b" fill-rule="evenodd" opacity="1" stroke="none"/>
<path d="M1318.84 899.43C1318.84 899.43 1306.65 968.18 1337.13 1013.32C1337.13 1013.32 1314.9 952.902 1318.84 899.43Z" fill="#af7f61" fill-rule="evenodd" opacity="1" stroke="none"/>
<path d="M1204.81 935.888C1204.81 935.888 1228.48 801.166 1300.55 871.305C1300.55 871.305 1229.2 870.958 1204.81 935.888Z" fill="#af7f61" fill-rule="evenodd" opacity="1" stroke="none"/>
<path d="M1232.42 956.374L1268.64 973.736" fill="#af7f61" fill-rule="evenodd" opacity="1" stroke="none"/>
<path d="M1242.46 965.055L1272.58 978.597" fill="#af7f61" fill-rule="evenodd" opacity="1" stroke="none"/>
<path d="M1237.44 960.541L1277.6 980.333C1277.6 980.333 1288.72 951.513 1308.08 970.958L1303.78 926.86C1303.78 926.86 1307.01 974.43 1237.44 960.541Z" fill="#af7f61" fill-rule="evenodd" opacity="1" stroke="none"/>
<path d="M1250.54 911.449C1250.54 911.449 1209.05 929.444 1252.29 950.296L1250.54 911.449Z" fill="#af7f61" fill-rule="evenodd" opacity="1" stroke="none"/>
<path d="M1297.48 1051.7C1297.48 1028.17 1319.37 1009.09 1346.38 1009.09C1373.39 1009.09 1395.29 1028.17 1395.29 1051.7C1395.29 1075.23 1373.39 1094.31 1346.38 1094.31C1319.37 1094.31 1297.48 1075.23 1297.48 1051.7Z" fill="#f1f0f0" fill-rule="evenodd" opacity="1" stroke="none"/>
<path d="M1338.59 1051.35C1338.59 1035.86 1350.32 1023.29 1364.8 1023.29C1379.28 1023.29 1391.01 1035.86 1391.01 1051.35C1391.01 1066.85 1379.28 1079.41 1364.8 1079.41C1350.32 1079.41 1338.59 1066.85 1338.59 1051.35Z" fill="#ffffff" fill-rule="evenodd" opacity="1" stroke="none"/>
<path d="M1322.45 1020.73C1322.45 1020.73 1283.08 1068.29 1332.14 1083.22C1332.14 1083.22 1302.22 1069.24 1322.45 1020.73Z" fill="#ffffff" fill-rule="evenodd" opacity="1" stroke="none"/>
<path d="M1945.99 892.098C1945.99 892.098 2043.52 774.313 2106.35 890.42C2106.35 890.42 2148.34 951.83 2034.85 1004.18C2034.85 1004.18 1999.44 1031.36 2006.04 1049.82C2006.04 1049.82 2000.48 1091.43 1952.59 1051.16L1922.04 1008.54L1910.24 976.997L1915.45 923.306L1945.99 892.098Z" fill="#f8c19b" fill-rule="evenodd" opacity="1" stroke="none"/>
<path d="M1982.45 905.935C1982.45 905.935 2002.47 967.445 1965.81 1022.46C1965.81 1022.46 1992.22 934.843 1982.45 905.935Z" fill="#ae7e60" fill-rule="evenodd" opacity="1" stroke="none"/>
<path d="M1998.56 881.583C1998.56 881.583 2105.62 828.302 2088.69 951.017C2088.69 951.017 2096.16 843.009 1998.56 881.583Z" fill="#ae7e60" fill-rule="evenodd" opacity="1" stroke="none"/>
<path d="M1993.83 980.912C1993.83 980.912 2017.73 965 2019.47 986.457L2049.6 974.162C2049.6 974.162 1993.08 965.965 1988.1 944.025L1981.13 983.805C1981.13 983.805 1988.1 984.77 1993.83 980.912Z" fill="#ae7e60" fill-rule="evenodd" opacity="1" stroke="none"/>
<path d="M1939.11 1051.7C1939.11 1028.17 1961 1009.09 1988.01 1009.09C2015.02 1009.09 2036.92 1028.17 2036.92 1051.7C2036.92 1075.23 2015.02 1094.31 1988.01 1094.31C1961 1094.31 1939.11 1075.23 1939.11 1051.7Z" fill="#f1f0f0" fill-rule="evenodd" opacity="1" stroke="none"/>
<path d="M1980.22 1051.35C1980.22 1035.86 1991.95 1023.29 2006.43 1023.29C2020.91 1023.29 2032.65 1035.86 2032.65 1051.35C2032.65 1066.85 2020.91 1079.41 2006.43 1079.41C1991.95 1079.41 1980.22 1066.85 1980.22 1051.35Z" fill="#ffffff" fill-rule="evenodd" opacity="1" stroke="none"/>
<path d="M1964.09 1020.73C1964.09 1020.73 1924.71 1068.29 1973.77 1083.22C1973.77 1083.22 1943.85 1069.24 1964.09 1020.73Z" fill="#ffffff" fill-rule="evenodd" opacity="1" stroke="none"/>
<path d="M1992.38 793.744C1992.38 793.744 1996.49 849.711 1992.16 858.718C1987.84 867.725 1978.91 868.104 1978.91 868.104L1979.11 835.913L1992.38 793.744Z" fill="#f8c19b" fill-rule="evenodd" opacity="1" stroke="none"/>
<path d="M1260.75 658.067C1260.75 658.067 1285.15 342.981 1633.42 298.18C1633.42 298.18 1665.45 298.18 1680.7 315.411L1687.82 393.69L1571.9 409.445L1418.36 529.079L1260.75 658.067Z" fill="#0b0806" fill-rule="evenodd" opacity="1" stroke="none"/>
<path d="M1679.79 316.092C1679.79 316.092 1916.67 252.282 2028.35 466.262L1981.08 601.816L1988.68 526.348L1713.04 397.714L1639.48 377.007L1627.93 332.28L1679.79 316.092Z" fill="#0b0806" fill-rule="evenodd" opacity="1" stroke="none"/>
<path d="M2029.51 468.987C2029.51 468.987 2084.69 681.614 2060.99 786.125C2037.29 890.636 2024.25 730.846 2024.25 730.846L1971.43 549.702L1958.79 467.113L2029.51 468.987Z" fill="#0b0806" fill-rule="evenodd" opacity="1" stroke="none"/>
<path d="M1662.57 398.115C1662.57 398.115 1663.69 336.745 1677.45 321.894C1677.45 321.894 1661.89 378.678 1662.57 398.115Z" fill="#725a49" fill-rule="evenodd" opacity="1" stroke="none"/>
<path d="M1328.18 845.25C1328.18 845.25 1274.43 565.675 1590.34 434.076C1590.34 434.076 1679.32 384.945 1781.44 449.868C1781.44 449.868 1310.86 460.661 1328.18 845.25Z" fill="#af7f61" fill-rule="evenodd" opacity="1" stroke="none"/>
<path d="M1452.71 1582.83C1452.71 1582.83 1552.43 1757.41 1628.12 1801" fill="#202020" fill-rule="evenodd" opacity="1" stroke="none"/>
<path d="M1815.2 1603.26C1815.2 1603.26 1764.71 1755.94 1708.02 1807.83" fill="#202020" fill-rule="evenodd" opacity="1" stroke="none"/>
<path d="M1790.25 940.147C1790.25 940.147 1879.97 960.511 1911.8 929.564C1911.8 929.564 1849.08 947.786 1795.21 941.343" fill="#af7f61" fill-rule="evenodd" opacity="1" stroke="none"/>
<path d="M1453.1 948.075C1453.1 948.075 1554.21 965.545 1579.18 938.526C1579.18 938.526 1519.19 954.169 1457.32 949.235" fill="#af7f61" fill-rule="evenodd" opacity="1" stroke="none"/>
</g>
<g id="Layer-4" vectornator:layerName="Layer 4">
<path d="M1431.54 868.211C1431.54 868.211 1497.2 754.24 1590.67 850.376C1590.67 850.376 1597.62 906.577 1581.34 924.978C1581.34 924.978 1496.02 947.135 1463.05 928.358C1463.05 928.358 1440.46 899.756 1431.54 868.211Z" fill="#ffffff" fill-rule="evenodd" opacity="1" stroke="#000000" stroke-linecap="butt" stroke-linejoin="round" stroke-width="1.81329"/>
<path d="M1485.86 819.949C1485.86 819.949 1464.77 936.626 1525.89 930.626C1525.89 930.626 1602.94 916.75 1584.49 848.755C1584.49 848.755 1584.18 832.882 1536.22 814.324C1536.22 814.324 1502.78 805.731 1485.86 819.949Z" fill="#2b1918" fill-rule="evenodd" opacity="1" stroke="none"/>
<path d="M1495.43 838.912C1495.43 838.912 1479.96 959.03 1554.37 906.896C1554.37 906.896 1568.69 898.682 1576.54 845.646C1576.54 845.646 1522.25 993.915 1495.43 838.912Z" fill="#432625" fill-rule="evenodd" opacity="1" stroke="none"/>
<path d="M1538.51 839.591L1542.24 887.143L1557.99 880.522C1557.99 880.522 1574.64 846.218 1571.04 844.005C1554.05 833.572 1559.23 826.95 1538.51 839.591Z" fill="#ffffff" fill-rule="evenodd" opacity="1" stroke="none"/>
<path d="M1505.92 840.776C1505.92 840.776 1501.31 878.442 1519.5 896.718C1519.5 896.718 1506.84 859.498 1505.92 840.776Z" fill="#ffffff" fill-rule="evenodd" opacity="1" stroke="none"/>
<path d="M1752.55 864.526C1752.55 864.526 1818.22 750.555 1911.68 846.691C1911.68 846.691 1918.64 902.892 1902.35 921.293C1902.35 921.293 1817.03 943.45 1784.07 924.673C1784.07 924.673 1761.47 896.071 1752.55 864.526Z" fill="#ffffff" fill-rule="evenodd" opacity="1" stroke="#000000" stroke-linecap="butt" stroke-linejoin="round" stroke-width="1.64208"/>
<path d="M1806.87 816.264C1806.87 816.264 1785.79 932.941 1846.91 926.942C1846.91 926.942 1923.96 913.065 1905.51 845.07C1905.51 845.07 1905.2 829.197 1857.24 810.639C1857.24 810.639 1823.79 802.046 1806.87 816.264Z" fill="#2b1918" fill-rule="evenodd" opacity="1" stroke="none"/>
<path d="M1816.44 835.227C1816.44 835.227 1800.98 955.345 1875.38 903.211C1875.38 903.211 1889.71 894.997 1897.56 841.961C1897.56 841.961 1843.26 990.23 1816.44 835.227Z" fill="#432625" fill-rule="evenodd" opacity="1" stroke="none"/>
<path d="M1859.52 835.906L1863.25 883.458L1879 876.837C1879 876.837 1895.66 842.533 1892.06 840.32C1875.07 829.887 1880.25 823.265 1859.52 835.906Z" fill="#ffffff" fill-rule="evenodd" opacity="1" stroke="none"/>
<path d="M1826.93 837.092C1826.93 837.092 1822.33 874.757 1840.51 893.033C1840.51 893.033 1827.86 855.813 1826.93 837.092Z" fill="#ffffff" fill-rule="evenodd" opacity="1" stroke="none"/>
<path d="M1463.3 927.897C1463.3 927.897 1414.31 863.176 1482.75 820.029C1482.75 820.029 1458.38 828.253 1431.55 868.42C1431.55 868.42 1440.53 899.291 1463.3 927.897Z" fill="#eeaca8" fill-rule="evenodd" opacity="1" stroke="none"/>
<path d="M1783 920.948C1783 920.948 1750.49 882.926 1777.11 835.844C1777.11 835.844 1753.18 859.466 1753.86 865.452C1753.86 865.452 1768.85 912.211 1783 920.948Z" fill="#eeaca8" fill-rule="evenodd" opacity="1" stroke="none"/>
<path d="M2028.12 895.964C2028.12 895.964 2025.58 926.676 2056.19 930.822C2056.19 930.822 2063.01 909.938 2028.12 895.964Z" fill="#ae7e60" fill-rule="evenodd" opacity="1" stroke="none"/>
<path d="M1430.74 866.578C1430.74 866.578 1496.5 739.642 1591.25 848.841C1591.25 848.841 1516.36 759.302 1430.74 866.578Z" fill="#000000" fill-rule="evenodd" opacity="1" stroke="none"/>
<path d="M1561.56 822.28C1561.56 822.28 1587.36 838.124 1591.15 850.098L1562.48 826.762L1556.58 821.936L1561.56 822.28Z" fill="#000000" fill-rule="evenodd" opacity="1" stroke="none"/>
<path d="M1752.19 865.123C1752.19 865.123 1763.55 822.456 1813.95 808.147C1813.95 808.147 1884.02 788.709 1912.41 846.111C1912.41 846.111 1872.99 801.542 1816.91 813.909C1816.91 813.909 1796.1 813.199 1752.19 865.123Z" fill="#000000" fill-rule="evenodd" opacity="1" stroke="none"/>
</g>
</svg>
