<?xml version="1.0" encoding="UTF-8" standalone="no"?>
<!DOCTYPE svg PUBLIC "-//W3C//DTD SVG 1.1//EN" "http://www.w3.org/Graphics/SVG/1.1/DTD/svg11.dtd">
<!-- Created with Vectornator (http://vectornator.io/) -->
<svg height="100%" stroke-miterlimit="10" style="fill-rule:nonzero;clip-rule:evenodd;stroke-linecap:round;stroke-linejoin:round;" version="1.1" viewBox="0 0 3370.82 2384.24" width="100%" xml:space="preserve" xmlns="http://www.w3.org/2000/svg" xmlns:vectornator="http://vectornator.io" xmlns:xlink="http://www.w3.org/1999/xlink">
<defs/>
<g id="Layer-2" vectornator:layerName="Layer 2">
<path d="M1422.52 1328.1C1422.52 1328.1 1161.54 1718.7 1609.9 1945.63C1609.9 1945.63 2021.8 2061.16 2094.49 1774.39C2094.49 1774.39 2095.56 1638.54 2029.87 1565.88L1865.5 1373.21L1564.45 1339.71L1422.52 1328.1Z" fill="#ffffff" fill-rule="evenodd" opacity="1" stroke="none"/>
<path d="M1467.79 1291.03C1467.79 1291.03 1598.77 1921.88 1507.51 1949C1416.25 1976.12 1192.42 1929.6 1192.42 1929.6L936.154 1864.54C936.154 1864.54 845.181 1856.34 769.932 1887.59" fill="#616161" fill-rule="evenodd" opacity="1" stroke="none"/>
<path d="M780.814 1878.11C780.814 1878.11 744.038 1682.08 809.982 1541.14C809.982 1541.14 1266.52 1459.14 1369.24 1375.86" fill="#616161" fill-rule="evenodd" opacity="1" stroke="none"/>
<path d="M1850.3 1444.89C1850.3 1444.89 1995.63 1892.29 1942.27 1934.74C1942.27 1934.74 2104.64 1961.12 2286.31 1891.14C2286.31 1891.14 2371.47 1877.38 2450.95 1929C2450.95 1929 2534.97 1724.8 2490.69 1660.56C2490.69 1660.56 1886.63 1526.34 1901.39 1350.82C1916.15 1175.3 1837.81 1382.94 1837.81 1382.94L1850.3 1444.89Z" fill="#616161" fill-rule="evenodd" opacity="1" stroke="none"/>
<path d="M1648.69 1487.83C1648.69 1487.83 1624.49 1532.52 1619.03 1565.72" fill="#bababa" fill-rule="evenodd" opacity="1" stroke="none"/>
<path d="M1633.76 1639.44L1532.46 1697.1L1533.58 1718.44C1533.58 1718.44 1624.85 1644.6 1633.76 1639.44Z" fill="#bbbbbb" fill-rule="evenodd" opacity="1" stroke="none"/>
<path d="M1635.45 1572.2L1513.94 1553.25L1511.56 1540.74L1635.45 1572.2Z" fill="#bbbbbb" fill-rule="evenodd" opacity="1" stroke="none"/>
<path d="M1744.33 1492.41C1744.33 1492.41 1783.45 1530.46 1788.97 1553.07" fill="#bababa" fill-rule="evenodd" opacity="1" stroke="none"/>
<path d="M1781.51 1641.28L1911.11 1658.82L1918.38 1676.77C1918.38 1676.77 1846.11 1651.88 1781.51 1641.28Z" fill="#bbbbbb" fill-rule="evenodd" opacity="1" stroke="none"/>
<path d="M1780.3 1558.47L1870.33 1507.89L1874.37 1521.76C1874.37 1521.76 1870.33 1514.01 1780.3 1558.47Z" fill="#bbbbbb" fill-rule="evenodd" opacity="1" stroke="none"/>
<path d="M1447.85 1952.81C1447.85 1952.81 1432.58 1696.29 1372.02 1619.51L1412.97 1560.56L1310.63 1475.35L1336.13 1398.11C1336.13 1398.11 1354.51 1389.11 1364.69 1376.11C1374.87 1363.1 1431.58 1374.43 1431.58 1374.43L1486.89 1402.03C1486.89 1402.03 1600.94 1930.19 1511.66 1943.46C1511.66 1943.46 1516.12 1960.61 1447.85 1952.81Z" fill="#504f4f" fill-rule="evenodd" opacity="1" stroke="none"/>
<path d="M1847.79 1446.17C1847.79 1446.17 1872.86 1521.83 1875.83 1525.5C1878.8 1529.16 1976.78 1917.79 1941.81 1929.13C1941.81 1929.13 1938.89 1941.89 1948.57 1941.87C1948.57 1941.87 1969.19 1935.02 1972.41 1936.7C1972.41 1936.7 2007.73 1940.74 2029.71 1937.66C2029.71 1937.66 1991.85 1682.87 2032.76 1652.03L1959.49 1592.81L1989.41 1516.31C1989.41 1516.31 1958.88 1462.02 1954.61 1452.77C1950.33 1443.52 1930.18 1426.86 1928.96 1404.65C1927.74 1382.44 1869.73 1415.75 1869.73 1415.75L1847.79 1446.17Z" fill="#504f4f" fill-rule="evenodd" opacity="1" stroke="none"/>
<path d="M1652.72 1569.89C1652.72 1569.89 1716.1 1480.15 1762.94 1567.85C1762.94 1567.85 1712.07 1497.28 1652.72 1569.89Z" fill="#bbbbbb" fill-rule="evenodd" opacity="1" stroke="none"/>
<path d="M1651.1 1632.3C1651.1 1632.3 1683.8 1715.11 1765.36 1638.83C1765.36 1638.83 1697.13 1703.28 1651.1 1632.3Z" fill="#bbbbbb" fill-rule="evenodd" opacity="1" stroke="none"/>
<path d="M1547.84 1665.65L1533.08 1696.35C1533.08 1696.35 1477 1747.19 1466.19 1633.79C1466.19 1633.79 1469.65 1618.28 1479.56 1618.71C1479.56 1618.71 1445.46 1572.1 1455.6 1552.88C1455.6 1552.88 1453.73 1524.4 1513.68 1553.51C1573.63 1582.63 1566.45 1594.39 1566.45 1594.39L1547.84 1665.65Z" fill="#ffffff" fill-rule="evenodd" opacity="1" stroke="none"/>
<path d="M1469.64 1636.74C1469.64 1636.74 1441.56 1582.5 1460.46 1566.08C1479.36 1549.67 1488.72 1598.02 1488.72 1598.02L1502.32 1639.06" fill="#ffffff" fill-rule="evenodd" opacity="1" stroke="none"/>
<path d="M1875.67 1521.49C1875.67 1521.49 1935.9 1503.77 1935.02 1579.39C1935.02 1579.39 1939.7 1613.36 1949.93 1639.94C1949.93 1639.94 1959.87 1662.69 1915.14 1658.26C1870.41 1653.83 1879.18 1645.85 1879.18 1645.85L1849.94 1603.32L1875.67 1521.49Z" fill="#ffffff" fill-rule="evenodd" opacity="1" stroke="none"/>
<path d="M1526.07 1695.79C1526.07 1695.79 1536.92 1699.79 1539.99 1690.02C1543.07 1680.24 1542.63 1668.25 1542.63 1668.25L1526.07 1695.79Z" fill="#ffffff" fill-rule="evenodd" opacity="1" stroke="none"/>
<path d="M1870.81 1523.07L1872.1 1529.48L1880.05 1525.66L1875.86 1521.68L1872.47 1521.89L1870.81 1523.07Z" fill="#ffffff" fill-rule="evenodd" opacity="1" stroke="none"/>
<path d="M1905.32 1656.62L1908.85 1658.35C1908.85 1658.35 1917.07 1658.36 1917.08 1656.77C1917.08 1655.19 1914.17 1653.35 1914.17 1653.35L1905.32 1656.62Z" fill="#ffffff" fill-rule="evenodd" opacity="1" stroke="none"/>
<path d="M1096.8 1709.86C1096.8 1709.86 1111.58 1899.57 1106.09 1903.68C1100.6 1907.8 1119.2 1907.62 1119.2 1907.62C1119.2 1907.62 1107.83 1721.2 1096.8 1709.86Z" fill="#504f4f" fill-rule="evenodd" opacity="1" stroke="none"/>
<path d="M2252.63 1766.94C2252.63 1766.94 2221.26 1904.41 2227.12 1912.15L2244.66 1905.91C2244.66 1905.91 2250.36 1782.89 2252.63 1766.94Z" fill="#504f4f" fill-rule="evenodd" opacity="1" stroke="none"/>
</g>
<g id="Layer-1" vectornator:layerName="Layer 1">
<path d="M1331.4 615.967C1331.4 615.967 1300.69 1283.53 1262.53 1363.45C1262.53 1363.45 1482.16 1433.03 1582.66 1430.21C1582.66 1430.21 1758.74 1553.57 1928.39 1417.74C1928.39 1417.74 2069.94 1418.87 2104.68 1391.04C2104.68 1391.04 1973.06 705.151 2071.04 597.099C2071.04 597.099 1611.02 247.758 1331.4 615.967Z" fill="#f8e5d2" fill-rule="evenodd" opacity="1" stroke="none"/>
<path d="M1330.23 1044.59L1316.14 479.254C1316.14 479.254 1328.22 415.196 1404.7 420.28L2035.71 448.75C2035.71 448.75 2139.37 452.818 2109.18 557.547L2058.86 872.751L2029.67 992.732L1738.83 712.098L1412.76 914.439L1330.23 1044.59Z" fill="#f8e5d2" fill-rule="evenodd" opacity="1" stroke="none"/>
<path d="M1716.54 945.499C1716.54 945.499 1709.37 964.768 1735.31 985.579C1735.31 985.579 1705.5 1024.89 1685.08 979.798" fill="none" fill-rule="evenodd" opacity="1" stroke="#c9b4a1" stroke-linecap="butt" stroke-linejoin="round" stroke-width="8.23817"/>
<path d="M1770.65 928.944C1770.65 928.944 1781.57 913.067 1821.39 926.755" fill="none" fill-rule="evenodd" opacity="1" stroke="#c9b4a1" stroke-linecap="butt" stroke-linejoin="round" stroke-width="8.23817"/>
<path d="M1768.08 918.268C1768.08 918.268 1771.93 873.1 1829.1 905.402" fill="none" fill-rule="evenodd" opacity="1" stroke="#c9b4a1" stroke-linecap="butt" stroke-linejoin="round" stroke-width="8.23817"/>
<path d="M1770 940.168C1770 940.168 1783.81 958.235 1827.17 950.297" fill="none" fill-rule="evenodd" opacity="1" stroke="#c9b4a1" stroke-linecap="butt" stroke-linejoin="round" stroke-width="8.23817"/>
<path d="M1600.58 904.497C1600.58 904.497 1593.07 891.305 1565.28 911.001" fill="none" fill-rule="evenodd" opacity="1" stroke="#c9b4a1" stroke-linecap="butt" stroke-linejoin="round" stroke-width="8.23817"/>
<path d="M1604.53 917.969C1604.53 917.969 1594.11 939.664 1565.42 929.595" fill="none" fill-rule="evenodd" opacity="1" stroke="#c9b4a1" stroke-linecap="butt" stroke-linejoin="round" stroke-width="8.23817"/>
<path d="M1459.37 515.695L1430.38 504.994" fill="#4c321a" fill-rule="evenodd" opacity="1" stroke="none"/>
<path d="M1346.72 610.242L1338.3 740.309C1338.3 740.309 1527.04 385.244 1881.21 498.635C2235.39 612.025 1752.88 436.83 1752.88 436.83L1562.4 416.241L1423.42 403.475L1400.61 402.28L1352.94 486.419L1339.35 587.421L1354.12 616.366" fill="#ecd8c5" fill-rule="evenodd" opacity="1" stroke="none"/>
<path d="M1744.51 1028.79C1744.51 1028.79 1806.65 1202.98 1846.86 1191.58" fill="none" fill-rule="evenodd" opacity="1" stroke="#c9b4a1" stroke-linecap="butt" stroke-linejoin="round" stroke-width="8.62564"/>
<path d="M1670.98 1006.93C1670.98 1006.93 1657.79 1174.89 1603.05 1225.27" fill="none" fill-rule="evenodd" opacity="1" stroke="#c9b4a1" stroke-linecap="butt" stroke-linejoin="round" stroke-width="8.62564"/>
<path d="M1864.44 1319.62C1864.44 1319.62 1884.73 1382.2 1919.56 1405.05" fill="none" fill-rule="evenodd" opacity="1" stroke="#c9b4a1" stroke-linecap="round" stroke-linejoin="round" stroke-width="8.62564"/>
<path d="M1510.08 470.433C1510.08 470.433 1910.22 548.611 1963.22 506.845C1963.22 506.845 2033.71 441.518 1966.93 387.972C1966.93 387.972 1875.24 404.571 1840.26 364.411C1840.26 364.411 1823.3 391.72 1842.38 405.642C1842.38 405.642 1762.82 394.045 1761.71 362.903C1761.71 362.903 1710.62 375.809 1754.77 409.757C1754.77 409.757 1639.53 317.452 1648.41 358.414C1648.41 358.414 1633.14 362.342 1560.94 370.759C1560.94 370.759 1417.88 359.945 1375.66 420.473C1375.66 420.473 1303.44 518.089 1333.11 633.49C1333.11 633.49 1311.87 770.299 1278.64 820.782L1313.23 816.189L1303.56 882.384L1350.26 749.709L1372.12 657.339L1381.3 559.785L1392.87 473.724L1402.16 438.719L1414.01 414.32C1414.01 414.32 1440.14 465.371 1510.08 470.433Z" fill="#493b2d" fill-rule="evenodd" opacity="1" stroke="none"/>
<path d="M1404.31 408.872C1404.31 408.872 1226.31 395.55 1321.9 681.126" fill="#493b2d" fill-rule="evenodd" opacity="1" stroke="none"/>
<path d="M1974.13 474.264C1974.13 474.264 2105.86 542.722 2094.86 624.908C2094.86 624.908 2062.68 732.929 2068.78 779.627C2068.78 779.627 2072.81 861.877 2056.82 879.922C2056.82 879.922 2127.94 788.6 2131.67 749.236C2131.67 749.236 2119.01 659.145 2133.99 626.411C2133.99 626.411 2152.76 487.17 2096.2 474.84C2096.2 474.84 2106.06 425.506 2060.1 435.029C2060.1 435.029 2009.69 430.441 1990.31 443.418" fill="#493b2d" fill-rule="evenodd" opacity="1" stroke="none"/>
<path d="M1530.7 716.454C1530.7 716.454 1704.48 737.379 1905.29 721.913" fill="none" fill-rule="evenodd" opacity="1" stroke="#c9b4a1" stroke-linecap="butt" stroke-linejoin="round" stroke-width="8.23817"/>
<path d="M1497.4 651.329C1497.4 651.329 1817.03 702.916 1932.11 642.179" fill="none" fill-rule="evenodd" opacity="1" stroke="#c9b4a1" stroke-linecap="butt" stroke-linejoin="round" stroke-width="8.23817"/>
<path d="M1740.72 934.902C1740.72 934.902 1690.1 820.733 1907.84 847.332C1907.84 847.332 1744.1 884.699 1740.72 934.902Z" fill="#ecd8c5" fill-rule="evenodd" opacity="1" stroke="none"/>
<path d="M1550.55 582.007C1550.55 582.007 1775.15 637.624 1848.47 596.214" fill="none" fill-rule="evenodd" opacity="1" stroke="#c9b4a1" stroke-linecap="butt" stroke-linejoin="round" stroke-width="8.23817"/>
<path d="M1649.2 538.591C1649.2 538.591 1736.64 576.07 1784.84 551.071" fill="none" fill-rule="evenodd" opacity="1" stroke="#c9b4a1" stroke-linecap="butt" stroke-linejoin="round" stroke-width="8.23817"/>
<path d="M2103.92 1392.78C2103.92 1392.78 1843.23 1094.13 1856.91 1042.97C1856.91 1042.97 2025.23 939.277 2039.6 939.969C2039.6 939.969 2090.24 1356.14 2103.92 1392.78Z" fill="#ecd8c5" fill-rule="evenodd" opacity="1" stroke="none"/>
<path d="M1490.08 853.461C1490.08 853.461 1647.47 880.151 1639.29 951.201C1639.29 951.201 1687.66 873.76 1649.33 842.183C1649.33 842.183 1547.76 814.365 1490.08 853.461Z" fill="#ecd8c5" fill-rule="evenodd" opacity="1" stroke="none"/>
<path d="M1602.64 893.575C1602.64 893.575 1579.31 868.161 1539.78 895.572" fill="none" fill-rule="evenodd" opacity="1" stroke="#c9b4a1" stroke-linecap="butt" stroke-linejoin="round" stroke-width="8.23817"/>
<path d="M1581.62 1425.73C1581.62 1425.73 1619.35 1393.59 1613.23 1332.18" fill="none" fill-rule="evenodd" opacity="1" stroke="#c9b4a1" stroke-linecap="butt" stroke-linejoin="round" stroke-width="8.23817"/>
<path d="M1563.54 1249.25C1563.54 1249.25 1678.57 1247.81 1705.19 1228.12C1705.19 1228.12 1722.3 1221.4 1731.81 1229.08C1731.81 1229.08 1735.61 1222.84 1752.73 1228.6C1752.73 1228.6 1838.76 1258.38 1864.43 1250.69L1904.36 1236.29C1904.36 1236.29 1865.38 1276.63 1800.26 1270.86C1800.26 1270.86 1739.42 1264.14 1711.85 1264.62C1711.85 1264.62 1618.68 1263.18 1563.54 1249.25Z" fill="#b07678" fill-rule="evenodd" opacity="1" stroke="none"/>
<path d="M1525.07 837.679C1525.07 837.679 1670.25 821.814 1662.88 890.781L1674.74 872.325L1653.26 833.794L1588.53 823.109L1525.07 837.679Z" fill="#000000" fill-rule="evenodd" opacity="1" stroke="none"/>
<path d="M1737.84 895.081C1737.84 895.081 1746.99 843.494 1852.92 843.75L1778.74 847.6L1746.23 856.84L1732 877.629L1728.95 889.948" fill="#000000" fill-rule="evenodd" opacity="1" stroke="none"/>
<path d="M1778.86 848.251C1778.86 848.251 1847.87 839.252 1851.81 843.325L1852.8 843.939" fill="#000000" fill-rule="evenodd" opacity="1" stroke="none"/>
<path d="M1344.65 1345.9C1344.65 1345.9 1487.64 1321.45 1536.03 1259.22" fill="#ecd8c5" fill-rule="evenodd" opacity="1" stroke="none"/>
<path d="M1302.37 513.479C1302.37 513.479 1285.41 592.501 1247.01 602.346C1247.01 602.346 1298.54 594.737 1313.4 567.233" fill="#493b2d" fill-rule="evenodd" opacity="1" stroke="none"/>
<path d="M1298.26 570.579C1298.26 570.579 1310.23 612.329 1272.29 641.607C1234.36 670.884 1331.59 601.537 1331.59 601.537L1298.26 570.579Z" fill="#493b2d" fill-rule="evenodd" opacity="1" stroke="none"/>
<path d="M1307.98 607.07C1307.98 607.07 1345.28 589.871 1286.86 663.28L1340.8 620.456L1307.98 607.07Z" fill="#493b2d" fill-rule="evenodd" opacity="1" stroke="none"/>
<path d="M1346.26 653.96L1322.18 612.975C1322.18 612.975 1325.67 664.125 1273.22 696.753C1220.76 729.381 1341.67 660.228 1341.67 660.228" fill="#493b2d" fill-rule="evenodd" opacity="1" stroke="none"/>
<path d="M1663.78 352.074C1663.78 352.074 1615.65 343.657 1583 325.484C1550.35 307.311 1613.76 378.167 1647.3 378.237C1680.84 378.308 1663.78 352.074 1663.78 352.074Z" fill="#493b2d" fill-rule="evenodd" opacity="1" stroke="none"/>
<path d="M1547.7 326.888C1547.7 326.888 1594.41 369.104 1627.39 362.911C1660.36 356.718 1625.19 396.504 1625.19 396.504C1625.19 396.504 1540.8 341.715 1547.7 326.888Z" fill="#493b2d" fill-rule="evenodd" opacity="1" stroke="none"/>
<path d="M1453.98 332.961C1453.98 332.961 1627.79 357.182 1585.1 380.509C1542.41 403.835 1518.98 386.18 1518.98 386.18C1518.98 386.18 1527.62 347.919 1453.98 332.961Z" fill="#493b2d" fill-rule="evenodd" opacity="1" stroke="none"/>
<path d="M1460.98 382.906C1460.98 382.906 1468.07 373.685 1434.51 361.103C1434.51 361.103 1495.12 352.294 1520.94 374.478" fill="#493b2d" fill-rule="evenodd" opacity="1" stroke="none"/>
<path d="M2116.62 495.165C2116.62 495.165 2113.66 534.705 2158.72 564.958L2102.99 525.119L2116.62 495.165Z" fill="#493b2d" fill-rule="evenodd" opacity="1" stroke="none"/>
<path d="M2128.48 542.193C2128.48 542.193 2156.65 626.964 2188.08 631.756C2219.5 636.549 2119.89 639.544 2117.22 585.926C2114.55 532.308 2128.48 542.193 2128.48 542.193Z" fill="#493b2d" fill-rule="evenodd" opacity="1" stroke="none"/>
<path d="M2132.93 617.977C2132.93 617.977 2140.34 662.01 2186.59 682.978C2232.84 703.946 2128.19 678.185 2120.48 644.038C2112.77 609.89 2126.7 613.784 2126.7 613.784L2132.93 617.977Z" fill="#493b2d" fill-rule="evenodd" opacity="1" stroke="none"/>
<path d="M2127 653.323C2127 653.323 2135.9 720.121 2168.51 732.702C2168.51 732.702 2130.56 731.803 2119 682.079C2107.43 632.355 2114.25 645.535 2114.25 645.535L2127 653.323Z" fill="#493b2d" fill-rule="evenodd" opacity="1" stroke="none"/>
<path d="M2123 710.886C2123 710.886 2104.74 754.366 2148.43 807.069C2148.43 807.069 2096.26 777.423 2100.83 718.133C2105.39 658.842 2123 710.886 2123 710.886Z" fill="#493b2d" fill-rule="evenodd" opacity="1" stroke="none"/>
<path d="M1318.76 670.853C1318.76 670.853 1322.33 697.437 1323.23 701.575C1324.13 705.713 1339.87 683.53 1339.87 683.53L1333.66 661.112L1318.81 663.603L1317.89 672.018" fill="#493b2d" fill-rule="evenodd" opacity="1" stroke="none"/>
</g>
</svg>
