<?xml version="1.0" encoding="UTF-8" standalone="no"?>
<!DOCTYPE svg PUBLIC "-//W3C//DTD SVG 1.1//EN" "http://www.w3.org/Graphics/SVG/1.1/DTD/svg11.dtd">
<!-- Created with Vectornator (http://vectornator.io/) -->
<svg height="100%" stroke-miterlimit="10" style="fill-rule:nonzero;clip-rule:evenodd;stroke-linecap:round;stroke-linejoin:round;" version="1.1" viewBox="0 0 3370.82 2384.24" width="100%" xml:space="preserve" xmlns="http://www.w3.org/2000/svg" xmlns:vectornator="http://vectornator.io" xmlns:xlink="http://www.w3.org/1999/xlink">
<defs/>
<g id="Layer-3" vectornator:layerName="Layer 3"/>
<g id="Layer-5" vectornator:layerName="Layer 5">
<path d="M1512.53 1414.57C1524.11 1428.47 1778.41 1495.7 1643.41 1146.3C1508.41 796.908 1528.75 1080.02 1528.75 1080.02L1471.22 1358.45C1471.22 1358.45 1500.95 1400.67 1512.53 1414.57Z" fill="#000000" fill-rule="evenodd" opacity="1" stroke="none"/>
<path d="M2089.98 861.723C2089.98 861.723 2206.68 1197.46 2248.45 1396.37C2248.45 1396.37 2108.71 1544.49 2100.79 1550.84C2092.86 1557.18 1883.97 1442.21 1883.97 1442.21L1762.23 1140.33L1953.12 894.168L2089.98 861.723Z" fill="#000000" fill-rule="evenodd" opacity="1" stroke="none"/>
</g>
<g id="Layer-2" vectornator:layerName="Layer 2">
<path d="M1733.29 1752.54C1731.26 1759.31 1695.46 2027.78 1868.75 1906.69L1829.29 1688.41C1829.29 1688.41 1735.32 1745.77 1733.29 1752.54Z" fill="#d4927a" fill-rule="evenodd" opacity="1" stroke="none"/>
<path d="M1885.18 1109.21C1885.18 1109.21 1915.16 1401.19 2074.29 1366.95C2074.29 1366.95 1880.77 1690.58 1751.51 1640.74C1751.51 1640.74 1424.43 1596.9 1452.12 1509.44C1452.12 1509.44 1653.81 1450.2 1606.46 1242.34" fill="#d4927a" fill-rule="evenodd" opacity="1" stroke="none"/>
<path d="M1603.96 1375.44C1603.96 1375.44 1486.46 1465.67 1303.34 1483.64C1303.34 1483.64 1360.04 1740.24 1300.44 1814.98C1300.44 1814.98 1220.61 2102.87 1615.03 2014.69C1615.03 2014.69 1927.85 1990.71 1775.69 1682.08C1775.69 1682.08 1677.09 2005.41 2000.11 2001.54C2000.11 2001.54 2487.19 1969.05 2284.03 1682.08C2284.03 1682.08 2162.47 1545.95 2180.32 1484.84L2265.32 1450.03L2249.17 1378.87C2249.17 1378.87 2002.66 1366.5 1928.7 1282.96" fill="#d4927a" fill-rule="evenodd" opacity="1" stroke="none"/>
<path d="M1559.37 1409.56C1559.37 1409.56 1545.1 1574.62 1652.73 1806.98C1652.73 1806.98 1724.05 1980.93 1755.17 2005.05C1755.17 2005.05 1389.5 2147.26 1043.28 1870.46C1043.28 1870.46 1102.93 1636.84 1038.1 1542.88C1038.1 1542.88 920.096 1318.14 1235.19 1424.8C1235.19 1424.8 1302.62 1394.32 1362.27 1417.18" fill="#d3b3ab" fill-rule="evenodd" opacity="1" stroke="none"/>
<path d="M1440.56 1420.66C1440.56 1420.66 1596.66 1380.51 1610.74 1354.54C1610.74 1354.54 1544.21 1505.08 1566.88 1589.02L1435.51 1591.99L1440.56 1420.66Z" fill="#d3b3ab" fill-rule="evenodd" opacity="1" stroke="none"/>
<path d="M1993.68 1332.22C1993.68 1332.22 2055.74 1819.49 1901.79 1970.23C1901.79 1970.23 1882.7 2082.41 2437.61 1929.33C2437.61 1929.33 2385.1 1591.63 2456.7 1475.95C2456.7 1475.95 2615.42 1213.03 2370.78 1364.94C2370.78 1364.94 2235.93 1314.69 2177.46 1343.9C2177.46 1343.9 2065.28 1272.62 1993.68 1332.22Z" fill="#d3b3ab" fill-rule="evenodd" opacity="1" stroke="none"/>
<path d="M2001.41 1378.23C2001.41 1378.23 1967.84 1315.38 1955.77 1305.28C1955.77 1305.28 2028.79 1313.93 2047.34 1349.4L2023.49 1401.58L2001.41 1378.23Z" fill="#d3b3ab" fill-rule="evenodd" opacity="1" stroke="none"/>
<path d="M1568.74 1370.22C1568.74 1370.22 1625.2 1248.3 1601.34 1170.64L1753.98 1211.9C1753.98 1211.9 1805.49 1392.87 1798.81 1394.92C1792.13 1396.98 1645.9 1463.3 1645.9 1463.3L1570.53 1459.07L1568.74 1370.22Z" fill="#d4927a" fill-rule="evenodd" opacity="1" stroke="none"/>
<path d="M1795.75 1916.25C1795.75 1916.25 1779.15 1783.53 1793.77 1750.48C1793.77 1750.48 1796.89 1895.82 1795.75 1916.25Z" fill="#886052" fill-rule="evenodd" opacity="1" stroke="none"/>
<path d="M1318.81 586.093C1318.81 586.093 1268.46 780.476 1335.59 914.642C1335.59 914.642 1450.83 1231.57 1379.23 1353.06C1379.23 1353.06 1222.59 1477.72 1469.85 1648.86C1469.85 1648.86 1600.76 1729.15 1312.1 1834.79C1312.1 1834.79 1717.12 1796.76 1607.47 1653.09C1607.47 1653.09 1483.28 1833.74 1709.28 1928.81C1709.28 1928.81 1790.96 1893.95 1726.07 2004.88C1726.07 2004.88 1878.23 2016.5 1787.6 1844.3C1787.6 1844.3 1636.56 1814.72 1707.05 1668.93C1707.05 1668.93 1661.17 1666.82 1739.49 1736.54C1739.49 1736.54 1686.91 1658.37 1718.24 1596.04C1718.24 1596.04 1717.12 1628.79 1758.51 1607.66C1758.51 1607.66 1528.03 1511.53 1576.14 1204.1L1695.86 617.786L1489.99 487.845L1318.81 586.093Z" fill="#000000" fill-rule="evenodd" opacity="1" stroke="none"/>
<path d="M1596.69 1282.39C1596.69 1282.39 1545.82 1515.02 1883.28 1452.74C1883.28 1452.74 1916.41 1451.38 1876.92 1434.19C1876.92 1434.19 1609.34 1521.23 1596.69 1282.39Z" fill="#ebb090" fill-rule="evenodd" opacity="1" stroke="none"/>
<path d="M1876.19 1443.16C1876.19 1443.16 1996.36 1312.86 1935.28 1259.37L1941.74 1245.76C1941.74 1245.76 2011.26 1324.52 1890.59 1449.97" fill="#ebb090" fill-rule="evenodd" opacity="1" stroke="none"/>
<path d="M1881.68 1450.14L1897.93 1439.94C1897.93 1439.94 1902.48 1481.76 1914.71 1488.52C1914.71 1488.52 1969.21 1469.29 1953.21 1450.92C1953.21 1450.92 1976.54 1466.57 1977.14 1477.19C1977.14 1477.19 1943.44 1485.45 1926.08 1502.52C1926.08 1502.52 1937.74 1536.9 1955.59 1534.23C1955.59 1534.23 1939.51 1551.73 1926.86 1550.97C1926.86 1550.97 1926.82 1515.7 1917.31 1509.59C1917.31 1509.59 1894.22 1510.95 1891.36 1528.94C1891.36 1528.94 1877.08 1515.91 1877.85 1506.5C1877.85 1506.5 1900.94 1505.14 1897.75 1496.43C1897.75 1496.43 1883.52 1457.83 1868.68 1452.78C1853.85 1447.74 1881.68 1450.14 1881.68 1450.14Z" fill="#ebb090" fill-rule="evenodd" opacity="1" stroke="none"/>
<path d="M1935.59 1259.26L1924.79 1262.01C1924.79 1262.01 1915.72 1241.88 1914.68 1236.05C1914.68 1236.05 1939.87 1242.22 1942.03 1246.06L1942.81 1257.99L1935.59 1259.26Z" fill="#ebb090" fill-rule="evenodd" opacity="1" stroke="none"/>
<path d="M1622.16 1183.61C1622.16 1183.61 1655.7 1253.29 1809.88 1241.63C1809.88 1241.63 1922.66 1273.07 1940.5 1294.61C1940.5 1294.61 1882.69 1181.22 1894.46 1088.32C1906.24 995.42 1788.11 1187.94 1788.11 1187.94L1622.16 1183.61Z" fill="#bf856f" fill-rule="evenodd" opacity="1" stroke="none"/>
</g>
<g id="Layer-1" vectornator:layerName="Layer 1">
<path d="M1433.86 764.459C1433.86 764.459 1348.26 1037.88 1563.81 1143.54L1524.9 1031.39L1568.48 976.709L1489.11 850.656L1433.86 764.459Z" fill="#d4927a" fill-rule="evenodd" opacity="1" stroke="none"/>
<path d="M1400.3 698.265C1400.3 698.265 1446.52 870.754 1442.16 944.19C1442.16 944.19 1426.46 1065.45 1630.52 1207.19C1630.52 1207.19 1784 1324.18 1966.26 1041.54C1966.26 1041.54 2077.01 865.631 2058.7 783.655C2058.7 783.655 2097.07 645.322 2050.85 550.539C2050.85 550.539 1932.25 303.759 1603.49 473.687C1603.49 473.687 1456.11 488.203 1400.3 698.265Z" fill="#d4927a" fill-rule="evenodd" opacity="1" stroke="none"/>
<path d="M1793.5 837.063C1793.5 837.063 1805.5 774.136 1930.47 777.315C1930.47 777.315 1982.53 776.859 1991.3 763.214C1991.3 763.214 1992.54 828.244 1948.32 846.176C1948.32 846.176 1811.91 897.938 1793.5 837.063Z" fill="#ede5e4" fill-rule="evenodd" opacity="1" stroke="none"/>
<path d="M1852.2 789.548C1852.2 789.548 1827.65 846.221 1869.97 861.783C1869.97 861.783 1872.3 867.739 1908.25 858.356C1908.25 858.356 1942.93 812.105 1902.8 779.449C1902.8 779.449 1873 772.798 1852.2 789.548Z" fill="#000000" fill-rule="evenodd" opacity="1" stroke="none"/>
<path d="M1858.45 801.162C1858.45 801.162 1841.77 840.306 1872.85 854.827C1872.85 854.827 1885.97 859.347 1877.43 851.209C1877.43 851.209 1845.37 836.282 1870.18 792.848C1870.18 792.848 1865.35 793.146 1858.45 801.162Z" fill="#3d140c" fill-rule="evenodd" opacity="1" stroke="none"/>
<path d="M1782.34 778.094C1782.34 778.094 1769.9 870.044 1786.62 823.229C1786.62 823.229 1806.13 761.509 1915.26 771.586C1915.26 771.586 2029.53 777.254 1992.23 728.55C1992.23 728.55 1963.71 699.579 1868.31 738.207C1868.31 738.207 1787.05 764.868 1782.34 778.094Z" fill="#864d4a" fill-rule="evenodd" opacity="1" stroke="none"/>
<path d="M1908.91 817.831C1908.91 817.831 1898.07 842.122 1896.14 852.027C1896.14 852.027 1899.76 861.225 1906.26 850.14C1906.26 850.14 1916.13 839.764 1908.91 817.831Z" fill="#3d140c" fill-rule="evenodd" opacity="1" stroke="none"/>
<path d="M1872.06 795.426C1872.06 795.426 1855.92 832.688 1888.19 850.612C1888.19 850.612 1868.44 824.434 1872.06 795.426Z" fill="#ede5e4" fill-rule="evenodd" opacity="1" stroke="none"/>
<path d="M1897.83 796.841C1897.83 796.841 1894.46 815.472 1904.81 808.633C1904.81 808.633 1916.37 802.737 1897.83 796.841Z" fill="#ede5e4" fill-rule="evenodd" opacity="1" stroke="none"/>
<path d="M1988.11 762.354C1988.11 762.354 1999.41 740.864 1985.5 724.693C1985.5 724.693 2011.8 744.587 1989.63 765.333" fill="#000000" fill-rule="evenodd" opacity="1" stroke="none"/>
<path d="M1971.41 766.786C1971.41 766.786 1990.14 748.565 1979.9 731.813C1979.9 731.813 2002.51 756.025 1982.4 767.03" fill="#000000" fill-rule="evenodd" opacity="1" stroke="none"/>
<path d="M1956.18 770.454C1956.18 770.454 1979.4 753.946 1967.67 731.323C1967.67 731.323 1988.4 758.47 1968.16 771.188L1956.18 770.454Z" fill="#000000" fill-rule="evenodd" opacity="1" stroke="none"/>
<path d="M1919.9 773.665C1919.9 773.665 1934.83 760.497 1924.61 747.686C1924.61 747.686 1942.82 766.952 1928.73 774.181L1919.9 773.665Z" fill="#000000" fill-rule="evenodd" opacity="1" stroke="none"/>
<path d="M1928.66 772.187C1928.66 772.187 1948.44 760.233 1939.37 744.608C1939.37 744.608 1955.74 769.182 1941.62 775.459L1928.66 772.187Z" fill="#000000" fill-rule="evenodd" opacity="1" stroke="none"/>
<path d="M1943.96 770.778C1943.96 770.778 1966.29 754.744 1950.78 732.758C1950.78 732.758 1980.68 767.498 1955.87 774.3C1931.06 781.103 1943.96 770.778 1943.96 770.778Z" fill="#000000" fill-rule="evenodd" opacity="1" stroke="none"/>
<path d="M1765.45 728.21C1765.45 728.21 1722.06 781.826 1796.44 764.628C1796.44 764.628 1943.66 684.71 2002.55 717.588C2002.55 717.588 1928.16 657.397 1765.45 728.21Z" fill="#000000" fill-rule="evenodd" opacity="1" stroke="none"/>
<path d="M1793.12 836.721C1793.12 836.721 1784.11 790.53 1876.05 772.616C1876.05 772.616 1989.95 775.719 1990.98 755.337C1990.98 755.337 1997 749.277 1996.66 745.818L1991.31 763.785C1991.31 763.785 1986.48 778.377 1937.25 778.418C1937.25 778.418 1887.54 772.02 1839.36 792.908C1839.36 792.908 1821.75 795.086 1793.12 836.721Z" fill="#000000" fill-rule="evenodd" opacity="1" stroke="none"/>
<path d="M1805.68 855.908C1805.68 855.908 1859.28 891.163 1958.38 841.244C1958.38 841.244 1979.3 827.352 1985.58 802.026C1985.58 802.026 1979.54 836.668 1912.04 855.87C1912.04 855.87 1863.98 873.94 1805.68 855.908Z" fill="#000000" fill-rule="evenodd" opacity="1" stroke="none"/>
<path d="M1793.11 836.562C1793.11 836.562 1795.24 847.713 1802.5 852.519C1802.5 852.519 1800.66 826.282 1805.64 819.838C1805.64 819.838 1797.91 828.014 1793.11 836.562Z" fill="#e7928e" fill-rule="evenodd" opacity="1" stroke="none"/>
<path d="M1981.78 771.28C1981.78 771.28 1990.64 777.302 1988.93 786.824C1988.93 786.824 1992.77 768.115 1991.23 763.709C1991.23 763.709 1988.66 767.864 1981.78 771.28Z" fill="#e7928e" fill-rule="evenodd" opacity="1" stroke="none"/>
<path d="M1651.85 863.801C1651.85 863.801 1634.6 796.899 1522.15 810.688C1522.15 810.688 1475.13 814.512 1465.83 800.516C1465.83 800.516 1471.33 870.786 1513.07 886.469C1513.07 886.469 1641.45 931.011 1651.85 863.801Z" fill="#ede5e4" fill-rule="evenodd" opacity="1" stroke="none"/>
<path d="M1594.04 817.4C1594.04 817.4 1621.97 876.513 1585.36 896.814C1585.36 896.814 1583.87 903.433 1550.48 896.289C1550.48 896.289 1514.46 849.259 1547.35 810.697C1547.35 810.697 1573.56 801.05 1594.04 817.4Z" fill="#000000" fill-rule="evenodd" opacity="1" stroke="none"/>
<path d="M1589.58 830.449C1589.58 830.449 1608.63 871.302 1582.06 889.546C1582.06 889.546 1570.68 895.511 1577.56 886.022C1577.56 886.022 1604.96 867.259 1578.14 822.451C1578.14 822.451 1582.53 822.372 1589.58 830.449Z" fill="#3d140c" fill-rule="evenodd" opacity="1" stroke="none"/>
<path d="M1655.91 799.248C1655.91 799.248 1676.51 897.431 1656.65 848.304C1656.65 848.304 1632.75 783.327 1535.3 803.246C1535.3 803.246 1432.76 818.835 1461.45 763.191C1461.45 763.191 1484.23 729.568 1574.26 763.338C1574.26 763.338 1650.31 785.369 1655.91 799.248Z" fill="#864d4a" fill-rule="evenodd" opacity="1" stroke="none"/>
<path d="M1545.75 852.617C1545.75 852.617 1558 877.928 1560.75 888.456C1560.75 888.456 1558.43 898.68 1551.43 887.259C1551.43 887.259 1541.46 876.881 1545.75 852.617Z" fill="#3d140c" fill-rule="evenodd" opacity="1" stroke="none"/>
<path d="M1576.71 825.388C1576.71 825.388 1595.08 864.256 1567.78 886.271C1567.78 886.271 1582.93 856.388 1576.71 825.388Z" fill="#ede5e4" fill-rule="evenodd" opacity="1" stroke="none"/>
<path d="M1553.6 829.051C1553.6 829.051 1558.55 848.874 1548.5 842.353C1548.5 842.353 1537.47 836.95 1553.6 829.051Z" fill="#ede5e4" fill-rule="evenodd" opacity="1" stroke="none"/>
<path d="M1458.44 775.037C1458.44 775.037 1448.93 753.546 1460.64 737.375C1460.64 737.375 1438.5 757.27 1457.16 778.015" fill="#000000" fill-rule="evenodd" opacity="1" stroke="none"/>
<path d="M1484.14 802.722C1484.14 802.722 1465.37 784.615 1472.91 765.69C1472.91 765.69 1454.98 793.688 1474.24 803.896" fill="#000000" fill-rule="evenodd" opacity="1" stroke="none"/>
<path d="M1498.26 805.417C1498.26 805.417 1475.61 789.53 1483.9 764.147C1483.9 764.147 1467.96 795.157 1487.51 807.202L1498.26 805.417Z" fill="#000000" fill-rule="evenodd" opacity="1" stroke="none"/>
<path d="M1531.32 805.874C1531.32 805.874 1516.5 792.903 1524.42 778.233C1524.42 778.233 1509.95 800.531 1523.4 807.163L1531.32 805.874Z" fill="#000000" fill-rule="evenodd" opacity="1" stroke="none"/>
<path d="M1523.26 805.005C1523.26 805.005 1504.2 793.747 1510.79 776.135C1510.79 776.135 1498.53 804.007 1511.91 809.61L1523.26 805.005Z" fill="#000000" fill-rule="evenodd" opacity="1" stroke="none"/>
<path d="M1509.32 804.753C1509.32 804.753 1487.53 789.304 1499.28 764.296C1499.28 764.296 1475.85 804.258 1498.93 809.541C1522.01 814.824 1509.32 804.753 1509.32 804.753Z" fill="#000000" fill-rule="evenodd" opacity="1" stroke="none"/>
<path d="M1666.06 744.024C1666.06 744.024 1710.69 798.278 1641.81 785.889C1641.81 785.889 1500.81 711.862 1451.02 752.219C1451.02 752.219 1512.01 681.107 1666.06 744.024Z" fill="#000000" fill-rule="evenodd" opacity="1" stroke="none"/>
<path d="M1652.16 863.401C1652.16 863.401 1655.58 812.814 1570.78 801.108C1570.78 801.108 1468.32 813.897 1465.31 791.991C1465.31 791.991 1459.26 785.951 1459.22 782.19L1465.87 801.133C1465.87 801.133 1471.72 816.478 1516.15 812.44C1516.15 812.44 1560.36 801.416 1605.97 819.96C1605.97 819.96 1622.08 820.851 1652.16 863.401Z" fill="#000000" fill-rule="evenodd" opacity="1" stroke="none"/>
<path d="M1642.78 885.144C1642.78 885.144 1598.01 927.628 1503.49 881.982C1503.49 881.982 1483.2 868.725 1474.94 841.92C1474.94 841.92 1483.93 878.798 1546.8 893.92C1546.8 893.92 1592.01 909.434 1642.78 885.144Z" fill="#000000" fill-rule="evenodd" opacity="1" stroke="none"/>
<path d="M1652.15 863.229C1652.15 863.229 1651.37 875.436 1645.31 881.224C1645.31 881.224 1644.29 852.763 1639.14 846.222C1639.14 846.222 1646.95 854.402 1652.15 863.229Z" fill="#e7928e" fill-rule="evenodd" opacity="1" stroke="none"/>
<path d="M1475.24 808.43C1475.24 808.43 1467.86 815.662 1470.37 825.795C1470.37 825.795 1465 805.926 1465.93 801.045C1465.93 801.045 1468.68 805.315 1475.24 808.43Z" fill="#e7928e" fill-rule="evenodd" opacity="1" stroke="none"/>
<path d="M1700.91 408.578C1700.91 408.578 1668.91 491.903 1736.55 522.526C1736.55 522.526 1841.29 611.549 1757.64 650.006C1757.64 650.006 1719.1 722.649 1794.74 741.165C1794.74 741.165 1884.92 814.52 1834.01 870.782C1834.01 870.782 1839.83 963.365 1900.93 956.243C1900.93 956.243 1827.47 924.195 1866.74 862.236C1866.74 862.236 1901.65 793.154 1830.38 746.863C1830.38 746.863 1748.92 694.161 1790.37 643.597C1790.37 643.597 1850.74 622.944 1780.19 520.39C1780.19 520.39 1759.1 452.733 1794.74 428.519" fill="#000000" fill-rule="evenodd" opacity="1" stroke="none"/>
<path d="M1782.61 437.442C1782.61 437.442 1831.28 480.318 1833.64 537.342C1833.64 537.342 1828.06 558.606 1870.55 591.399C1870.55 591.399 1912.88 618.687 1898.33 657.708C1898.33 657.708 1960.08 614.813 1876.57 556.432C1876.57 556.432 1853.54 558.099 1846.68 495.311C1846.68 495.311 1835.77 413.522 1794.26 411.895C1752.74 410.269 1782.61 437.442 1782.61 437.442Z" fill="#000000" fill-rule="evenodd" opacity="1" stroke="none"/>
<path d="M1679.68 847.769C1679.68 847.769 1687.93 920.015 1664.49 987.586C1664.49 987.586 1697.91 946.363 1679.68 847.769Z" fill="#a67360" fill-rule="evenodd" opacity="1" stroke="none"/>
<path d="M1688.62 1039.65C1688.62 1039.65 1777.22 1028.79 1766.89 1009.14C1766.89 1009.14 1799.2 1028.74 1688.62 1039.65Z" fill="#a67360" fill-rule="evenodd" opacity="1" stroke="none"/>
<path d="M1659.55 1008.23C1659.55 1008.23 1651.5 1020.07 1668.95 1027.95" fill="#a67360" fill-rule="evenodd" opacity="1" stroke="none"/>
<path d="M1631.2 1114.79C1631.2 1114.79 1688.22 1089.16 1694.67 1075.12C1694.67 1075.12 1731.24 1089.86 1745.94 1070.2C1745.94 1070.2 1796.5 1102.15 1834.51 1077.92C1834.51 1077.92 1823.04 1156.22 1711.88 1192.03C1711.88 1192.03 1649.49 1199.76 1615.07 1108.12" fill="#a95c54" fill-rule="evenodd" opacity="1" stroke="none"/>
<path d="M1922.74 1088.81C1922.74 1088.81 2075.37 998.246 2030.76 770.962L1982.39 916.25L1942.62 1033.07L1922.74 1088.81Z" fill="#d4927a" fill-rule="evenodd" opacity="1" stroke="none"/>
</g>
<g id="Layer-4" vectornator:layerName="Layer 4">
<path d="M1552.53 1095.92C1552.53 1095.92 1610.91 1073 1628.76 1025.57C1628.76 1025.57 1605.43 1069.34 1552.53 1095.92Z" fill="#bf856f" fill-rule="evenodd" opacity="1" stroke="none"/>
<path d="M1796.37 1013.31C1796.37 1013.31 1809.02 1082.99 1872.6 1082.06C1872.6 1082.06 1820.09 1079.9 1796.37 1013.31Z" fill="#bf856f" fill-rule="evenodd" opacity="1" stroke="none"/>
<path d="M1925.17 917.445C1925.17 917.445 1988.04 850.595 2014.27 846.44C2014.27 846.44 2064.03 851.35 1957.57 1019.04C1957.57 1019.04 1864.23 1030 1864.62 953.703C1864.62 953.703 1888.92 942.75 1925.17 917.445Z" fill="#d99283" fill-rule="evenodd" opacity="1" stroke="none"/>
<path d="M1460.49 919.323C1460.49 919.323 1558.03 949.56 1579.49 944.398C1579.49 944.398 1610 956.567 1569.32 996.023C1569.32 996.023 1479.7 1043.59 1450.7 969.104C1450.7 969.104 1453.34 915.635 1445.8 904.941C1445.8 904.941 1449.19 917.11 1460.49 919.323Z" fill="#d99283" fill-rule="evenodd" opacity="1" stroke="none"/>
<path d="M1871.38 950.824C1871.38 950.824 1910.24 963.023 1915.9 956.567C1915.9 956.567 1887.4 950.913 1876.84 940.688L1866.93 938.54L1871.38 950.824Z" fill="#000000" fill-rule="evenodd" opacity="1" stroke="none"/>
<path d="M1747.71 424.359C1747.71 424.359 2054.27 794.8 2013.35 1031.65L2105.24 941.502C2105.24 941.502 2236.51 414.896 1890.57 321.914C1890.57 321.914 1771.65 272.367 1645.78 360.88C1645.78 360.88 1595.58 442.836 1847.32 473.16" fill="#000000" fill-rule="evenodd" opacity="1" stroke="none"/>
<path d="M1771.8 469.042C1771.8 469.042 1830.22 685.704 1971.89 677.123C2113.55 668.542 2005.48 587.026 2005.48 587.026L1792.97 410.408L1771.8 469.042Z" fill="#000000" fill-rule="evenodd" opacity="1" stroke="none"/>
<path d="M1715.57 464.037C1715.57 464.037 1409.59 561.999 1375.27 761.5L1350.44 623.494L1500.14 437.58L1726.52 418.989L1715.57 464.037Z" fill="#000000" fill-rule="evenodd" opacity="1" stroke="none"/>
<path d="M1318.92 591.279C1318.92 591.279 1373.38 205.664 1738.63 340.089L1653.04 446.551L1378.88 587.354L1328.07 612.375L1318.92 591.279Z" fill="#000000" fill-rule="evenodd" opacity="1" stroke="none"/>
</g>
</svg>
