<?xml version="1.0" encoding="UTF-8" standalone="no"?>
<!DOCTYPE svg PUBLIC "-//W3C//DTD SVG 1.1//EN" "http://www.w3.org/Graphics/SVG/1.1/DTD/svg11.dtd">
<!-- Created with Vectornator (http://vectornator.io/) -->
<svg height="100%" stroke-miterlimit="10" style="fill-rule:nonzero;clip-rule:evenodd;stroke-linecap:round;stroke-linejoin:round;" version="1.1" viewBox="0 0 3370.82 2384.24" width="100%" xml:space="preserve" xmlns="http://www.w3.org/2000/svg" xmlns:vectornator="http://vectornator.io" xmlns:xlink="http://www.w3.org/1999/xlink">
<defs/>
<g id="Layer-5" vectornator:layerName="Layer 5">
<path d="M1312.91 764.216L1726.65 1800.74L1369.53 1870.42L1053.06 1143.11L1132.9 727.923L1312.91 764.216Z" fill="#000000" fill-rule="evenodd" opacity="0" stroke="none"/>
<path d="M1415.07 1020.1C1415.07 1020.1 1424.19 1477.11 1548.19 1342.89L1648.49 918.168L1424.19 897.781L1415.07 1020.1Z" fill="#000000" fill-rule="evenodd" opacity="1" stroke="none"/>
<path d="M2154.65 617.093C2154.65 617.093 2145.21 954.58 2012.59 1201.27L1843.33 1411.25L1714.04 1134.16C1714.04 1134.16 1853.32 644.587 1847.22 638.383C1841.11 632.18 2061.97 513.277 2061.97 513.277L2154.65 617.093Z" fill="#000000" fill-rule="evenodd" opacity="1" stroke="none"/>
<path d="M2052.93 1116.13C2052.93 1116.13 2000.83 1354.51 1878.42 1563.17C1756 1771.84 1684.84 1455.22 1684.84 1455.22L1881.52 1112.35L2052.93 1116.13Z" fill="#000000" fill-rule="evenodd" opacity="1" stroke="none"/>
<path d="M1412.19 1211.15L1422.95 1341.52L1499.84 1294.24L1470.62 1150.99L1412.19 1211.15Z" fill="#000000" fill-rule="evenodd" opacity="1" stroke="none"/>
<path d="M1304.04 712.467C1304.04 712.467 1374.91 1267.26 1068.57 1626.13L1676.67 1699.6C1676.67 1699.6 1697.25 1334.35 1685.82 1345C1674.39 1355.65 1304.04 712.467 1304.04 712.467Z" fill="#000000" fill-rule="evenodd" opacity="1" stroke="none"/>
<path d="M1305.93 707.172C1305.93 707.172 1195.39 1369.93 1051.31 1570.61L1512.62 1443.73L1305.93 707.172Z" fill="#000000" fill-rule="evenodd" opacity="1" stroke="none"/>
<path d="M2054.23 1085.1C2054.23 1085.1 2000.93 1326.11 2210.23 1471.44C2210.23 1471.44 2005.48 1502.93 1997.68 1507.16C1989.88 1511.4 1846.23 1440.55 1838.43 1446C1830.63 1451.45 1913.18 1269.18 1913.18 1269.18L2054.23 1085.1Z" fill="#000000" fill-rule="evenodd" opacity="1" stroke="none"/>
</g>
<g id="Layer-2" vectornator:layerName="Layer 2">
<path d="M1924.68 1193.93C1924.68 1193.93 1918.66 1301.38 2033 1439.66C2033 1439.66 1982.89 1609.99 1757.07 1609.01C1757.07 1609.01 1333.79 1458.32 1383.15 1320.35C1383.15 1320.35 1527.05 1248.93 1560.66 1127.59" fill="#d09b74" fill-rule="evenodd" opacity="1" stroke="none"/>
<path d="M1562.32 1129.3C1562.32 1129.3 1521.24 1227.25 1487.29 1261.91C1487.29 1261.91 1902.39 1319.91 1943.5 1180.03C1943.5 1180.03 1567.22 1147.75 1562.32 1129.3Z" fill="#9a785f" fill-rule="evenodd" opacity="1" stroke="none"/>
<path d="M1982.14 1369.11C1982.14 1369.11 2224.71 1453.02 2387.91 1433.08C2387.91 1433.08 2634.94 1433.08 2461.04 1759.59C2461.04 1759.59 1834.99 1890.03 1406.03 1844.34C1406.03 1844.34 886.996 1774.55 847.756 1659.07C847.756 1659.07 848.648 1416.47 1023.44 1396.53C1023.44 1396.53 1381.06 1323.42 1427.43 1309.29" fill="#d09b74" fill-rule="evenodd" opacity="1" stroke="none"/>
<path d="M1761.63 1826.49C1761.63 1826.49 1812.22 2185.29 2148.36 2075.81C2148.36 2075.81 2545.49 1906.01 2243.96 1598.84L1761.63 1826.49Z" fill="#d09b74" fill-rule="evenodd" opacity="1" stroke="none"/>
<path d="M1366.17 1607.93C1366.17 1607.93 1065.67 1941.06 1421.75 2084.08C1421.75 2084.08 2013.09 2211.46 1849.77 1777.64C1686.44 1343.82 1366.17 1607.93 1366.17 1607.93Z" fill="#d09b74" fill-rule="evenodd" opacity="1" stroke="none"/>
<path d="M1798.7 1746.25C1798.7 1746.25 1864.98 1823.42 1853.93 1914.32C1853.93 1914.32 1890.75 1820.57 1798.7 1746.25Z" fill="#9a785f" fill-rule="evenodd" opacity="1" stroke="none"/>
<path d="M1300.56 1777.55C1300.56 1777.55 1770.88 2062.76 1853.71 1964.24C1853.71 1964.24 1861.1 1969.75 1849.27 2009.02C1849.27 2009.02 1830.78 2088.25 1648.87 2106.85C1648.87 2106.85 1408.53 2136.47 1300.56 2019.36C1300.56 2019.36 1210.35 1966.31 1253.98 1752.06L1300.56 1777.55Z" fill="#000000" fill-rule="evenodd" opacity="1" stroke="none"/>
<path d="M1857.51 1962.43C1857.51 1962.43 2024.48 2042.1 2140.24 1988.04C2140.24 1988.04 2345.8 1838.65 2332.44 1667.93C2332.44 1667.93 2371.77 1743.34 2364.35 1809.49C2364.35 1809.49 2352.47 1999.42 2245.62 2052.06C2245.62 2052.06 1999.99 2168.72 1874.58 2063.44C1874.58 2063.44 1853.8 2059.17 1827.09 2010.8" fill="#000000" fill-rule="evenodd" opacity="1" stroke="none"/>
<path d="M2341.28 1781.6C2341.28 1781.6 2046.23 1465.02 1992.1 1376.86L1988.65 1370.06L1998.66 1372.97L2341.87 1733.31L2350.25 1769.45L2341.28 1781.6Z" fill="#000000" fill-rule="evenodd" opacity="1" stroke="none"/>
<path d="M1253.41 1761.29C1253.41 1761.29 1372.41 1339.87 1374.78 1323.72L1396.06 1314.91C1396.06 1314.91 1270.75 1743.67 1292.03 1808.27L1253.41 1761.29Z" fill="#000000" fill-rule="evenodd" opacity="1" stroke="none"/>
<path d="M2318.94 1697.76C2318.94 1697.76 2316.91 1725.8 2370.12 1743.01C2423.33 1760.22 2352.99 1644.14 2352.99 1644.14L2318.02 1660.89L2318.94 1697.76Z" fill="#d09b74" fill-rule="evenodd" opacity="1" stroke="none"/>
<path d="M2098.62 1627.47C2098.62 1627.47 2241.39 1671.07 2287.24 1723.48C2287.24 1723.48 2250.37 1655.22 2098.62 1627.47Z" fill="#9a785f" fill-rule="evenodd" opacity="1" stroke="none"/>
<path d="M1771.25 1500.35C1771.25 1500.35 1803.83 1462.2 1810.75 1438.62C1817.67 1415.04 1771.25 1500.35 1771.25 1500.35Z" fill="#9a785f" fill-rule="evenodd" opacity="1" stroke="none"/>
<path d="M1840.07 1435.49C1840.07 1435.49 1990.75 1441.16 2003.73 1427.11" fill="#9a785f" fill-rule="evenodd" opacity="1" stroke="none"/>
<path d="M1665.37 1429.22C1665.37 1429.22 1704.88 1493.04 1731.29 1503.9C1757.69 1514.76 1665.37 1429.22 1665.37 1429.22Z" fill="#9a785f" fill-rule="evenodd" opacity="1" stroke="none"/>
<path d="M1418.44 1422.08C1418.44 1422.08 1611.57 1448.54 1642.07 1434.85" fill="#9a785f" fill-rule="evenodd" opacity="1" stroke="none"/>
</g>
<g id="Layer-1" vectornator:layerName="Layer 1">
<path d="M2070.07 770.054C2070.07 770.054 2110.65 826.447 2059.69 968.916C2059.69 968.916 2024.77 1117.32 1915.3 1225.16C1915.3 1225.16 1749.21 1275.62 1636.91 1209.33C1636.91 1209.33 1451 1108.42 1380.23 823.479C1380.23 823.479 1377.4 461.462 1578.4 419.819C1578.4 419.819 1929.46 315.846 2031.38 503.825C2031.38 503.825 2065.35 565.166 2068.18 697.74C2068.18 697.74 2061.58 718.697 2070.07 770.054Z" fill="#d09b74" fill-rule="evenodd" opacity="1" stroke="none"/>
</g>
<g id="Layer-6" vectornator:layerName="Layer 6">
<path d="M899.612 1965.59L898.453 1966.8L903.78 1966.94" fill="#92463e" fill-rule="evenodd" opacity="1" stroke="none"/>
<path d="M1665.95 911.19C1665.95 911.19 1669.75 1025.83 1772.35 998.445C1772.35 998.445 1700.84 991.143 1665.95 911.19Z" fill="#9a7153" fill-rule="evenodd" opacity="1" stroke="none"/>
<path d="M1811.47 996.676C1811.47 996.676 1862.17 992.968 1848.18 941.048C1848.18 941.048 1884.89 989.259 1811.47 996.676Z" fill="#9a7153" fill-rule="evenodd" opacity="1" stroke="none"/>
<path d="M1782.63 732.887C1782.63 732.887 1781.86 883.286 1816.3 902.832C1816.3 902.832 1790.48 804.254 1782.63 732.887Z" fill="#9a7153" fill-rule="evenodd" opacity="1" stroke="none"/>
<path d="M1515.81 797.366C1515.81 797.366 1571.45 724.359 1678.76 777.441C1678.76 777.441 1704.09 793.656 1716.11 787.303C1716.11 787.303 1694.72 827.291 1596.4 835.646C1596.4 835.646 1538.03 836.109 1515.81 797.366Z" fill="#f8f8f8" fill-rule="evenodd" opacity="1" stroke="none"/>
<path d="M2006.93 778.233C2006.93 778.233 1947.9 714.931 1868.9 775.35C1868.9 775.35 1850.92 793.079 1839.86 788.271C1839.86 788.271 1864.7 823.827 1947.31 822.115C1947.31 822.115 1995.56 816.865 2006.93 778.233Z" fill="#f8f8f8" fill-rule="evenodd" opacity="1" stroke="none"/>
<path d="M1569.43 761.442C1569.43 761.442 1552.61 816.678 1582.05 833.009C1582.05 833.009 1592.75 838.412 1635.82 828.326C1635.82 828.326 1641.81 768.407 1626.01 759.281C1626.01 759.281 1606.64 748.474 1569.43 761.442Z" fill="#000000" fill-rule="evenodd" opacity="1" stroke="none"/>
<path d="M1903.05 757.976C1903.05 757.976 1896.51 810.517 1913.13 819.68C1913.13 819.68 1946.09 826.552 1962.66 815.74C1962.66 815.74 1966.95 764.683 1951.14 753.029C1951.14 753.029 1934.41 743.073 1903.05 757.976Z" fill="#000000" fill-rule="evenodd" opacity="1" stroke="none"/>
<path d="M1620.57 778.261C1620.57 778.261 1625.98 810.772 1620.69 816.458C1620.69 816.458 1617.38 824.021 1628.07 817.577C1628.07 817.577 1633.83 786.961 1627.19 777.191C1627.19 777.191 1622.21 772.536 1620.57 778.261Z" fill="#679155" fill-rule="evenodd" opacity="1" stroke="none"/>
<path d="M1620.57 778.261C1620.57 778.261 1625.98 810.772 1620.69 816.458C1620.69 816.458 1617.38 824.021 1628.07 817.577C1628.07 817.577 1633.83 786.961 1627.19 777.191C1627.19 777.191 1622.21 772.536 1620.57 778.261Z" fill="#679155" fill-rule="evenodd" opacity="1" stroke="none"/>
<path d="M1943.32 770.271C1943.32 770.271 1947.98 801.547 1940.82 806.464C1940.82 806.464 1936.05 813.334 1950.17 808.178C1950.17 808.178 1959.67 779.688 1951.86 769.845C1951.86 769.845 1945.82 764.995 1943.32 770.271Z" fill="#679155" fill-rule="evenodd" opacity="1" stroke="none"/>
<path d="M1606.21 773.722C1606.21 773.722 1618.38 789.476 1613.53 808.999C1613.53 808.999 1620.21 786.079 1618.92 765.921C1618.92 765.921 1605.03 760.748 1606.21 773.722Z" fill="#f0f0f0" fill-rule="evenodd" opacity="1" stroke="none"/>
<path d="M1583.5 778.545C1583.5 778.545 1579.23 824.28 1600.12 826.888C1600.12 826.888 1569.9 830.487 1583.5 778.545Z" fill="#f0f0f0" fill-rule="evenodd" opacity="1" stroke="none"/>
<path d="M1936.5 761.507C1935.97 763.272 1941.85 782.999 1939.65 791.375C1939.65 791.375 1947.78 771.684 1945.71 762.42C1945.71 762.42 1938.81 753.702 1936.5 761.507Z" fill="#f0f0f0" fill-rule="evenodd" opacity="1" stroke="none"/>
<path d="M1914.05 777.047C1914.05 777.047 1912.21 809.404 1932.55 816.627C1932.55 816.627 1906.53 819.009 1914.05 777.047Z" fill="#f0f0f0" fill-rule="evenodd" opacity="1" stroke="none"/>
<path d="M1493.03 708.998C1493.03 708.998 1449.06 775.368 1503.82 771.125C1503.82 771.125 1600.45 723.577 1646.94 737.958C1693.43 752.339 1736.58 748.709 1750.65 725.745C1750.65 725.745 1680.89 739.591 1657.85 701.549C1657.85 701.549 1571.87 666.389 1493.03 708.998Z" fill="#2f231a" fill-rule="evenodd" opacity="1" stroke="none"/>
<path d="M1805.63 740.21C1805.63 740.21 1846.96 730.427 1869.6 699.563C1869.6 699.563 1953.17 645.074 2002.91 671.886C2002.91 671.886 2071.88 707.226 2002.2 722.69C2002.2 722.69 1947.12 696.853 1909.49 712.529C1909.49 712.529 1889.22 746.38 1805.63 740.21Z" fill="#2f231a" fill-rule="evenodd" opacity="1" stroke="none"/>
<path d="M1516.97 798.206C1516.97 798.206 1564.98 849.355 1643.06 824.064C1643.06 824.064 1712.38 798.452 1715.07 788.988C1715.07 788.988 1693.91 825.474 1627.25 833.547C1627.25 833.547 1588.01 853.904 1521.31 810.307C1521.31 810.307 1517.92 806.771 1516.97 798.206Z" fill="#000000" fill-rule="evenodd" opacity="1" stroke="none"/>
<path d="M1515.71 798.056C1515.71 798.056 1531.85 749.905 1604.46 753.846C1604.46 753.846 1657.37 760.865 1673.64 771.579C1673.64 771.579 1711.98 795.593 1715.53 785.248C1715.53 785.248 1722.75 792.268 1706.07 790.667C1706.07 790.667 1659.6 771.333 1644.76 767.392C1644.76 767.392 1604.98 753.969 1568.62 763.698C1568.62 763.698 1557.42 767.392 1515.71 798.056Z" fill="#000000" fill-rule="evenodd" opacity="1" stroke="none"/>
<path d="M1517.27 797.495C1517.27 797.495 1473.77 782.128 1462.24 757.752C1462.24 757.752 1503.93 795.482 1522.92 790.501" fill="#000000" fill-rule="evenodd" opacity="1" stroke="none"/>
<path d="M1517.15 797.389L1519.19 792.514C1519.19 792.514 1480.89 774.391 1473.88 757.01C1473.88 757.01 1502.35 787.745 1523.14 787.003L1519.08 792.726" fill="#000000" fill-rule="evenodd" opacity="1" stroke="none"/>
<path d="M1521.71 787.427C1521.71 787.427 1490.43 774.935 1484.17 756.142C1484.17 756.142 1507.03 781.688 1524.96 781.35C1542.89 781.012 1521.71 787.427 1521.71 787.427Z" fill="#000000" fill-rule="evenodd" opacity="1" stroke="none"/>
<path d="M1527.32 780.962C1527.32 780.962 1506.09 777.859 1493.47 751.765C1493.47 751.765 1516.49 779.128 1532.52 775.179L1527.32 780.962Z" fill="#000000" fill-rule="evenodd" opacity="1" stroke="none"/>
<path d="M1505.22 749.809C1505.22 749.809 1514.23 774.011 1534.71 775.601L1542.09 771.361C1542.09 771.361 1523.57 769.948 1505.22 749.809Z" fill="#000000" fill-rule="evenodd" opacity="1" stroke="none"/>
<path d="M1539.88 770.179C1539.88 770.179 1515.94 753.453 1513.35 746.449C1513.35 746.449 1535.02 766.652 1544.88 767.34L1539.88 770.179Z" fill="#000000" fill-rule="evenodd" opacity="1" stroke="none"/>
<path d="M1547.07 766.471C1547.07 766.471 1528.51 757.815 1522.38 744.619C1522.38 744.619 1540.34 763.125 1553.14 763.781L1547.07 766.471Z" fill="#000000" fill-rule="evenodd" opacity="1" stroke="none"/>
<path d="M1529.73 741.757C1529.73 741.757 1538.97 757.656 1556.83 763.383L1562.99 760.581C1562.99 760.581 1548.07 758.67 1529.73 741.757Z" fill="#000000" fill-rule="evenodd" opacity="1" stroke="none"/>
<path d="M1541.29 737.583C1541.29 737.583 1550.53 753.482 1568.39 759.209L1574.54 756.407C1574.54 756.407 1559.63 754.496 1541.29 737.583Z" fill="#000000" fill-rule="evenodd" opacity="1" stroke="none"/>
<path d="M1556.97 736.974C1556.97 736.974 1567.78 754.851 1585.51 759.244L1591.02 754.998C1591.02 754.998 1576.58 754.793 1556.97 736.974Z" fill="#000000" fill-rule="evenodd" opacity="1" stroke="none"/>
<path d="M1573.34 735.774C1573.34 735.774 1584.14 753.651 1601.88 758.044L1607.39 753.798C1607.39 753.798 1592.94 753.593 1573.34 735.774Z" fill="#000000" fill-rule="evenodd" opacity="1" stroke="none"/>
<path d="M1589.67 736.53C1589.67 736.53 1600.48 754.407 1618.21 758.801L1623.72 754.554C1623.72 754.554 1609.27 754.349 1589.67 736.53Z" fill="#000000" fill-rule="evenodd" opacity="1" stroke="none"/>
<path d="M1602.77 739.424C1602.77 739.424 1613.58 757.301 1631.32 761.694L1636.82 757.448C1636.82 757.448 1622.38 757.243 1602.77 739.424Z" fill="#000000" fill-rule="evenodd" opacity="1" stroke="none"/>
<path d="M1617.34 741.604C1617.34 741.604 1628.14 759.48 1645.88 763.874L1651.39 759.627C1651.39 759.627 1636.94 759.422 1617.34 741.604Z" fill="#000000" fill-rule="evenodd" opacity="1" stroke="none"/>
<path d="M1632.77 740.797C1632.77 740.797 1640.08 760.169 1656.73 767.401L1662.94 764.122C1662.94 764.122 1648.76 761.553 1632.77 740.797Z" fill="#000000" fill-rule="evenodd" opacity="1" stroke="none"/>
<path d="M1648.26 747.213C1648.26 747.213 1653.98 767.051 1669.98 775.45L1676.45 772.624C1676.45 772.624 1662.51 769.05 1648.26 747.213Z" fill="#000000" fill-rule="evenodd" opacity="1" stroke="none"/>
<path d="M1661.4 746.33C1661.4 746.33 1662.46 766.856 1676.18 778.275L1683.14 776.813C1683.14 776.813 1670.34 770.522 1661.4 746.33Z" fill="#000000" fill-rule="evenodd" opacity="1" stroke="none"/>
<path d="M1841.04 789.287C1841.04 789.287 1877.28 819.359 1941.49 819.461C1941.49 819.461 1992.78 816.245 2004.96 777.921L2009.73 778.094C2009.73 778.094 1997.14 822.919 1946.21 823.613C1946.21 823.613 1868.96 824.844 1841.04 789.287Z" fill="#000000" fill-rule="evenodd" opacity="1" stroke="none"/>
<path d="M2005.08 778.504C2005.08 778.504 1984.79 756.279 1942.56 750.767C1942.56 750.767 1911.15 749.798 1879.28 769.776C1879.28 769.776 1858.9 794.616 1843.2 790.279L1839.12 787.534C1839.12 787.534 1864.05 782.637 1879.17 767.267C1879.17 767.267 1909.54 744.689 1942.74 747.371C1942.74 747.371 1987.1 751.113 2009.81 777.841L2005.08 778.504Z" fill="#000000" fill-rule="evenodd" opacity="1" stroke="none"/>
<path d="M2008.08 777.205C2008.08 777.205 2038.69 764.396 2040 736.713C2040 736.713 2022.29 773.373 2004.25 775.173L2008.08 777.205Z" fill="#000000" fill-rule="evenodd" opacity="1" stroke="none"/>
<path d="M2000.58 771.065C2000.58 771.065 2025.77 758.042 2031.93 735.832C2031.93 735.832 2031.15 761.144 2007.48 775.558L2000.58 771.065Z" fill="#000000" fill-rule="evenodd" opacity="1" stroke="none"/>
<path d="M1993.45 764.706C1993.45 764.706 2019.02 751.398 2023.16 729.065C2023.16 729.065 2017.42 762.694 2002.94 771.55L1993.45 764.706Z" fill="#000000" fill-rule="evenodd" opacity="1" stroke="none"/>
<path d="M1985.31 760.712C1985.31 760.712 2013.62 742.245 2013.8 728.282C2013.8 728.282 2013.58 752.19 1993.58 764.626L1985.31 760.712Z" fill="#000000" fill-rule="evenodd" opacity="1" stroke="none"/>
<path d="M1977.47 756.826C1977.47 756.826 2006.55 747.754 2006.45 726.938C2006.45 726.938 2010.76 746.223 1986.31 761.085L1977.47 756.826Z" fill="#000000" fill-rule="evenodd" opacity="1" stroke="none"/>
<path d="M1970.24 753.971C1970.24 753.971 2001.91 744.47 1998.88 725.198C1998.88 725.198 2004.94 743.997 1978.65 757.06L1970.24 753.971Z" fill="#000000" fill-rule="evenodd" opacity="1" stroke="none"/>
<path d="M1959.75 751.117C1959.75 751.117 1993.25 741.212 1993.59 727.262C1993.59 727.262 1994.55 743.353 1970.59 754.982L1959.75 751.117Z" fill="#000000" fill-rule="evenodd" opacity="1" stroke="none"/>
<path d="M1952.79 749.267C1952.79 749.267 1979.11 745.016 1980.37 727.94C1980.37 727.94 1986.32 741.187 1960.45 752.077" fill="#000000" fill-rule="evenodd" opacity="1" stroke="none"/>
<path d="M1975.48 730.75C1975.48 730.75 1964.92 744.688 1944.66 750.122L1937.71 747.887C1937.71 747.887 1954.61 745.819 1975.48 730.75Z" fill="#000000" fill-rule="evenodd" opacity="1" stroke="none"/>
<path d="M1962.87 728.235C1962.87 728.235 1953.22 742.693 1933.35 749.141L1926.28 747.257C1926.28 747.257 1943.01 744.341 1962.87 728.235Z" fill="#000000" fill-rule="evenodd" opacity="1" stroke="none"/>
<path d="M1946.62 729.292C1946.62 729.292 1938.61 744.534 1919.57 752.681L1912.33 751.417C1912.33 751.417 1928.64 747.062 1946.62 729.292Z" fill="#000000" fill-rule="evenodd" opacity="1" stroke="none"/>
<path d="M1931.77 732.656C1931.77 732.656 1924.4 748.155 1905.71 756.918L1898.43 755.889C1898.43 755.889 1914.54 751.006 1931.77 732.656Z" fill="#000000" fill-rule="evenodd" opacity="1" stroke="none"/>
<path d="M1914.61 737.527C1914.61 737.527 1908.12 753.342 1889.96 762.925L1882.63 762.218C1882.63 762.218 1898.44 756.627 1914.61 737.527Z" fill="#000000" fill-rule="evenodd" opacity="1" stroke="none"/>
<path d="M1871.65 771.34C1871.65 771.34 1891.42 758.739 1889.17 741.279C1889.17 741.279 1895.83 753.79 1882.39 766.764L1868.79 778.832L1871.65 771.34Z" fill="#000000" fill-rule="evenodd" opacity="1" stroke="none"/>
<path d="M1858.41 782.47C1858.41 782.47 1879.47 765.153 1877.19 749.037C1877.19 749.037 1882.64 761.335 1870.99 777.382L1858.41 782.47Z" fill="#000000" fill-rule="evenodd" opacity="1" stroke="none"/>
<path d="M1970.5 1047.97C1970.5 1047.97 1897.53 1164.48 1771.03 1149.47C1771.03 1149.47 1593.02 1089.2 1590.99 1009.85C1590.99 1009.85 1615.05 1043.34 1734.79 1042.47L1794.26 1039.64L1825.75 1044.23C1825.75 1044.23 1947.19 1054.68 1973 1037.86L1970.5 1047.97Z" fill="#000000" fill-rule="evenodd" opacity="1" stroke="none"/>
<path d="M1978.88 1039.06C1978.88 1039.06 1830.92 1052.79 1810.46 1026.54C1810.46 1026.54 1776.37 1037.87 1768.09 1025.66C1768.09 1025.66 1634.66 1043.32 1588.34 1008.33C1588.34 1008.33 1630.78 1056.95 1742.18 1059.17C1742.18 1059.17 1786.24 1063.72 1809.26 1059.93C1809.26 1059.93 1927.26 1055.91 1978.88 1039.06Z" fill="#bc6f6a" fill-rule="evenodd" opacity="1" stroke="none"/>
<path d="M1978.55 1036.48C1978.55 1036.48 1911.52 1156.51 1773.16 1145.9C1773.16 1145.9 1598.51 1085.8 1589.63 1008.53C1589.63 1008.53 1585.22 1112.73 1759.35 1174.58C1759.35 1174.58 1892.02 1197.3 1978.55 1036.48Z" fill="#bc6f6a" fill-rule="evenodd" opacity="1" stroke="none"/>
<path d="M1959.98 1067.53C1959.98 1067.53 1981.16 1040.61 1985.33 1032.23C1985.33 1032.23 1962.03 1040.25 1939.78 1043.68C1939.78 1043.68 1973.14 1040.63 1968.83 1047.62C1968.83 1047.62 1969.97 1052.66 1959.98 1067.53Z" fill="#bc6f6a" fill-rule="evenodd" opacity="1" stroke="none"/>
<path d="M1619.01 1051.58C1619.01 1051.58 1605.57 1042.39 1609.67 1053.69C1609.67 1053.69 1607.84 1052.76 1604.39 1039.43C1604.39 1039.43 1619.51 1049.37 1629.12 1053.12L1619.01 1051.58Z" fill="#bc6f6a" fill-rule="evenodd" opacity="1" stroke="none"/>
<path d="M1871.01 1061.26C1871.01 1061.26 1874.93 1110.15 1864.01 1118.06C1864.01 1118.06 1836.31 1127.53 1831.87 1120.73C1831.87 1120.73 1825.26 1079.25 1830.95 1061.14C1830.95 1061.14 1855.95 1067.79 1871.01 1061.26Z" fill="#ededed" fill-rule="evenodd" opacity="1" stroke="none"/>
<path d="M1831.1 1062.63C1831.1 1062.63 1847.86 1127.59 1813.45 1125.58C1813.45 1125.58 1802.54 1128.28 1798.38 1122.04C1798.38 1122.04 1790.75 1073.03 1793.89 1066.36C1793.89 1066.36 1822.65 1069.07 1831.1 1062.63Z" fill="#ededed" fill-rule="evenodd" opacity="1" stroke="none"/>
<path d="M1798.89 1069.02C1798.89 1069.02 1800.65 1125.61 1789.45 1123.14C1789.45 1123.14 1768.17 1127.94 1758.87 1120.54C1758.87 1120.54 1751.73 1069.46 1757.27 1063.56C1757.27 1063.56 1798.19 1062.21 1798.89 1069.02Z" fill="#ededed" fill-rule="evenodd" opacity="1" stroke="none"/>
<path d="M1761.31 1064.43C1761.31 1064.43 1765.39 1126.44 1750.85 1121.95C1750.85 1121.95 1727.66 1122.79 1720.25 1110.08C1720.25 1110.08 1721.15 1066.85 1723.04 1061.37C1723.04 1061.37 1754.07 1059.31 1761.31 1064.43Z" fill="#ededed" fill-rule="evenodd" opacity="1" stroke="none"/>
<path d="M1727.26 1062.22C1727.26 1062.22 1731.47 1121.45 1710.04 1111.07C1710.04 1111.07 1691.13 1107.2 1691.14 1099.61C1691.14 1099.61 1686.86 1061.88 1688.56 1056.22C1688.56 1056.22 1720.97 1058.71 1727.26 1062.22Z" fill="#ededed" fill-rule="evenodd" opacity="1" stroke="none"/>
<path d="M1690.25 1057.97C1690.25 1057.97 1697.14 1106.47 1685.86 1100.29C1685.86 1100.29 1661.58 1093.42 1659.31 1081.33C1659.31 1081.33 1655.82 1055.23 1658.99 1049.66C1658.99 1049.66 1685.21 1053.46 1690.25 1057.97Z" fill="#ededed" fill-rule="evenodd" opacity="1" stroke="none"/>
<path d="M1660.15 1052.56C1660.15 1052.56 1669.32 1096.47 1651.25 1080.7C1651.25 1080.7 1632.43 1072.57 1632.41 1062.94C1632.41 1062.94 1630.56 1045.08 1631.88 1038.51C1631.88 1038.51 1663.33 1047.55 1660.15 1052.56Z" fill="#ededed" fill-rule="evenodd" opacity="1" stroke="none"/>
<path d="M1633.08 1043.07C1633.08 1043.07 1638 1076.68 1625.06 1061.53C1625.06 1061.53 1607.96 1048.29 1607.78 1039.97C1607.78 1039.97 1607.78 1031.44 1610.25 1027.22C1612.72 1022.99 1637.79 1041.12 1633.08 1043.07Z" fill="#ededed" fill-rule="evenodd" opacity="1" stroke="none"/>
<path d="M1905.9 1061.76C1905.9 1061.76 1910.75 1102.25 1898.63 1109.2C1898.63 1109.2 1870.78 1122.95 1865.64 1110.82C1865.64 1110.82 1866.82 1065.21 1870.32 1060.06C1870.32 1060.06 1906.85 1055.48 1905.9 1061.76Z" fill="#ededed" fill-rule="evenodd" opacity="1" stroke="none"/>
<path d="M1903.09 1065.22C1903.09 1065.22 1898.71 1113.04 1909.68 1102.87C1909.68 1102.87 1924.2 1098.7 1930.35 1082.6C1930.35 1082.6 1927.37 1061.38 1923.96 1053.9C1923.96 1053.9 1904.45 1061.12 1902.55 1056.84" fill="#ededed" fill-rule="evenodd" opacity="1" stroke="none"/>
<path d="M1943.74 1050.88C1943.74 1050.88 1953.43 1064.93 1945.47 1072.36C1945.47 1072.36 1934.07 1087.86 1925.28 1081.81C1925.28 1081.81 1921.15 1057.37 1921.78 1053.3" fill="#ededed" fill-rule="evenodd" opacity="1" stroke="none"/>
<path d="M1830.46 1080.02C1830.46 1080.02 1827.21 1099.25 1829.66 1109.59" fill="#beb7b6" fill-rule="evenodd" opacity="1" stroke="none"/>
<path d="M1794.24 1075.75C1794.24 1075.75 1792.49 1098.12 1795.72 1107.44" fill="#beb7b6" fill-rule="evenodd" opacity="1" stroke="none"/>
<path d="M1757.32 1076.04C1757.32 1076.04 1754.9 1096.52 1757.2 1107.19" fill="#beb7b6" fill-rule="evenodd" opacity="1" stroke="none"/>
<path d="M1719.99 1071.52C1719.99 1071.52 1717.51 1089.41 1719.85 1102.02" fill="#beb7b6" fill-rule="evenodd" opacity="1" stroke="none"/>
<path d="M1687.86 1065.07C1687.86 1065.07 1687.49 1084.77 1689.56 1092.55" fill="#beb7b6" fill-rule="evenodd" opacity="1" stroke="none"/>
<path d="M1656.61 1055.18C1656.61 1055.18 1656.39 1067.13 1659.31 1076.95" fill="#beb7b6" fill-rule="evenodd" opacity="1" stroke="none"/>
<path d="M1631.56 1044.91C1631.56 1044.91 1630.32 1053.86 1631.73 1060.06" fill="#beb7b6" fill-rule="evenodd" opacity="1" stroke="none"/>
<path d="M1868.3 1071.13C1868.3 1071.13 1869.2 1083.17 1866.42 1101.89" fill="#beb7b6" fill-rule="evenodd" opacity="1" stroke="none"/>
<path d="M1902.24 1065.21C1902.24 1065.21 1904.92 1078.92 1903 1093.23" fill="#beb7b6" fill-rule="evenodd" opacity="1" stroke="none"/>
<path d="M1922.78 1060.78C1922.78 1060.78 1923.95 1060.84 1926.05 1074.11" fill="#beb7b6" fill-rule="evenodd" opacity="1" stroke="none"/>
<path d="M1968.45 1050.75L1968.33 1052.24C1968.33 1052.24 1957.63 1066.22 1954.92 1068.14L1963.62 1050.31L1968.45 1050.75Z" fill="#000000" fill-rule="evenodd" opacity="1" stroke="none"/>
<path d="M1961.57 1065.39C1961.57 1065.39 1960.14 1067.78 1958.52 1068.68C1956.9 1069.58 1962.52 1061.85 1962.52 1061.85L1963.68 1061.64L1962.08 1064.73L1961.57 1065.39Z" fill="#bc6f6a" fill-rule="evenodd" opacity="1" stroke="none"/>
<path d="M1511.09 811.978C1511.09 811.978 1629.21 881.542 1716.3 793.499C1716.3 793.499 1771.08 786.098 1700.1 879.506C1700.1 879.506 1501.27 962.971 1481.79 858.272C1481.79 858.272 1480.98 792.808 1511.09 811.978Z" fill="#bb8a66" fill-rule="evenodd" opacity="1" stroke="none"/>
<path d="M1837.76 794.955C1837.76 794.955 1941.97 881.194 2011.1 791.224C2011.1 791.224 2078.42 804.936 2043.32 854.847C2043.32 854.847 1944.06 907.73 1856.16 860.969C1856.16 860.969 1840.07 849.621 1837.76 794.955Z" fill="#bb8a66" fill-rule="evenodd" opacity="1" stroke="none"/>
</g>
<g id="Layer-4" vectornator:layerName="Layer 4">
<path d="M2169.77 731.62C2169.77 731.62 2177.1 915.292 2088.22 909.769C2088.22 909.769 1899.81 926.788 1860.81 901.178C1860.81 901.178 1768.89 860.927 1794.29 701.201C1794.29 701.201 1976.68 595.355 2169.77 731.62Z" fill="none" fill-rule="evenodd" opacity="1" stroke="#000000" stroke-linecap="butt" stroke-linejoin="round" stroke-width="29.6606"/>
<path d="M1549.53 1233.09C1549.53 1233.09 1823.89 1536.3 1770.09 1818.21C1770.09 1818.21 1845.41 1488.69 1558.94 1190.49C1272.48 892.299 1549.53 1233.09 1549.53 1233.09Z" fill="#000000" fill-rule="evenodd" opacity="1" stroke="none"/>
<path d="M1538.77 1248.13C1538.77 1248.13 1796.99 1711.71 1667.88 1902.15C1667.88 1902.15 1770.09 1662.84 1501.11 1248.13C1232.13 833.412 1513.21 1193 1513.21 1193L1538.77 1248.13Z" fill="#000000" fill-rule="evenodd" opacity="1" stroke="none"/>
<path d="M1571.48 1229.66C1571.48 1229.66 1841.8 1882.43 2089.27 1950.09C2089.27 1950.09 1734.21 1844.85 1555.34 1187.07" fill="#000000" fill-rule="evenodd" opacity="1" stroke="none"/>
<path d="M1556.69 1193.33L1576.86 1232.17" fill="#000000" fill-rule="evenodd" opacity="1" stroke="none"/>
<path d="M1424.45 1269.43C1424.45 1269.43 1731.09 1880.85 1659.81 2130.18C1659.81 2130.18 1725.71 1778.11 1491.7 1223.07C1257.68 668.027 1424.45 1269.43 1424.45 1269.43Z" fill="#000000" fill-rule="evenodd" opacity="1" stroke="none"/>
<path d="M1412.78 1427.63C1412.78 1427.63 1571.48 1926.29 1494.82 2072.88C1494.82 2072.88 1586.27 1916.26 1455.82 1413.84C1325.36 911.423 1412.78 1427.63 1412.78 1427.63Z" fill="#000000" fill-rule="evenodd" opacity="1" stroke="none"/>
<path d="M1494.82 1225.91C1494.82 1225.91 1907.71 1540.39 2020.68 1745.87C2020.68 1745.87 1884.84 1487.77 1478.68 1154.49L1494.82 1225.91Z" fill="#000000" fill-rule="evenodd" opacity="1" stroke="none"/>
<path d="M1514.18 1290.68C1514.18 1290.68 1577.38 1364.42 1582.55 1408.06C1582.55 1408.06 1559.69 1273.03 1526.5 1252.48C1493.31 1231.93 1514.18 1290.68 1514.18 1290.68Z" fill="#000000" fill-rule="evenodd" opacity="1" stroke="none"/>
<path d="M1395.62 729.856C1395.62 729.856 1388.33 914.247 1476.81 908.703C1476.81 908.703 1664.39 925.788 1703.21 900.078C1703.21 900.078 1794.72 859.669 1769.44 699.318C1769.44 699.318 1587.85 593.058 1395.62 729.856Z" fill="none" fill-rule="evenodd" opacity="1" stroke="#000000" stroke-linecap="butt" stroke-linejoin="round" stroke-width="29.6606"/>
<path d="M1389.1 1255.2C1389.1 1255.2 1351.25 1005.63 1326.02 926.122C1326.02 926.122 1237.71 685.408 1336.41 435.959C1336.41 435.959 1437.34 223.842 1691.88 257.718C1691.88 257.718 1890.76 317.174 1743.08 431.937C1743.08 431.937 1534.55 597.168 1468.51 730.597C1468.51 730.597 1370.55 982.246 1493.74 1150.93C1493.74 1150.93 1395.78 1197.44 1421.75 1363.87L1389.1 1255.2Z" fill="#000000" fill-rule="evenodd" opacity="1" stroke="none"/>
<path d="M1749.28 316.303C1749.28 316.303 1926.37 208.9 2063.07 306.244C2063.07 306.244 2199.74 396.486 2155.7 619.001L2112.47 710.296C2112.47 710.296 2031.61 429.503 1860.84 420.959C1860.84 420.959 1763.46 421.297 1739.14 370.59C1714.83 319.883 1749.28 316.303 1749.28 316.303Z" fill="#000000" fill-rule="evenodd" opacity="1" stroke="none"/>
<path d="M1791.29 397.624C1791.29 397.624 1804.77 442.688 1860.13 468.861C1860.13 468.861 1899.79 484.72 1905.24 519.529C1905.24 519.529 1917.04 495.574 1859.56 450.368C1859.56 450.368 1814.03 426.364 1817.65 396.652C1821.28 366.941 1791.29 397.624 1791.29 397.624Z" fill="#000000" fill-rule="evenodd" opacity="1" stroke="none"/>
<path d="M1774.1 403.081C1774.1 403.081 1815.32 466.948 1787.99 462.704C1787.99 462.704 1825.34 474.587 1792.55 399.261C1759.75 323.936 1774.1 403.081 1774.1 403.081Z" fill="#000000" fill-rule="evenodd" opacity="1" stroke="none"/>
</g>
</svg>
