<?xml version="1.0" encoding="UTF-8" standalone="no"?>
<!DOCTYPE svg PUBLIC "-//W3C//DTD SVG 1.1//EN" "http://www.w3.org/Graphics/SVG/1.1/DTD/svg11.dtd">
<!-- Created with Vectornator (http://vectornator.io/) -->
<svg height="100%" stroke-miterlimit="10" style="fill-rule:nonzero;clip-rule:evenodd;stroke-linecap:round;stroke-linejoin:round;" version="1.1" viewBox="0 0 3370.82 2384.24" width="100%" xml:space="preserve" xmlns="http://www.w3.org/2000/svg" xmlns:vectornator="http://vectornator.io" xmlns:xlink="http://www.w3.org/1999/xlink">
<defs/>
<g id="Layer-2" vectornator:layerName="Layer 2">
<path d="M1524.09 1398.33L1633.65 1968.88C1633.65 1968.88 1717.98 2077.62 1864.42 1955.64C2010.86 1833.66 2016.63 1739.7 2016.63 1739.7L1974.15 1574.11L1854.91 1428.79L1524.09 1398.33Z" fill="#ffffff" fill-rule="evenodd" opacity="1" stroke="none"/>
<path d="M1508.97 1443.75C1503.44 1443.86 1496.84 1447.88 1488.94 1457.22C1438.36 1516.99 1088.88 1600.91 1088.88 1600.91C1055.54 1729.65 1200.41 1989.44 1200.41 1989.44L1698.12 2006.69C1747.55 1892.89 1537.19 1556.09 1537.19 1556.09C1537.19 1556.09 1538.84 1443.14 1508.97 1443.75Z" fill="#332929" fill-rule="evenodd" opacity="1" stroke="none"/>
<path d="M1487.86 1472.02L1525.44 1385.65C1525.44 1385.65 1545.87 1475.31 1532.03 1530.69" fill="#332929" fill-rule="evenodd" opacity="1" stroke="none"/>
<path d="M1518.91 1389L1421.59 1626.38C1441.16 1653.49 1544.28 1679.28 1544.28 1679.28C1545.17 1687.28 1508.72 1757.97 1508.72 1757.97C1549.62 1787.31 1691.91 2007.38 1691.91 2007.38C1771.56 1947.93 1598.53 1646.94 1598.53 1646.94C1577.45 1548.38 1518.91 1389 1518.91 1389Z" fill="#3a3737" fill-rule="evenodd" opacity="1" stroke="none"/>
<path d="M821.952 1978.43C821.952 1978.43 811.761 1751.08 886.237 1620.95C886.237 1620.95 1300.17 1566.85 1391.89 1520.6L1435.79 1854.57L1257.05 1972.16C1257.05 1972.16 1213.15 2041.15 821.952 1978.43Z" fill="#332929" fill-rule="evenodd" opacity="1" stroke="none"/>
<path d="M1145.15 1777.83C1145.15 1777.83 1202.71 1935.59 1180.86 1986.76C1180.86 1986.76 1229.36 1957.98 1145.15 1777.83Z" fill="#3a3737" fill-rule="evenodd" opacity="1" stroke="none"/>
<path d="M846.224 1981.17C807.566 1929.63 869.558 1735.21 896.517 1681.3" fill="none" fill-rule="evenodd" opacity="1" stroke="#7b7b7b" stroke-linecap="round" stroke-linejoin="round" stroke-width="2.80468"/>
<path d="M871.37 1974.88C857.034 1874.53 886.194 1774.24 929.836 1686.95" fill="none" fill-rule="evenodd" opacity="1" stroke="#7b7b7b" stroke-linecap="round" stroke-linejoin="round" stroke-width="2.80468"/>
<path d="M905.947 1973.63C905.947 1903.18 922.44 1747.79 977.614 1692.61" fill="none" fill-rule="evenodd" opacity="1" stroke="#7b7b7b" stroke-linecap="round" stroke-linejoin="round" stroke-width="2.80468"/>
<path d="M938.381 1988.07C936.327 1988.26 954.137 1901.21 955.577 1891.78C964.773 1831.55 985.665 1741.09 1041.15 1706.53" fill="none" fill-rule="evenodd" opacity="1" stroke="#7b7b7b" stroke-linecap="round" stroke-linejoin="round" stroke-width="2.80468"/>
<path d="M982.768 1990.22C966.729 1929.59 1035.5 1774.49 1090.44 1740.27" fill="none" fill-rule="evenodd" opacity="1" stroke="#7b7b7b" stroke-linecap="round" stroke-linejoin="round" stroke-width="2.80468"/>
<path d="M1040.47 1994.53C1024.64 1923.02 1089.3 1840.62 1113.44 1778.42" fill="none" fill-rule="evenodd" opacity="1" stroke="#7b7b7b" stroke-linecap="round" stroke-linejoin="round" stroke-width="2.80468"/>
<path d="M1131.73 1807.78C1136.37 1857.29 1139.42 1957.61 1104.99 1999.16" fill="none" fill-rule="evenodd" opacity="1" stroke="#7b7b7b" stroke-linecap="round" stroke-linejoin="round" stroke-width="2.80468"/>
<path d="M1153.4 1857.7C1173.78 1890.42 1160.72 1964.92 1147.27 1999.57" fill="none" fill-rule="evenodd" opacity="1" stroke="#7b7b7b" stroke-linecap="round" stroke-linejoin="round" stroke-width="2.80468"/>
<path d="M897.947 1682.39C884.448 1691.27 909.964 1646.72 925.577 1642.57" fill="none" fill-rule="evenodd" opacity="1" stroke="#7b7b7b" stroke-linecap="round" stroke-linejoin="round" stroke-width="2.80468"/>
<path d="M929.726 1689.33C927.248 1688.82 947.285 1664.37 953.116 1662.81" fill="none" fill-rule="evenodd" opacity="1" stroke="#7b7b7b" stroke-linecap="round" stroke-linejoin="round" stroke-width="2.80468"/>
<path d="M975.266 1696.5C971.534 1701.23 984.553 1688.11 990.38 1686.56" fill="none" fill-rule="evenodd" opacity="1" stroke="#7b7b7b" stroke-linecap="round" stroke-linejoin="round" stroke-width="2.80468"/>
<path d="M1040.34 1708.45C1042.65 1705.51 1047.5 1706.2 1050.68 1705.36" fill="none" fill-rule="evenodd" opacity="1" stroke="#7b7b7b" stroke-linecap="round" stroke-linejoin="round" stroke-width="2.80468"/>
<path d="M1051.16 1705.1C1052.12 1709.61 1091.27 1702.75 1096.52 1702.37C1210.45 1693.99 1329.86 1640.86 1434.9 1602.31" fill="none" fill-rule="evenodd" opacity="1" stroke="#7b7b7b" stroke-linecap="round" stroke-linejoin="round" stroke-width="2.80468"/>
<path d="M1089.75 1740.78C1186.79 1751.69 1346.71 1692.04 1424.44 1630.03" fill="none" fill-rule="evenodd" opacity="1" stroke="#7b7b7b" stroke-linecap="round" stroke-linejoin="round" stroke-width="2.80468"/>
<path d="M990.56 1686.53C1080.08 1659.53 1420.14 1595.87 1464.34 1527.76" fill="none" fill-rule="evenodd" opacity="1" stroke="#7b7b7b" stroke-linecap="round" stroke-linejoin="round" stroke-width="2.80468"/>
<path d="M956.145 1661.61C956.689 1659.9 1327.54 1569.06 1370.27 1549.99C1381.15 1545.14 1480.64 1512.78 1476.95 1502.73" fill="none" fill-rule="evenodd" opacity="1" stroke="#7b7b7b" stroke-linecap="round" stroke-linejoin="round" stroke-width="2.80468"/>
<path d="M929.618 1644.91C1055.25 1598.81 1195.82 1593.85 1325.11 1559.61C1381.04 1544.79 1425.68 1504.62 1477.41 1485.64" fill="none" fill-rule="evenodd" opacity="1" stroke="#7b7b7b" stroke-linecap="round" stroke-linejoin="round" stroke-width="2.80468"/>
<path d="M1132.69 1781.42C1240.85 1791.25 1402.71 1738.21 1480.11 1660.82" fill="none" fill-rule="evenodd" opacity="1" stroke="#7b7b7b" stroke-linecap="round" stroke-linejoin="round" stroke-width="2.80468"/>
<path d="M1175.17 1832.82C1263.16 1807.68 1475.71 1782.68 1523.28 1687.54" fill="none" fill-rule="evenodd" opacity="1" stroke="#7b7b7b" stroke-linecap="round" stroke-linejoin="round" stroke-width="2.80468"/>
<path d="M1190.25 1868.45C1291.18 1868.45 1441.25 1829.98 1532.88 1784.16" fill="none" fill-rule="evenodd" opacity="1" stroke="#7b7b7b" stroke-linecap="round" stroke-linejoin="round" stroke-width="2.80468"/>
<path d="M1203.95 1903.4C1197.26 1910.09 1224.41 1908.47 1230.68 1908.19C1341.07 1903.39 1450.07 1814.31 1550.01 1814.31" fill="none" fill-rule="evenodd" opacity="1" stroke="#7b7b7b" stroke-linecap="round" stroke-linejoin="round" stroke-width="2.80468"/>
<path d="M1209.44 1939.72C1209.41 1939.72 1231.32 1942.8 1238.22 1943.14C1266.04 1944.53 1295.99 1932.99 1322.5 1926.01C1337.81 1921.98 1569.49 1842.6 1574.68 1858.17" fill="none" fill-rule="evenodd" opacity="1" stroke="#7b7b7b" stroke-linecap="round" stroke-linejoin="round" stroke-width="2.80468"/>
<path d="M1223.83 1969.87C1325.35 1969.87 1411.44 1924.04 1508.21 1914.36C1536.24 1911.56 1590.21 1928.52 1614.42 1916.42" fill="none" fill-rule="evenodd" opacity="1" stroke="#7b7b7b" stroke-linecap="round" stroke-linejoin="round" stroke-width="2.80468"/>
<path d="M1344.43 1985.63C1333.12 1989.4 1367.92 1981.36 1379.38 1978.09C1404.41 1970.94 1431.5 1962.87 1457.5 1960.27C1493.36 1956.69 1640.04 1997.7 1661.7 1976.03" fill="none" fill-rule="evenodd" opacity="1" stroke="#7b7b7b" stroke-linecap="round" stroke-linejoin="round" stroke-width="2.80468"/>
<path d="M1524.07 1753.95C1531.71 1747.73 1540.8 1768.93 1544.03 1774.1C1587.75 1844.02 1635.41 1918.55 1681.68 1984.16" fill="none" fill-rule="evenodd" opacity="1" stroke="#afafaf" stroke-linecap="round" stroke-linejoin="round" stroke-width="2.80468"/>
<path d="M1543.02 1721.41C1550.29 1797.69 1655.08 1899.67 1688.08 1974.2" fill="none" fill-rule="evenodd" opacity="1" stroke="#afafaf" stroke-linecap="round" stroke-linejoin="round" stroke-width="2.80468"/>
<path d="M1544.4 1693.88C1624.5 1724.81 1675.87 1895.18 1701.49 1967.57" fill="none" fill-rule="evenodd" opacity="1" stroke="#afafaf" stroke-linecap="round" stroke-linejoin="round" stroke-width="2.80468"/>
<path d="M1573.47 1676.4C1613.57 1691.89 1717.47 1885.73 1699.46 1932.35" fill="none" fill-rule="evenodd" opacity="1" stroke="#afafaf" stroke-linecap="round" stroke-linejoin="round" stroke-width="2.80468"/>
<path d="M1441.27 1621.52C1468.66 1588.36 1529.79 1498.68 1525.25 1451.13" fill="none" fill-rule="evenodd" opacity="1" stroke="#afafaf" stroke-linecap="round" stroke-linejoin="round" stroke-width="2.80468"/>
<path d="M1473.59 1631.14C1508.38 1609.39 1537.81 1540.75 1533.96 1500.41" fill="none" fill-rule="evenodd" opacity="1" stroke="#afafaf" stroke-linecap="round" stroke-linejoin="round" stroke-width="2.80468"/>
<path d="M1509.7 1652.42C1534.2 1658.06 1582.38 1572.37 1567.68 1566.7" fill="none" fill-rule="evenodd" opacity="1" stroke="#afafaf" stroke-linecap="round" stroke-linejoin="round" stroke-width="2.80468"/>
<path d="M1545.85 1667.01C1565.77 1654.55 1583.88 1629.14 1588.96 1605.4" fill="none" fill-rule="evenodd" opacity="1" stroke="#afafaf" stroke-linecap="round" stroke-linejoin="round" stroke-width="2.80468"/>
<path d="M1437.39 1615.88C1450.44 1559.31 1493.25 1495.18 1514.78 1439.43" fill="none" fill-rule="evenodd" opacity="1" stroke="#afafaf" stroke-linecap="round" stroke-linejoin="round" stroke-width="2.80468"/>
<path d="M1474.05 1630.71C1471.02 1630.18 1455.78 1647.81 1457.15 1648.82" fill="none" fill-rule="evenodd" opacity="1" stroke="#afafaf" stroke-linecap="round" stroke-linejoin="round" stroke-width="2.80468"/>
<path d="M1441.85 1621.19C1436.78 1622.72 1430 1638.23 1434.33 1635.18" fill="none" fill-rule="evenodd" opacity="1" stroke="#afafaf" stroke-linecap="round" stroke-linejoin="round" stroke-width="2.80468"/>
<path d="M1437.48 1615.71C1433.86 1620.62 1422.16 1633.67 1427.74 1631.2" fill="none" fill-rule="evenodd" opacity="1" stroke="#afafaf" stroke-linecap="round" stroke-linejoin="round" stroke-width="2.80468"/>
<path d="M1509.73 1652.55C1509.06 1652.06 1506.7 1652.84 1505.94 1652.98C1502.91 1653.56 1493.79 1659.27 1495.03 1663.4" fill="none" fill-rule="evenodd" opacity="1" stroke="#afafaf" stroke-linecap="round" stroke-linejoin="round" stroke-width="2.80468"/>
<path d="M1546.58 1666.6C1544.48 1666.95 1541.73 1671.3 1540.93 1673.21C1540.57 1674.05 1540.17 1674.87 1539.77 1675.67C1539.67 1675.86 1539.33 1676.83 1539.57 1676.57" fill="none" fill-rule="evenodd" opacity="1" stroke="#afafaf" stroke-linecap="round" stroke-linejoin="round" stroke-width="2.80468"/>
<path d="M1533.83 1500.25C1533.83 1500.21 1533.75 1499.73 1533.75 1499.72C1535.47 1493.88 1537.26 1488.06 1539.03 1482.24C1540.04 1478.89 1543 1476.48 1545.06 1473.65C1545.35 1473.24 1545.71 1472.89 1546.04 1472.52" fill="#3a3737" fill-rule="evenodd" opacity="1" stroke="#afafaf" stroke-linecap="round" stroke-linejoin="round" stroke-width="2.80468"/>
<path d="M1525.22 1450.94C1525.1 1450.6 1525.14 1450.85 1525.22 1450.44C1526.41 1443.81 1527.31 1437.11 1528.79 1430.53C1528.94 1429.85 1529.64 1429.44 1530.07 1428.89" fill="#3a3737" fill-rule="evenodd" opacity="1" stroke="#afafaf" stroke-linecap="round" stroke-linejoin="round" stroke-width="2.80468"/>
<path d="M1514.44 1439.74C1518.63 1435.55 1519.2 1428.84 1522.58 1423.97" fill="#3a3737" fill-rule="evenodd" opacity="1" stroke="#afafaf" stroke-linecap="round" stroke-linejoin="round" stroke-width="2.80468"/>
<path d="M1524.3 1753.39C1524.28 1753.44 1524.19 1753.68 1524.08 1753.65C1521.03 1752.58 1517.98 1751.52 1514.99 1750.3C1514.84 1750.23 1514.86 1750 1514.8 1749.85" fill="#3a3737" fill-rule="evenodd" opacity="1" stroke="#afafaf" stroke-linecap="round" stroke-linejoin="round" stroke-width="2.80468"/>
<path d="M1542.61 1721.66C1542.66 1721.51 1542.8 1721.21 1542.69 1721.05C1539.67 1716.91 1536.68 1712.75 1533.6 1708.65C1533.57 1708.6 1533.5 1708.69 1533.44 1708.71" fill="#3a3737" fill-rule="evenodd" opacity="1" stroke="#afafaf" stroke-linecap="round" stroke-linejoin="round" stroke-width="2.80468"/>
<path d="M1544.61 1693.68C1543.6 1693.55 1542.63 1693.18 1541.63 1692.96" fill="#3a3737" fill-rule="evenodd" opacity="1" stroke="#afafaf" stroke-linecap="round" stroke-linejoin="round" stroke-width="2.80468"/>
<path d="M1573.03 1676.34C1567.79 1675.6 1562.81 1673.89 1557.51 1673.12C1555.12 1672.78 1552.69 1673.07 1550.28 1673.05" fill="#3a3737" fill-rule="evenodd" opacity="1" stroke="#afafaf" stroke-linecap="round" stroke-linejoin="round" stroke-width="2.80468"/>
<path d="M1681.21 1983.49C1681.12 1983.75 1681.41 1983.65 1681.53 1983.83C1685.34 1989.66 1689.08 1995.54 1692.91 2001.35C1693.46 2002.18 1694.08 2002.96 1694.67 2003.77" fill="#3a3737" fill-rule="evenodd" opacity="1" stroke="#afafaf" stroke-linecap="round" stroke-linejoin="round" stroke-width="2.80468"/>
<path d="M1688.29 1973.58C1688.31 1973.75 1688.31 1973.78 1688.4 1974C1691.19 1980.62 1694 1987.23 1696.8 1993.85C1697.63 1995.8 1698.31 1997.86 1699.62 1999.54" fill="#3a3737" fill-rule="evenodd" opacity="1" stroke="#afafaf" stroke-linecap="round" stroke-linejoin="round" stroke-width="2.80468"/>
<path d="M1703.84 1974.75C1705.03 1978.14 1706.11 1981.57 1707.24 1984.98" fill="#3a3737" fill-rule="evenodd" opacity="1" stroke="#afafaf" stroke-linecap="round" stroke-linejoin="round" stroke-width="2.80468"/>
<path d="M1701.4 1966.73C1701.38 1966.86 1701.35 1966.92 1701.39 1967.06C1702.3 1969.72 1703.25 1972.37 1704.15 1975.04C1704.22 1975.26 1704.25 1975.49 1704.3 1975.72" fill="#3a3737" fill-rule="evenodd" opacity="1" stroke="#afafaf" stroke-linecap="round" stroke-linejoin="round" stroke-width="2.80468"/>
<path d="M1114.74 1778.16C1116.35 1777.93 1116.85 1779.21 1118.53 1779.52C1122.23 1780.19 1126.07 1779.88 1129.59 1780.52" fill="#3a3737" fill-rule="evenodd" opacity="1" stroke="#7e7e7e" stroke-linecap="round" stroke-linejoin="round" stroke-width="2.80468"/>
<path d="M1131.42 1781.52L1131.32 1781.17L1131.02 1780.95L1130.7 1780.89L1131.05 1780.78L1131.05 1780.78" fill="#3a3737" fill-rule="evenodd" opacity="1" stroke="#7e7e7e" stroke-linecap="round" stroke-linejoin="round" stroke-width="2.80468"/>
<path d="M1170.98 1834.2C1171.09 1833.65 1173.52 1832.79 1174.13 1832.62" fill="#3a3737" fill-rule="evenodd" opacity="1" stroke="#7e7e7e" stroke-linecap="round" stroke-linejoin="round" stroke-width="2.80468"/>
<path d="M1182.79 1869.14C1181.82 1868.95 1190.2 1868.48 1190.27 1868.39" fill="#3a3737" fill-rule="evenodd" opacity="1" stroke="#7e7e7e" stroke-linecap="round" stroke-linejoin="round" stroke-width="2.80468"/>
<path d="M1203.09 1906.09C1203.23 1905.39 1204.97 1902.73 1204.34 1902.03C1201.34 1898.71 1194.44 1902.95 1191.91 1904.65" fill="#3a3737" fill-rule="evenodd" opacity="1" stroke="#7e7e7e" stroke-linecap="round" stroke-linejoin="round" stroke-width="2.80468"/>
<path d="M1195.36 1937.98C1198.76 1938.73 1206.27 1940.04 1209.53 1939.22" fill="#3a3737" fill-rule="evenodd" opacity="1" stroke="#7e7e7e" stroke-linecap="round" stroke-linejoin="round" stroke-width="2.80468"/>
<path d="M1193.45 1969.03C1193.08 1968.95 1194.42 1969.18 1194.66 1969.21C1195.46 1969.28 1196.39 1969.45 1197.2 1969.41C1199.53 1969.29 1201.76 1969.34 1204.06 1969.84C1207.31 1970.56 1210.91 1969.58 1214.21 1969.48C1217.75 1969.38 1221.23 1969.87 1224.81 1969.49" fill="#3a3737" fill-rule="evenodd" opacity="1" stroke="#7e7e7e" stroke-linecap="round" stroke-linejoin="round" stroke-width="2.80468"/>
<path d="M951.854 1663.82C951.63 1663.83 951.037 1664.09 951.192 1663.93C952.954 1662.09 956.723 1661.61 958.949 1660.43" fill="#3a3737" fill-rule="evenodd" opacity="1" stroke="#7e7e7e" stroke-linecap="round" stroke-linejoin="round" stroke-width="2.80468"/>
<path d="M924.988 1643.2C926.955 1642.16 928.345 1644.67 929.772 1644.75C930.401 1644.78 932.024 1644.06 932.72 1643.85" fill="#3a3737" fill-rule="evenodd" opacity="1" stroke="#7e7e7e" stroke-linecap="round" stroke-linejoin="round" stroke-width="2.80468"/>
<path d="M906.468 1971.86C905.406 1971.86 906.174 1974.98 906.244 1975.89C906.57 1980.12 907.363 1984.53 907.363 1988.72" fill="#3a3737" fill-rule="evenodd" opacity="1" stroke="#7e7e7e" stroke-linecap="round" stroke-linejoin="round" stroke-width="2.80468"/>
<path d="M871.248 1973.87C870.905 1973.7 871.348 1974.47 871.398 1974.62C871.65 1975.37 871.776 1976.17 871.995 1976.93C872.578 1978.97 873.049 1981 873.562 1983.05C873.696 1983.59 874.308 1985.89 874.308 1985.44" fill="#3a3737" fill-rule="evenodd" opacity="1" stroke="#7e7e7e" stroke-linecap="round" stroke-linejoin="round" stroke-width="2.80468"/>
<path d="M938.553 1986.78C937.846 1986.78 939.001 1992.81 939.001 1994.17" fill="#3a3737" fill-rule="evenodd" opacity="1" stroke="#7e7e7e" stroke-linecap="round" stroke-linejoin="round" stroke-width="2.80468"/>
<path d="M982.383 1989.22C981.75 1990.18 984.088 1993.73 984.385 1994.83C984.602 1995.64 984.747 1996.28 985.195 1997C985.314 1997.19 985.493 1997.99 985.514 1997.8" fill="#3a3737" fill-rule="evenodd" opacity="1" stroke="#7e7e7e" stroke-linecap="round" stroke-linejoin="round" stroke-width="2.80468"/>
<path d="M1040.1 1994.2C1041.27 1996.53 1042.74 1999.09 1043.54 2001.5" fill="#3a3737" fill-rule="evenodd" opacity="1" stroke="#7e7e7e" stroke-linecap="round" stroke-linejoin="round" stroke-width="2.80468"/>
<path d="M1105.5 1998.47C1103.82 1999.31 1103.16 2002.11 1102.4 2003.63" fill="#3a3737" fill-rule="evenodd" opacity="1" stroke="#7e7e7e" stroke-linecap="round" stroke-linejoin="round" stroke-width="2.80468"/>
<path d="M1147.49 1999.08C1147.14 2000.01 1147 2001.19 1146.46 2002.01" fill="#3a3737" fill-rule="evenodd" opacity="1" stroke="#7e7e7e" stroke-linecap="round" stroke-linejoin="round" stroke-width="2.80468"/>
<path d="M1812.69 1986.86C1812.69 1986.86 1954.63 1514.9 1926.95 1378.63C1926.95 1378.63 1946.23 1546.98 2077.49 1552.18C2077.49 1552.18 2420.6 1608.07 2495.98 1624.96L2560.96 1643.16C2560.96 1643.16 2668.83 1826.41 2623.35 1960.27L1812.69 1986.86Z" fill="#332929" fill-rule="evenodd" opacity="1" stroke="none"/>
<path d="M1859.82 1984.9C1859.82 1984.9 1975.51 1761.24 2027.95 1736.05L1958.02 1667.67C1958.02 1667.67 2016.64 1610.6 2044.92 1604.94C2044.92 1604.94 1932.83 1465.6 1934.37 1391.56C1935.92 1317.52 1813.54 1979.76 1813.54 1986.45C1813.54 1986.45 1827.43 1995.19 1859.82 1984.9Z" fill="#3a3737" fill-rule="evenodd" opacity="1" stroke="none"/>
<path d="M2330.66 1832.3C2330.66 1832.3 2349.51 1936.96 2329.3 1968.82" fill="#3a3737" fill-rule="evenodd" opacity="1" stroke="none"/>
<path d="M2349.54 1794.45C2348.72 1794.77 2350.97 1802.35 2351.33 1803.89C2353.7 1813.97 2358.14 1823.7 2360.53 1833.87C2367.61 1863.9 2371.1 1895.35 2371.72 1925.97C2371.93 1936.15 2373.85 1946.35 2372.92 1956.55C2372.75 1958.46 2372.95 1965.16 2371.16 1965" fill="none" fill-rule="evenodd" opacity="1" stroke="#7b7b7b" stroke-linecap="round" stroke-linejoin="round" stroke-width="2.80468"/>
<path d="M2369.84 1767.81C2371.59 1781.36 2379.04 1796.69 2382.93 1809.73C2393.01 1843.52 2395.63 1878.12 2398.75 1912.85C2399.77 1924.28 2400.91 1935.5 2401.29 1946.86C2401.44 1951.11 2403.62 1958.8 2401.17 1962.75" fill="none" fill-rule="evenodd" opacity="1" stroke="#7b7b7b" stroke-linecap="round" stroke-linejoin="round" stroke-width="2.80468"/>
<path d="M2397.37 1738.18C2405.12 1752.45 2409.06 1769.22 2413.68 1784.7C2426.03 1826.07 2430.01 1867.89 2430.4 1910.75C2430.51 1922.26 2430.03 1934.17 2430.89 1945.57C2431.25 1950.43 2433.46 1957.39 2430.74 1961.79" fill="none" fill-rule="evenodd" opacity="1" stroke="#7b7b7b" stroke-linecap="round" stroke-linejoin="round" stroke-width="2.80468"/>
<path d="M2425.08 1706.57C2434.3 1730.14 2440.31 1755.62 2444.86 1780.57C2455.59 1839.38 2461.8 1896.83 2456.39 1956.5" fill="none" fill-rule="evenodd" opacity="1" stroke="#7b7b7b" stroke-linecap="round" stroke-linejoin="round" stroke-width="2.80468"/>
<path d="M2455.2 1688.44C2459.16 1691.63 2459.11 1700.57 2460.64 1705.16C2467.01 1724.25 2469.28 1743.77 2472.57 1763.55C2477.41 1792.67 2483.53 1822.2 2484.77 1851.76C2485.57 1870.79 2485.51 1889.92 2485.89 1908.83C2486.06 1917.4 2484.14 1925.95 2484.22 1934.51C2484.29 1942.35 2486.06 1950.74 2485.36 1958.47" fill="none" fill-rule="evenodd" opacity="1" stroke="#7b7b7b" stroke-linecap="round" stroke-linejoin="round" stroke-width="2.80468"/>
<path d="M2479.66 1670.79C2482.54 1672.57 2483.8 1679.88 2484.86 1682.85C2488.56 1693.26 2491.87 1703.86 2495.59 1714.3C2506.89 1746.06 2508.98 1778.69 2509.88 1812.31C2510.37 1830.79 2512.27 1849.35 2512.13 1867.82C2511.98 1888.07 2514.23 1909.57 2516.8 1929.52C2517.78 1937.08 2517.19 1943.49 2516.54 1950.69C2516.36 1952.66 2515.31 1960.1 2515.07 1959.5" fill="none" fill-rule="evenodd" opacity="1" stroke="#7b7b7b" stroke-linecap="round" stroke-linejoin="round" stroke-width="2.80468"/>
<path d="M2510.78 1656.39C2514.02 1657.81 2515.45 1668.97 2516.27 1672.45C2520.32 1689.65 2523.8 1706.19 2526.53 1723.73C2532.84 1764.28 2532.61 1805.31 2535.96 1846.14C2537.1 1860.09 2539.83 1873.94 2540.12 1887.92C2540.5 1906.78 2544.98 1927.1 2539.53 1945.49C2538.9 1947.63 2539.77 1950.43 2538.58 1952.36" fill="none" fill-rule="evenodd" opacity="1" stroke="#7b7b7b" stroke-linecap="round" stroke-linejoin="round" stroke-width="2.80468"/>
<path d="M2541.83 1649.93C2541.43 1654.42 2545.36 1663.54 2546.47 1668.24C2549.5 1681.14 2550.74 1694.83 2553.13 1707.92C2556.23 1724.88 2560.2 1742.06 2562.4 1759.11C2564.01 1771.59 2564.34 1784.59 2566.59 1796.92C2567.93 1804.25 2570.76 1811.21 2571.91 1818.6C2573.79 1830.68 2571.61 1843.51 2571.86 1855.69C2572.07 1866.28 2571.2 1876.85 2571.29 1887.43C2571.41 1900.2 2573.81 1912.74 2573.81 1925.42C2573.81 1933.55 2573.24 1942.49 2573.85 1950.59C2573.97 1952.26 2573.52 1954.19 2573.37 1955.85C2573.32 1956.4 2573.77 1957.54 2573.22 1957.49C2571.97 1957.38 2571.71 1955.42 2571.49 1954.69" fill="none" fill-rule="evenodd" opacity="1" stroke="#7b7b7b" stroke-linecap="round" stroke-linejoin="round" stroke-width="2.80468"/>
<path d="M2554.58 1651.75C2564.95 1670.83 2571.11 1693.56 2579.09 1713.92C2589.28 1739.97 2599.16 1764.97 2604.75 1792.43C2608.59 1811.24 2605.42 1832.56 2603.69 1851.62C2602.16 1868.51 2599.81 1886.61 2599.97 1903.61C2600.02 1909.39 2600.85 1915.82 2600.33 1921.53C2599.62 1929.31 2599.9 1937.24 2599.2 1944.94C2599.01 1947 2598.53 1957.52 2599.14 1956.53" fill="none" fill-rule="evenodd" opacity="1" stroke="#7b7b7b" stroke-linecap="round" stroke-linejoin="round" stroke-width="2.80468"/>
<path d="M2539.8 1949.82C2539.66 1951.39 2539.85 1956.93 2538.79 1957.35" fill="none" fill-rule="evenodd" opacity="1" stroke="#7b7b7b" stroke-linecap="round" stroke-linejoin="round" stroke-width="2.80468"/>
<path d="M2347.77 1794.73C2335.24 1792.45 2321.85 1793.81 2308.98 1792.78C2293.28 1791.51 2277.52 1789.73 2261.87 1787.95C2251.17 1786.73 2240.29 1788.06 2229.67 1787.2C2208.01 1785.46 2186.34 1783.73 2164.73 1781.18C2136.82 1777.88 2107.98 1772.19 2080.77 1765.57C2058.8 1760.22 2038.25 1750.69 2016.13 1746.66" fill="none" fill-rule="evenodd" opacity="1" stroke="#7b7b7b" stroke-linecap="round" stroke-linejoin="round" stroke-width="2.80468"/>
<path d="M2369.25 1768.34C2363.79 1764.24 2354.56 1764.75 2348.19 1762.47C2322.23 1753.13 2295.19 1751.08 2268.46 1744.22C2228.53 1733.97 2188.81 1724.02 2147.69 1719.53C2118.47 1716.35 2088.4 1719.02 2059.23 1717.4C2045.69 1716.65 2031.89 1713.48 2018.38 1713.71C2014.32 1713.78 2009.15 1711.88 2005.23 1713.02" fill="none" fill-rule="evenodd" opacity="1" stroke="#7b7b7b" stroke-linecap="round" stroke-linejoin="round" stroke-width="2.80468"/>
<path d="M2397.29 1737.7C2391.7 1736.68 2384.31 1737.27 2378.63 1737.37C2370.88 1737.5 2362.17 1734.71 2354.52 1733.32C2339.05 1730.51 2323.36 1728.13 2308.3 1723.55C2275.44 1713.58 2243.28 1703.94 2209.81 1696.11C2189.62 1691.39 2170.25 1683.85 2149.52 1681.4C2118.58 1677.75 2087.65 1675.86 2056.69 1673.37C2043.07 1672.27 2029.47 1669.87 2015.89 1669.35C2002.53 1668.84 1989.04 1663.45 1976.21 1661.11" fill="none" fill-rule="evenodd" opacity="1" stroke="#7b7b7b" stroke-linecap="round" stroke-linejoin="round" stroke-width="2.80468"/>
<path d="M2425.12 1706.34C2417 1704.86 2407.8 1710.47 2399.24 1710.14C2387.72 1709.7 2375.77 1707.38 2364.46 1704.84C2318.25 1694.43 2272.99 1680.66 2227.76 1666.7C2190.48 1655.19 2151.66 1647.75 2113.33 1640.78C2088.78 1636.32 2064.37 1631.54 2039.92 1627.09C2037.68 1626.68 2018.91 1622.9 2018.89 1622.92" fill="none" fill-rule="evenodd" opacity="1" stroke="#7b7b7b" stroke-linecap="round" stroke-linejoin="round" stroke-width="2.80468"/>
<path d="M2455.42 1686.78C2425.94 1679.9 2394.76 1676.75 2365.55 1666.77C2319.49 1651.04 2274.38 1630.17 2226.42 1620.76C2163.84 1608.48 2099.29 1606.54 2037.76 1592.16" fill="none" fill-rule="evenodd" opacity="1" stroke="#7b7b7b" stroke-linecap="round" stroke-linejoin="round" stroke-width="2.80468"/>
<path d="M2478.26 1669.39C2472.56 1664.66 2454.94 1660.57 2447.34 1657.88C2411.97 1645.36 2374.63 1638.26 2337.98 1629.7C2312.79 1623.81 2287.4 1617.17 2262.51 1610.09C2248.42 1606.08 2233.76 1604.38 2219.65 1600.4C2201.71 1595.34 2183.22 1590.22 2164.82 1586.93C2150.42 1584.36 2135.84 1581.77 2121.37 1579.75C2103.51 1577.25 2086.27 1570.49 2068.36 1568.35C2052.28 1566.43 2035.85 1564.71 2020.01 1561.01" fill="none" fill-rule="evenodd" opacity="1" stroke="#7b7b7b" stroke-linecap="round" stroke-linejoin="round" stroke-width="2.80468"/>
<path d="M2511.59 1656.42C2507.21 1652.79 2495.59 1651.7 2490.09 1649.75C2476.32 1644.88 2462.84 1638.96 2448.92 1634.21C2431.6 1628.29 2413.04 1625.73 2395.42 1620.72C2363.73 1611.7 2333.07 1604.7 2300.7 1598.92C2282.96 1595.74 2265.8 1589.08 2247.91 1586.58C2236.59 1585 2225.26 1584.08 2213.93 1582.6C2193.06 1579.87 2172.17 1573.24 2151.2 1571.89C2130.17 1570.54 2109.27 1565.12 2088.21 1563.76C2077.11 1563.05 2066.71 1557.33 2055.73 1556.17C2037.61 1554.26 2017.15 1549 2001.94 1539.65" fill="none" fill-rule="evenodd" opacity="1" stroke="#7b7b7b" stroke-linecap="round" stroke-linejoin="round" stroke-width="2.80468"/>
<path d="M2539.01 1648.59C2539.89 1647.53 2528.44 1644.46 2525.98 1643.5C2511.83 1638.03 2496.34 1636.46 2481.89 1631.82C2469.96 1627.99 2457.8 1624.51 2446.13 1619.99C2438.32 1616.97 2426.71 1614.95 2418.54 1615.09C2414.33 1615.16 2409.12 1612.91 2405.04 1611.97C2393.27 1609.24 2381.96 1606.03 2370.04 1603.27" fill="none" fill-rule="evenodd" opacity="1" stroke="#7b7b7b" stroke-linecap="round" stroke-linejoin="round" stroke-width="2.80468"/>
<path d="M2553.83 1651.13C2545.95 1644.62 2520.02 1631.15 2509.25 1631.34" fill="none" fill-rule="evenodd" opacity="1" stroke="#7b7b7b" stroke-linecap="round" stroke-linejoin="round" stroke-width="2.80468"/>
<path d="M1991.97 1775.73C1990.31 1775.73 1994.63 1775.67 1995.25 1775.73C1998.11 1776.02 2001.18 1776.58 2003.8 1777.7C2011.6 1781.04 2018.76 1784.64 2027.15 1786.58C2052.16 1792.35 2076.7 1798.79 2102.11 1803.02C2117.25 1805.54 2132.83 1807.05 2148.14 1807.95C2170.4 1809.26 2192.85 1813.53 2215.21 1815.18C2253.58 1818.03 2292.35 1817.16 2330.62 1817.16" fill="none" fill-rule="evenodd" opacity="1" stroke="#7b7b7b" stroke-linecap="round" stroke-linejoin="round" stroke-width="2.80468"/>
<path d="M1970 1808.15C1969.75 1807.98 1968.31 1807.46 1968.64 1806.96C1969.11 1806.27 1975.14 1807.56 1976.11 1807.69C1984.36 1808.76 1992.18 1810.76 2000.09 1813.34C2019.12 1819.54 2039.98 1823.11 2059.48 1827.89C2077.18 1832.23 2095.12 1833.9 2113 1837.15C2155.64 1844.89 2200.17 1851.75 2243.48 1853.91C2254.17 1854.45 2265.89 1856.74 2276.53 1855.7C2283.85 1854.99 2291.04 1853.4 2298.36 1852.75C2304.58 1852.19 2310.79 1850.04 2316.92 1849.62C2318.74 1849.5 2325.66 1847.74 2324.26 1847.55" fill="none" fill-rule="evenodd" opacity="1" stroke="#7b7b7b" stroke-linecap="round" stroke-linejoin="round" stroke-width="2.80468"/>
<path d="M1953.58 1832.22C1953.2 1831.21 1964.89 1834.71 1966.64 1835.41C1974.5 1838.58 1982.71 1841.11 1990.69 1844.02C2013.71 1852.4 2040.66 1853.82 2064.89 1856.36C2117.61 1861.88 2170.39 1868.02 2223.21 1873.55C2255.54 1876.94 2294.82 1883.1 2325.07 1871.74" fill="none" fill-rule="evenodd" opacity="1" stroke="#7b7b7b" stroke-linecap="round" stroke-linejoin="round" stroke-width="2.80468"/>
<path d="M1936.01 1863.48C1937.08 1861.8 1954.83 1867.18 1957.93 1867.85C1983.45 1873.37 2009.14 1879.2 2034.86 1884.23C2083.56 1893.75 2132.42 1899.1 2181.87 1904.19C2230.12 1909.15 2277.56 1913.94 2324.65 1903.45" fill="none" fill-rule="evenodd" opacity="1" stroke="#7b7b7b" stroke-linecap="round" stroke-linejoin="round" stroke-width="2.80468"/>
<path d="M1916.77 1894.76C1916.93 1893.19 1917.94 1893.67 1919.28 1893.81C1928.18 1894.72 1937.6 1893.82 1946.27 1895.98C1983.42 1905.24 2021.94 1909.02 2059.7 1916.11C2087.47 1921.33 2116.51 1922.56 2144.61 1925.45C2175.32 1928.61 2206.18 1931.74 2237 1932.53C2246.51 1932.78 2255.97 1935.04 2265.46 1935.16C2278.5 1935.31 2291.42 1932.21 2304.29 1930.99C2310.53 1930.39 2318.2 1926.67 2324.32 1927.3" fill="none" fill-rule="evenodd" opacity="1" stroke="#7b7b7b" stroke-linecap="round" stroke-linejoin="round" stroke-width="2.80468"/>
<path d="M1895.36 1929.45C1895.8 1925.21 1915.76 1927.02 1918.89 1927.03C1944.72 1927.1 1969.4 1930.41 1995.07 1933.05C2077.42 1941.52 2159.7 1952.79 2242.25 1952.12C2263.26 1951.95 2283.99 1953.51 2304.82 1952.21C2309.85 1951.89 2319.31 1952.98 2322.49 1947.98" fill="none" fill-rule="evenodd" opacity="1" stroke="#7b7b7b" stroke-linecap="round" stroke-linejoin="round" stroke-width="2.80468"/>
<path d="M1880.48 1962.38C1890.8 1956.94 1905.45 1958.74 1916.68 1957.34C1942.76 1954.08 1968.85 1953.65 1994.99 1951.48C2002.8 1950.83 2010.46 1951.26 2018.27 1951.46C2053.09 1952.35 2087.48 1948.99 2122.11 1956.09C2133.95 1958.52 2146.38 1958.09 2158.25 1960.41C2171.83 1963.07 2188.66 1965.81 2202.5 1965.27C2227.58 1964.28 2253.09 1967.26 2278.24 1966.71C2286.54 1966.52 2295.73 1965.36 2303.92 1963.9C2308.54 1963.08 2313.12 1960.32 2317.85 1960.8" fill="none" fill-rule="evenodd" opacity="1" stroke="#7b7b7b" stroke-linecap="round" stroke-linejoin="round" stroke-width="2.80468"/>
<path d="M2017.74 1731.24C2018.07 1730.73 2011.3 1734.61 2009.76 1736.22C2005.14 1741.08 1999.12 1745.47 1994.06 1750.27C1978.99 1764.57 1962.33 1776.72 1948.79 1792.64C1921.73 1824.45 1897.85 1855.22 1878.98 1892.76C1872.92 1904.83 1866.95 1915.44 1863.31 1928.63C1860.94 1937.21 1850.72 1972.56 1853.82 1981.12" fill="none" fill-rule="evenodd" opacity="1" stroke="#b1b1b1" stroke-linecap="round" stroke-linejoin="round" stroke-width="2.80468"/>
<path d="M2011.22 1723.82C2007.39 1721.31 2000.21 1728.05 1997.19 1729.94C1985.22 1737.4 1974.42 1745.27 1963.3 1754.05C1946.26 1767.51 1924.78 1780.39 1911.89 1798.29C1903.81 1809.52 1894.12 1819.65 1886.91 1831.58C1874.91 1851.43 1866.38 1872.15 1859.23 1894.14C1853.71 1911.12 1852.87 1929.08 1847.95 1946.05C1847.16 1948.78 1844.42 1973.41 1845.66 1974.98C1845.83 1975.2 1846.18 1974.8 1846.44 1974.7" fill="none" fill-rule="evenodd" opacity="1" stroke="#b1b1b1" stroke-linecap="round" stroke-linejoin="round" stroke-width="2.80468"/>
<path d="M1989.25 1703.13C1982.95 1702.39 1975.71 1708.77 1970.82 1712.05C1958.57 1720.29 1946.64 1730.05 1936.75 1740.95C1932.43 1745.7 1927.19 1749.58 1922.63 1754.08C1899.82 1776.6 1881.39 1805.65 1869.13 1835.04C1862.16 1851.74 1860.16 1870.73 1855.86 1888.2C1850.87 1908.47 1845.38 1930.16 1842.94 1951C1842.45 1955.11 1839.23 1982.37 1841.57 1981.53" fill="none" fill-rule="evenodd" opacity="1" stroke="#b1b1b1" stroke-linecap="round" stroke-linejoin="round" stroke-width="2.80468"/>
<path d="M1964.17 1680.59C1965.16 1679.08 1958.29 1683.06 1957.09 1684.19C1952.67 1688.38 1948.1 1692.3 1943.8 1696.68C1932.58 1708.06 1922.32 1719 1912.36 1731.43C1907.09 1738 1903.66 1746.09 1899.45 1753.2C1886.11 1775.69 1871.4 1797.86 1862.11 1822.39C1854.47 1842.57 1851.03 1863.98 1845.91 1884.81C1841.43 1902.98 1839.02 1922.6 1838.9 1941.29C1838.86 1948.13 1837.18 1954.94 1837.23 1961.79C1837.24 1963.46 1835.65 1969.99 1837.15 1968.81" fill="none" fill-rule="evenodd" opacity="1" stroke="#b1b1b1" stroke-linecap="round" stroke-linejoin="round" stroke-width="2.80468"/>
<path d="M1824.71 1974C1822.19 1967.03 1826.67 1955.72 1826.61 1948.35C1826.46 1927.84 1832.62 1909.82 1837.11 1890.43C1850.11 1834.33 1864.22 1784.57 1891.51 1732.68C1904.47 1708.03 1925.28 1689.28 1940.34 1666.32" fill="none" fill-rule="evenodd" opacity="1" stroke="#b1b1b1" stroke-linecap="round" stroke-linejoin="round" stroke-width="2.80468"/>
<path d="M1843.73 1837.23C1851.02 1775.17 1878.2 1720.04 1907.45 1666.16C1910.44 1660.66 1916.43 1656.36 1919.96 1650.99" fill="none" fill-rule="evenodd" opacity="1" stroke="#b1b1b1" stroke-linecap="round" stroke-linejoin="round" stroke-width="2.80468"/>
<path d="M1853.01 1774L1852.56 1774.68L1852.43 1775.78L1852.26 1777.24L1852.17 1777.96L1852.37 1779.47L1852.28 1780.2L1852.28 1780.2" fill="none" fill-rule="evenodd" opacity="1" stroke="#b1b1b1" stroke-linecap="round" stroke-linejoin="round" stroke-width="2.80468"/>
<path d="M1851.98 1782.75C1860.33 1746.37 1870.86 1711.51 1884.03 1676.72C1888.13 1665.88 1894.38 1645.05 1905.03 1639.63" fill="none" fill-rule="evenodd" opacity="1" stroke="#b1b1b1" stroke-linecap="round" stroke-linejoin="round" stroke-width="2.80468"/>
<path d="M1937.86 1445.6C1933.11 1442.52 1943.3 1462.3 1943.7 1463.25C1948.75 1475.17 1953.49 1487.17 1958.55 1499.13C1971.54 1529.83 1987.44 1557.7 2007.35 1584.23C2009.57 1587.19 2023.72 1606.98 2026.97 1606.76" fill="none" fill-rule="evenodd" opacity="1" stroke="#b1b1b1" stroke-linecap="round" stroke-linejoin="round" stroke-width="2.80468"/>
<path d="M1924.43 1457.39C1927.25 1470.53 1932.9 1484.14 1937.22 1496.95C1945.83 1522.44 1955.7 1546.73 1969.45 1570.04C1976.19 1581.47 1983.02 1593.05 1989.75 1604.46C1991.79 1607.91 2003.23 1618.66 2003.2 1618.32" fill="none" fill-rule="evenodd" opacity="1" stroke="#b1b1b1" stroke-linecap="round" stroke-linejoin="round" stroke-width="2.80468"/>
<path d="M1916.43 1500.43C1917.16 1510.9 1923.02 1523.55 1926.73 1533.37C1937.05 1560.72 1949.32 1583.91 1966.47 1607.3C1968.59 1610.18 1986.91 1632.89 1990.9 1632.61" fill="none" fill-rule="evenodd" opacity="1" stroke="#b1b1b1" stroke-linecap="round" stroke-linejoin="round" stroke-width="2.80468"/>
<path d="M1909.44 1532.68C1911.43 1541.96 1916.43 1549.99 1920.46 1558.51C1928.86 1576.23 1937.6 1593.89 1948.75 1610.02C1954.13 1617.82 1959.5 1625.51 1965.4 1632.89C1967.05 1634.94 1975.87 1643.48 1974.22 1640.69" fill="none" fill-rule="evenodd" opacity="1" stroke="#b1b1b1" stroke-linecap="round" stroke-linejoin="round" stroke-width="2.80468"/>
<path d="M1893.77 1572.85C1905.88 1593.38 1922.74 1609.32 1937.61 1627.49C1942.68 1633.69 1949.06 1640.87 1955.44 1645.8C1956.79 1646.84 1963.2 1653.03 1963.35 1650.27" fill="none" fill-rule="evenodd" opacity="1" stroke="#b1b1b1" stroke-linecap="round" stroke-linejoin="round" stroke-width="2.80468"/>
<path d="M1884.48 1593.45C1883.51 1591.8 1887.6 1599.55 1888.27 1601.06C1891 1607.23 1895.73 1612.11 1899.73 1617.5C1908.75 1629.67 1927.75 1649.88 1942.02 1655.82C1944.45 1656.83 1952.52 1663.34 1954.8 1661.99" fill="none" fill-rule="evenodd" opacity="1" stroke="#b1b1b1" stroke-linecap="round" stroke-linejoin="round" stroke-width="2.80468"/>
<path d="M1724.51 1638.28C1724.51 1638.28 1689.34 1674.24 1701.68 1697.58" fill="#ffffff" fill-rule="evenodd" opacity="1" stroke="none"/>
<path d="M1727.02 1630.7C1727.02 1630.7 1691.49 1682.12 1705.23 1712.93C1705.23 1712.93 1739.71 1732.03 1753.81 1747.38C1753.81 1747.38 1806.19 1741.48 1816.78 1765.34C1816.78 1765.34 1867.58 1739.81 1824.25 1642.3L1727.02 1630.7Z" fill="#ece4e7" fill-rule="evenodd" opacity="1" stroke="none"/>
<path d="M1754.9 1743.26C1754.9 1743.26 1717.38 1997.68 1700.29 2003.23C1700.29 2003.23 1754.54 2049.44 1815.23 1988.81L1821.96 1943.12C1821.96 1943.12 1798.93 1809.8 1818.86 1755.85C1838.79 1701.91 1805.34 1730.44 1805.34 1730.44L1776.75 1724.59L1754.9 1743.26Z" fill="#ece4e7" fill-rule="evenodd" opacity="1" stroke="none"/>
<path d="M1774.18 1752.35C1774.18 1752.35 1801.16 1763.14 1810.12 1757.27C1819.07 1751.4 1774.18 1752.35 1774.18 1752.35Z" fill="#ece4e7" fill-rule="evenodd" opacity="1" stroke="none"/>
<path d="M1763.1 1749.1C1763.1 1749.1 1790.45 1779.23 1813.46 1761.44C1813.46 1761.44 1794.43 1772.3 1763.1 1749.1Z" fill="#d2c6cb" fill-rule="evenodd" opacity="1" stroke="none"/>
<path d="M1705 1678.86C1705 1678.86 1701.18 1694.79 1705.33 1713.05C1705.33 1713.05 1698.03 1712.05 1693.88 1724C1693.88 1724 1698.86 1697.45 1705 1678.86Z" fill="#dedede" fill-rule="evenodd" opacity="1" stroke="none"/>
<path d="M1693.58 1723.48C1693.58 1723.48 1658.89 1701.9 1653.57 1695.54" fill="#dedede" fill-rule="evenodd" opacity="1" stroke="none"/>
<path d="M1841 1697.52C1841 1697.52 1843.1 1741.18 1839.12 1754.38C1839.12 1754.38 1837.5 1744.91 1836.59 1741.07C1836.59 1741.07 1841.94 1725.25 1841 1697.52Z" fill="#dedede" fill-rule="evenodd" opacity="1" stroke="none"/>
<path d="M1622.17 1659.08C1622.17 1659.08 1579.59 1576.71 1571.84 1542.68" fill="#dedede" fill-rule="evenodd" opacity="1" stroke="none"/>
<path d="M1715.12 2012.78C1715.12 2012.78 1692.21 2015.51 1693.57 2005.41C1694.94 1995.32 1714.85 1960.14 1713.76 1952.23C1713.76 1952.23 1750.85 1750.41 1751.94 1743.6L1754.38 1747.65L1720.22 1958.71C1720.22 1958.71 1700.87 2004.26 1715.12 2012.78Z" fill="#c4bdbf" fill-rule="evenodd" opacity="1" stroke="none"/>
</g>
<g id="Layer-1" vectornator:layerName="Layer 1">
<path d="M1898.22 1436.48C1898.22 1436.48 1933.4 1484.33 1928.25 1558.64C1928.25 1558.64 1890.93 1682.79 1742.51 1634.02C1742.51 1634.02 1636.12 1603.36 1607.38 1397.13L1898.22 1436.48Z" fill="#f3c9b7" fill-rule="evenodd" opacity="1" stroke="none"/>
<path d="M1765.5 1481.69C1765.5 1481.69 1798.29 1485.42 1811.13 1538.24C1811.13 1538.24 1834.09 1626.76 1815.41 1643.35C1815.41 1643.35 1728.31 1681.25 1662.28 1561.4C1662.28 1561.4 1601.45 1481.25 1614.34 1385.56L1765.5 1481.69Z" fill="#d4a48f" fill-rule="evenodd" opacity="1" stroke="none"/>
<path d="M1968.96 1250.73L2018.21 1178.64C2018.21 1178.64 2049.08 1041.74 2066.72 1028.63C2084.37 1015.52 2115.24 717.699 2115.97 671.823C2116.71 625.948 2116.71 534.197 2110.09 515.992C2110.09 515.992 2037.02 387.31 1780.38 403.67C1523.73 420.029 1498.34 479.746 1498.34 479.746C1498.34 479.746 1283.02 516.457 1301.54 915.476C1320.07 1314.49 1499.89 1280.71 1499.89 1280.71L1594.21 1351.61L1774.39 1514.08L1897.39 1447.63L1968.96 1250.73Z" fill="#f3c9b7" fill-rule="evenodd" opacity="1" stroke="none"/>
<path d="M1583.54 626.464C1583.54 626.464 1876.44 733.901 1736.26 1032.82L1732.57 1075.21L1751.02 1243.31C1751.02 1243.31 1734.05 1276.2 1742.9 1298.13C1742.9 1298.13 1769.46 1322.25 1764.3 1359.52C1764.3 1359.52 1695.68 1406.29 1784.22 1490.34C1784.22 1490.34 1682.4 1523.96 1632.23 1454.53C1582.06 1385.1 1540.75 1353.67 1540.75 1353.67C1540.75 1353.67 1483.94 1295.93 1434.51 1282.05C1434.51 1282.05 1214.64 1086.91 1292.85 866.918C1292.85 866.918 1357.77 642.543 1583.54 626.464Z" fill="#d4a48f" fill-rule="evenodd" opacity="1" stroke="none"/>
<path d="M1583.54 626.464C1583.54 626.464 1876.44 733.901 1736.26 1032.82L1732.57 1075.21L1751.02 1243.31C1751.02 1243.31 1734.05 1276.2 1742.9 1298.13C1742.9 1298.13 1769.46 1322.25 1764.3 1359.52C1764.3 1359.52 1695.68 1406.29 1784.22 1490.34C1784.22 1490.34 1682.4 1523.96 1632.23 1454.53C1582.06 1385.1 1540.75 1353.67 1540.75 1353.67C1540.75 1353.67 1483.94 1295.93 1434.51 1282.05C1434.51 1282.05 1214.64 1086.91 1292.85 866.918C1292.85 866.918 1357.77 642.543 1583.54 626.464Z" fill="#d4a48f" fill-rule="evenodd" opacity="1" stroke="none"/>
<path d="M1465.15 1056.07C1465.15 1056.07 1463.7 1232.29 1594.35 1203.63C1594.35 1203.63 1736.57 1100.48 1743.8 1114.81C1743.8 1114.81 1749.58 1073.26 1719.21 1058.45C1719.21 1058.45 1671.48 1036.01 1607.36 1039.83C1607.36 1039.83 1535.05 1025.98 1465.15 1056.07Z" fill="#af8d7e" fill-rule="evenodd" opacity="1" stroke="none"/>
<path d="M1734.58 1073.25C1734.58 1073.25 1792.31 986.59 1946.11 1052.65C1946.11 1052.65 2006.35 1153.16 1893.41 1191.16C1893.41 1191.16 1806.65 1177.67 1751.79 1123.68L1736.02 1092.07L1734.58 1073.25Z" fill="#d4a48f" fill-rule="evenodd" opacity="1" stroke="none"/>
<path d="M1474.2 1027.97C1474.2 1027.97 1438.1 1049.39 1459.47 1054.66C1459.47 1054.66 1634.91 1050.89 1673.28 1071.67L1702.1 1057.25L1692.36 1042.53C1692.36 1042.53 1520.22 1008.6 1474.2 1027.97Z" fill="#000000" fill-rule="evenodd" opacity="1" stroke="none"/>
<path d="M1757.06 1042.17L1742.67 1064.21L1772.4 1071.21C1772.4 1071.21 1886.62 1029.71 1939.89 1052.36C1939.89 1052.36 1999.14 1043 1966.43 1019.72C1966.43 1019.72 1926.39 986.884 1757.06 1042.17Z" fill="#000000" fill-rule="evenodd" opacity="1" stroke="none"/>
<path d="M1678.23 761.494L1720.64 726.199C1720.64 726.199 1659 620.314 1576.43 527.875L1401.67 585.58L1348.51 810.795L1678.23 761.494Z" fill="#d4a48f" fill-rule="evenodd" opacity="1" stroke="none"/>
<path d="M1734.18 1069.66L1754.32 1244.25C1754.32 1244.25 1874.46 1277.03 1790.29 1299.83C1790.29 1299.83 1755.04 1331.19 1742.1 1298.41C1742.1 1298.41 1655.05 1339.02 1695.34 1262.06" fill="none" fill-rule="evenodd" opacity="1" stroke="#b0836e" stroke-linecap="butt" stroke-linejoin="round" stroke-width="24.7718"/>
<path d="M1671.46 1399.26C1671.46 1399.26 1725.77 1389.07 1733.3 1383.31C1733.3 1383.31 1752.27 1391.94 1759.8 1385.93C1759.8 1385.93 1778.45 1391.26 1801.07 1392.98C1805.41 1393.31 1809.91 1393.51 1814.44 1393.51C1814.44 1393.51 1800.05 1419.4 1677.67 1399" fill="#a0786e" fill-rule="evenodd" opacity="1" stroke="none"/>
<path d="M1764.24 1338.48C1764.24 1338.48 1816.84 1314.35 1860.6 1352.81C1860.6 1352.81 1871.9 1439.88 1870.84 1458.41L1830.25 1465.75C1830.25 1465.75 1858.84 1389.53 1810.84 1380.44C1810.84 1380.44 1754.01 1384.63 1753.3 1369.6C1752.6 1354.56 1751.89 1343.72 1764.24 1338.48Z" fill="#e9e7e5" fill-rule="evenodd" opacity="1" stroke="none"/>
<path d="M1750.96 1339.03C1750.96 1339.03 1653.62 1301.61 1631.99 1441.25L1626.59 1473.66L1632.36 1441.25C1632.36 1441.25 1688.23 1363.33 1759.97 1376.06C1759.97 1376.06 1768.26 1355.23 1750.96 1339.03Z" fill="#bfbcba" fill-rule="evenodd" opacity="1" stroke="none"/>
<path d="M1282.61 923.091C1282.61 923.091 1267.83 641.373 1580.66 630.498L1563.9 723.466L1568.9 776.505L1526.62 825.352L1282.61 923.091Z" fill="#d4a48f" fill-rule="evenodd" opacity="1" stroke="none"/>
<path d="M1583.5 991.088C1620.98 972.58 1476.87 985.944 1435.72 1013.99" fill="none" fill-rule="evenodd" opacity="1" stroke="#b0836e" stroke-linecap="butt" stroke-linejoin="round" stroke-width="24.7718"/>
<path d="M1434.16 960.936C1434.16 960.936 1495.66 947.337 1520.41 932.406" fill="none" fill-rule="evenodd" opacity="1" stroke="#b0836e" stroke-linecap="butt" stroke-linejoin="round" stroke-width="24.7718"/>
<path d="M1851.01 983.476C1851.01 983.476 2001.53 996.211 2017.06 1008.42" fill="none" fill-rule="evenodd" opacity="1" stroke="#b0836e" stroke-linecap="butt" stroke-linejoin="round" stroke-width="24.7718"/>
<path d="M1897.61 935.719C1897.61 935.719 1999.92 968.088 2049.74 952.169" fill="none" fill-rule="evenodd" opacity="1" stroke="#b0836e" stroke-linecap="butt" stroke-linejoin="round" stroke-width="24.7718"/>
<path d="M1547.51 1113.11C1547.51 1111.72 1549.87 1109.88 1551.18 1109.96C1579.35 1111.7 1607.47 1114.16 1635.61 1116.26" fill="#af8d7e" fill-rule="evenodd" opacity="1" stroke="none"/>
<path d="M1555.8 1097.58C1555.8 1097.58 1627.4 1093.17 1638.46 1103.12C1638.46 1103.12 1604.72 1045.63 1555.8 1097.58Z" fill="#d4a48f" fill-rule="evenodd" opacity="1" stroke="none"/>
<path d="M1585.04 1086.67C1585.04 1086.67 1611.55 1085.04 1634.8 1086C1649.76 1086.62 1663.37 1088.32 1667.7 1092.21C1667.7 1092.21 1633.96 1034.73 1585.04 1086.67Z" fill="#af8d7e" fill-rule="evenodd" opacity="1" stroke="none"/>
<path d="M1555.13 1095.18C1555.13 1095.18 1584.04 1093.54 1609.4 1094.5C1625.72 1095.12 1640.57 1096.82 1645.3 1100.71C1645.3 1100.71 1608.49 1043.23 1555.13 1095.18Z" fill="#af8d7e" fill-rule="evenodd" opacity="1" stroke="none"/>
<path d="M1553.71 1100.61C1553.71 1100.61 1582.62 1098.97 1607.98 1099.94C1624.3 1100.55 1639.15 1102.25 1643.87 1106.15C1643.87 1106.15 1607.07 1048.66 1553.71 1100.61Z" fill="#af8d7e" fill-rule="evenodd" opacity="1" stroke="none"/>
<path d="M1553.48 1098.94C1553.48 1098.94 1582.46 1096.81 1607.89 1098.07C1624.25 1098.87 1639.14 1101.08 1643.87 1106.15C1643.87 1106.15 1606.97 1031.35 1553.48 1098.94Z" fill="#af8d7e" fill-rule="evenodd" opacity="1" stroke="none"/>
<path d="M1804.81 1105.16C1804.81 1105.16 1876.42 1100.75 1887.48 1110.7C1887.48 1110.7 1853.73 1053.22 1804.81 1105.16Z" fill="#d4a48f" fill-rule="evenodd" opacity="1" stroke="none"/>
<path d="M1303.94 1033.98C1303.94 1033.98 1197.94 973.736 1224.72 1115.22C1224.72 1115.22 1338.53 1244.54 1343.55 1297.59C1343.55 1297.59 1386.51 1395.41 1405.47 1245.09L1381.48 1093.11L1307.28 1043.37L1303.94 1033.98Z" fill="#d4a48f" fill-rule="evenodd" opacity="1" stroke="none"/>
<path d="M1306.32 1072.8C1306.32 1072.8 1342.3 1173.17 1381.18 1213.95C1381.18 1213.95 1303.42 1097.56 1310.76 1054.3C1318.1 1011.03 1306.32 1072.8 1306.32 1072.8Z" fill="#d4a48f" fill-rule="evenodd" opacity="1" stroke="none"/>
<path d="M1298.33 1057.37C1298.33 1057.37 1341.18 1183.78 1383.38 1218.38C1383.38 1218.38 1324.84 1121.62 1298.33 1057.37Z" fill="#af8d7e" fill-rule="evenodd" opacity="1" stroke="none"/>
<path d="M1251.12 1107.94C1251.12 1107.94 1238.7 1029.31 1286.42 1059.9C1286.42 1059.9 1259.27 1098.72 1250.82 1127.06" fill="#af8d7e" fill-rule="evenodd" opacity="1" stroke="none"/>
<path d="M1313.37 1201.53L1352.96 1260.1C1352.96 1260.1 1358.78 1233.42 1376.25 1251.29L1358.94 1198.51C1358.94 1198.51 1385.3 1296.53 1313.37 1201.53Z" fill="#af8d7e" fill-rule="evenodd" opacity="1" stroke="none"/>
<path d="M1265.57 1140.4C1265.57 1140.4 1307.36 1180.57 1311.72 1201.46" fill="#af8d7e" fill-rule="evenodd" opacity="1" stroke="none"/>
<path d="M1294.95 1145.64C1294.95 1145.64 1281.35 1093.7 1311.41 1122.08C1311.41 1122.08 1292.75 1119.45 1294.95 1145.64Z" fill="#af8d7e" fill-rule="evenodd" opacity="1" stroke="none"/>
<path d="M1400.97 717.205C1400.97 717.205 1345.77 968.278 1301.69 1028.63C1301.69 1028.63 1272.7 1059.21 1267.53 969.888C1267.53 969.888 1255.62 627.881 1366.42 550.628C1366.42 550.628 1440.68 468.546 1460.94 577.988C1460.94 577.988 1440.29 589.254 1400.97 717.205Z" fill="#cac0b9" fill-rule="evenodd" opacity="1" stroke="none"/>
<path d="M1636.06 484.781C1636.06 484.781 1248.51 416.507 1623.79 270.098C1623.79 270.098 1914.05 236.719 2189.59 590.227C2189.59 590.227 2206.76 640.294 2259.9 619.812C2259.9 619.812 2178.96 677.466 2146.25 633.467C2146.25 633.467 2178.14 746.498 2220.65 710.085C2220.65 710.085 2228.01 831.461 2030.97 569.744C2030.97 569.744 1946.75 467.333 1784.05 499.953C1784.05 499.953 1667.95 521.953 1636.06 484.781Z" fill="#e9e7e5" fill-rule="evenodd" opacity="1" stroke="none"/>
<path d="M1477.97 424.161C1477.97 424.161 1497.85 310.848 1613.44 294.237C1613.44 294.237 1487.46 353.587 1526.14 416.779C1526.14 416.779 1583.45 290.181 1693.77 300.311C1693.77 300.311 1493.42 458.371 1607.97 446.523C1607.97 446.523 1695.14 320.05 1780.09 352.467C1780.09 352.467 1631.44 495.755 1687.02 500.383C1687.02 500.383 1657.07 527.643 1629.59 476.934C1629.59 476.934 1620.72 487.247 1594.82 479.134L1488.5 470.48L1477.97 424.161Z" fill="#cac0b9" fill-rule="evenodd" opacity="1" stroke="none"/>
<path d="M1569.02 454.856C1569.02 454.856 1713.89 329.075 1732.75 330.475C1732.75 330.475 1546.89 462.323 1589.39 481.926L1563.49 462.557L1569.02 454.856Z" fill="#cac0b9" fill-rule="evenodd" opacity="1" stroke="none"/>
<path d="M1571.79 445.288C1571.79 445.288 1674.4 323.708 1703.58 332.576C1703.58 332.576 1588.64 434.087 1587.88 447.855" fill="#cac0b9" fill-rule="evenodd" opacity="1" stroke="none"/>
<path d="M1558.39 624.325L1562.63 613.591" fill="#cac0b9" fill-rule="evenodd" opacity="1" stroke="none"/>
<path d="M1507.9 408.417C1507.9 408.417 1594.67 292.905 1639.95 301.772C1639.95 301.772 1529.03 356.845 1518.97 424.986C1508.91 493.127 1507.9 408.417 1507.9 408.417Z" fill="#cac0b9" fill-rule="evenodd" opacity="1" stroke="none"/>
<path d="M1452.48 1266.26C1452.48 1266.26 1503.04 1420.92 1627.62 1501.46C1627.62 1501.46 1551.09 1309.94 1452.48 1266.26Z" fill="#cac0b9" fill-rule="evenodd" opacity="1" stroke="none"/>
<path d="M1814.63 1093.57L1874.84 1089.39C1874.84 1089.39 1883.83 1117.17 1858.21 1113.66C1858.21 1113.66 1824.29 1113.66 1814.63 1093.57Z" fill="#000000" fill-rule="evenodd" opacity="1" stroke="none"/>
<path d="M1357.28 561.367C1357.28 561.367 1550.04 357.832 1615.17 470.616L1708.9 476.386L1721.61 510.483C1721.61 510.483 1493.38 497.369 1376.87 690.413C1260.37 883.456 1357.28 623.267 1357.28 623.267L1357.28 561.367Z" fill="#cac0b9" fill-rule="evenodd" opacity="1" stroke="none"/>
<path d="M1564.01 1090.04C1564.01 1090.04 1576.75 1140.14 1653.35 1099.02C1653.35 1099.02 1618.46 1081.8 1564.01 1090.04Z" fill="#000000" fill-rule="evenodd" opacity="1" stroke="none"/>
<path d="M1380.45 1176.22C1380.45 1176.22 1367.89 1330.5 1597.42 1476.14C1597.42 1476.14 1523.99 1354.1 1514.11 1304.59C1514.11 1304.59 1332.99 1068.36 1313.31 1015.04C1313.31 1015.04 1339.23 1115.98 1380.45 1176.22Z" fill="#aea6a0" fill-rule="evenodd" opacity="1" stroke="none"/>
<path d="M1297.76 688.004C1297.76 688.004 1196.16 1016.07 1162.15 986.814C1162.15 986.814 1188.56 1027.16 1259.71 877.753C1259.71 877.753 1180.95 1083.02 1303.57 1126.02C1303.57 1126.02 1206.01 1080.8 1286.57 913.664C1286.57 913.664 1349.67 1133.12 1302.23 1168.14C1302.23 1168.14 1389.06 1116.27 1296.41 868.886C1296.41 868.886 1409.64 1093.66 1378.31 1133.12C1378.31 1133.12 1432.02 1174.87 1365.34 812.139C1365.34 812.139 1423.96 888.756 1436.49 879.889C1436.49 879.889 1384.58 702.11 1399.8 682.603L1432.91 577.975L1372.5 640.043L1368.02 589.502L1348.33 640.929L1349.22 589.945L1319.69 657.776L1297.76 688.004Z" fill="#aea6a0" fill-rule="evenodd" opacity="1" stroke="none"/>
<path d="M1933.47 405.129C1933.47 405.129 2169.48 548.129 2162.83 646.441C2162.83 646.441 2206.51 535.898 1933.47 405.129Z" fill="#f8f6f4" fill-rule="evenodd" opacity="1" stroke="none"/>
<path d="M1777.31 1487.34C1777.31 1487.34 1794.2 1486.84 1804.13 1526.69C1814.06 1566.54 1780.54 1537.27 1780.54 1537.27L1749.75 1494.22L1777.31 1487.34Z" fill="#d4a48f" fill-rule="evenodd" opacity="1" stroke="none"/>
<path d="M1729.72 1472.8C1729.72 1472.8 1818.16 1476.31 1829.91 1458.69C1829.91 1458.69 1824.57 1493.09 1729.72 1472.8Z" fill="#d4a48f" fill-rule="evenodd" opacity="1" stroke="none"/>
<path d="M1531.05 1338.03C1531.05 1338.03 1624.63 1397.07 1741.91 1536.75C1741.91 1536.75 1810.49 1524.05 1793.83 1491.04C1793.83 1491.04 1865.61 1545 1882.91 1527.86C1882.91 1527.86 1936.11 1280.89 1957.9 1251.05L2003.4 1191.37C2003.4 1191.37 1934.83 1431.99 1916.88 1527.22C1916.88 1527.22 1938.67 1581.19 1857.92 1642.14C1857.92 1642.14 1677.82 1766.58 1576.56 1404.69" fill="#cac0b9" fill-rule="evenodd" opacity="1" stroke="none"/>
<path d="M1827.29 1513.12C1827.29 1513.12 1943.29 1241.06 2009.26 1189.66C2009.26 1189.66 1967.01 1420.96 1917.72 1498.06C1917.72 1498.06 1947.37 1506.51 1932.54 1565.25C1932.54 1565.25 1896.96 1637.58 1858.42 1630.6C1858.42 1630.6 1765.39 1614.81 1851.38 1459.88" fill="#e9e7e5" fill-rule="evenodd" opacity="1" stroke="none"/>
<path d="M1989.36 1181.1C1989.36 1181.1 1878.16 1608.5 1842.02 1649.37C1842.02 1649.37 1955.98 1646.67 1938.25 1485.6C1938.25 1485.6 2002.96 1210.06 2013.47 1184.02L2023.31 1178.16L2024.84 1156.98L2026.21 1143.37L1989.36 1181.1Z" fill="#f8f8f8" fill-rule="evenodd" opacity="1" stroke="none"/>
<path d="M1566.83 521.667C1566.83 521.667 1685.22 620.013 1619.5 667.57C1619.5 667.57 1736.96 662.701 1600.86 466.261C1600.86 466.261 1652.59 550.546 1688.02 574.555C1688.02 574.555 1646.54 501.604 1678.23 482.673C1678.23 482.673 1780.31 574.093 1711.79 628.576C1711.79 628.576 1825.52 570.399 1680.09 448.044L1604.12 450.353L1553.32 474.362L1566.83 521.667Z" fill="#cac0b9" fill-rule="evenodd" opacity="1" stroke="none"/>
<path d="M1482.54 473.703C1482.54 473.703 1368.02 462.504 1325.39 591.369C1325.39 591.369 1250.15 672.035 1241.24 654.017C1241.24 654.017 1254.75 681.436 1376.67 596.627C1376.67 596.627 1306.57 682.446 1375.39 716.272C1375.39 716.272 1313.65 626.398 1426.06 620.843C1426.06 620.843 1419.89 757.92 1457.41 739.762C1457.41 739.762 1402.11 701.882 1493.27 552.621" fill="#cac0b9" fill-rule="evenodd" opacity="1" stroke="none"/>
</g>
</svg>
