<?xml version="1.0" encoding="UTF-8" standalone="no"?>
<!DOCTYPE svg PUBLIC "-//W3C//DTD SVG 1.1//EN" "http://www.w3.org/Graphics/SVG/1.1/DTD/svg11.dtd">
<!-- Created with Vectornator (http://vectornator.io/) -->
<svg height="100%" stroke-miterlimit="10" style="fill-rule:nonzero;clip-rule:evenodd;stroke-linecap:round;stroke-linejoin:round;" version="1.1" viewBox="0 0 3370.82 2384.24" width="100%" xml:space="preserve" xmlns="http://www.w3.org/2000/svg" xmlns:vectornator="http://vectornator.io" xmlns:xlink="http://www.w3.org/1999/xlink">
<defs/>
<g id="Layer-2" vectornator:layerName="Layer 2">
<path d="M1322.53 1843.88C1322.53 1843.88 1715.72 2066.61 1983.9 1795.02C2252.08 1523.43 2094.12 1305.25 2094.12 1305.25L1907.76 1238.2L1392.99 1218.89L1294.13 1242.75L1214.58 1427.98L1322.53 1843.88Z" fill="#ffffff" fill-rule="evenodd" opacity="1" stroke="none"/>
<path d="M621.956 1322.91C621.956 1322.91 1253.01 1178.83 1265.15 1263.32C1277.28 1347.82 1285.64 1415.58 1285.64 1415.58L990.747 1667.39L674.52 1633.51L688.323 1426.87L621.956 1322.91Z" fill="#4a588c" fill-rule="evenodd" opacity="1" stroke="none"/>
<path d="M621.956 1322.91C621.956 1322.91 1253.01 1178.83 1265.15 1263.32C1277.28 1347.82 1285.64 1415.58 1285.64 1415.58L990.747 1667.39L674.52 1633.51L688.323 1426.87L621.956 1322.91Z" fill="#566082" fill-rule="evenodd" opacity="1" stroke="none"/>
<path d="M1591.12 1491.94C1591.12 1491.94 1564.04 1754.9 1546.24 1791.99C1546.24 1791.99 1561.08 1817.58 1554.77 1827.97L1582.22 1797.19C1582.22 1797.19 1599.65 1494.17 1610.41 1499.36C1621.16 1504.55 1604.84 1486.75 1604.84 1486.75L1591.12 1491.94Z" fill="#932721" fill-rule="evenodd" opacity="1" stroke="none"/>
<path d="M1555.78 1401.48C1555.78 1401.48 1519.7 1439.9 1516.75 1462.61L1535.07 1449.67L1557.03 1414.48L1555.78 1401.48Z" fill="#979797" fill-rule="evenodd" opacity="1" stroke="none"/>
<path d="M1705.99 1401.21C1705.99 1401.21 1764.2 1467.62 1752.79 1493.32L1728.12 1467.45L1702.59 1430.18L1705.99 1401.21Z" fill="#979797" fill-rule="evenodd" opacity="1" stroke="none"/>
<path d="M1569.25 1367.41C1536.79 1471.67 1477.77 1438.23 1582.52 1502.65C1687.28 1567.07 1739.9 1490.85 1737.44 1462.32C1734.98 1433.8 1692.68 1417.08 1715.8 1352.65C1738.91 1288.23 1632.69 1321.18 1632.69 1321.18C1632.69 1321.18 1601.7 1263.15 1569.25 1367.41Z" fill="#c72f27" fill-rule="evenodd" opacity="1" stroke="none"/>
<path d="M1608.03 1509.71C1608.03 1509.71 1649.68 1768.76 1568.77 1839.6C1568.77 1839.6 1704.33 1874.38 1684.7 1912.93C1684.7 1912.93 1741.48 1736.03 1780.5 1771.28C1780.5 1771.28 1645.22 1581.48 1652.33 1519.97C1659.45 1458.45 1628.14 1494.43 1628.14 1494.43L1608.03 1509.71Z" fill="#c72f27" fill-rule="evenodd" opacity="1" stroke="none"/>
<path d="M1955.63 1261.04C1955.63 1261.04 2837.97 1230.62 2818.34 1315.03L2793.81 1842.08C2793.81 1842.08 2506.23 1957.89 2088.12 1863.67C2088.12 1863.67 1946.33 1848.56 1887.83 1892.05C1887.83 1892.05 1818.73 1914.1 1881.93 1829.49L1911.71 1528.32L1884.31 1389.57L1913.4 1269.54L1955.63 1261.04Z" fill="#45608c" fill-rule="evenodd" opacity="1" stroke="none"/>
<path d="M1955.63 1261.04C1955.63 1261.04 2837.97 1230.62 2818.34 1315.03L2793.81 1842.08C2793.81 1842.08 2506.23 1957.89 2088.12 1863.67C2088.12 1863.67 1946.33 1848.56 1887.83 1892.05C1887.83 1892.05 1818.73 1914.1 1881.93 1829.49L1911.71 1528.32L1884.31 1389.57L1913.4 1269.54L1955.63 1261.04Z" fill="#566082" fill-rule="evenodd" opacity="1" stroke="none"/>
<path d="M1753.94 1488.77L1795.93 1479.22" fill="#979797" fill-rule="evenodd" opacity="1" stroke="none"/>
<path d="M1795.59 1479.5L1752.68 1493.29L1753.48 1487.02L1795.59 1479.5Z" fill="#979797" fill-rule="evenodd" opacity="1" stroke="none"/>
<path d="M1516.45 1461.85L1485.68 1444.18L1517.96 1459.68L1516.45 1461.85Z" fill="#979797" fill-rule="evenodd" opacity="1" stroke="none"/>
<path d="M1030.42 1838.84C1030.42 1838.84 1521.04 2082.91 1494.48 1811.44C1467.91 1539.98 1440.52 1586.47 1440.52 1586.47L1388.22 1441.19L1286.94 1383.08L1100.98 1449.49C1100.98 1449.49 1108.45 1665.34 1080.23 1716.81" fill="#566082" fill-rule="evenodd" opacity="1" stroke="none"/>
<path d="M1911.78 1368.75L1910.78 1366.71L1908.53 1366.39L1910.16 1364.8L1909.77 1362.57L1911.78 1363.62L1913.79 1362.57L1913.4 1364.8L1915.03 1366.39L1912.78 1366.71L1911.78 1368.75Z" fill="#ffffff" fill-rule="evenodd" opacity="1" stroke="none"/>
<path d="M1912.22 1379.57L1910.96 1377.02L1908.14 1376.61L1910.18 1374.62L1909.7 1371.82L1912.22 1373.14L1914.74 1371.82L1914.25 1374.62L1916.29 1376.61L1913.48 1377.02L1912.22 1379.57Z" fill="#ffffff" fill-rule="evenodd" opacity="1" stroke="none"/>
<path d="M1933.36 1389.88L1931.54 1386.21L1927.48 1385.62L1930.42 1382.76L1929.73 1378.71L1933.36 1380.62L1936.98 1378.71L1936.29 1382.76L1939.23 1385.62L1935.17 1386.21L1933.36 1389.88Z" fill="#ffffff" fill-rule="evenodd" opacity="1" stroke="none"/>
<path d="M1913.02 1391.41L1911.88 1389.12L1909.35 1388.75L1911.18 1386.96L1910.75 1384.44L1913.02 1385.63L1915.28 1384.44L1914.85 1386.96L1916.68 1388.75L1914.15 1389.12L1913.02 1391.41Z" fill="#ffffff" fill-rule="evenodd" opacity="1" stroke="none"/>
<path d="M1473.31 1903.79C1473.31 1903.79 1333.73 1574.45 1293.74 1561.63L1347.18 1504.34L1160.11 1378.29L1195.64 1233.99L1320.69 1212.73C1320.69 1212.73 1648.59 1701.62 1473.31 1903.79Z" fill="#434b66" fill-rule="evenodd" opacity="1" stroke="none"/>
<path d="M1918.54 1372.3L1918.07 1371.35L1917.02 1371.2L1917.78 1370.46L1917.6 1369.41L1918.54 1369.91L1919.48 1369.41L1919.3 1370.46L1920.06 1371.2L1919.01 1371.35L1918.54 1372.3Z" fill="#ffffff" fill-rule="evenodd" opacity="1" stroke="none"/>
<path d="M1095.75 1573.99C1095.75 1573.99 1223.4 1441.22 1188.64 1355.73C1188.64 1355.73 1169.84 1263.42 1213.72 1347.76C1213.72 1347.76 1255.89 1460.02 1208.02 1517.58C1208.02 1517.58 1356.18 1277.66 1373.28 1511.31C1373.28 1511.31 1344.22 1558.61 1328.26 1468.57C1328.26 1468.57 1276.4 1465.15 1266.71 1529.54C1266.71 1529.54 1250.19 1581.4 1268.42 1593.94" fill="#e5b665" fill-rule="evenodd" opacity="1" stroke="#f0c08e" stroke-linecap="butt" stroke-linejoin="round" stroke-width="0.1"/>
<path d="M1252.47 1585.96C1252.47 1585.96 1341.87 1623.04 1352.44 1547.03C1352.44 1547.03 1356.91 1510.04 1371.54 1535.45C1371.54 1535.45 1414.22 1586.26 1377.44 1615.93C1377.44 1615.93 1335.98 1640.31 1285.98 1641.74C1285.98 1641.74 1253.06 1641.94 1238.22 1672.22C1223.39 1702.5 1175.43 1656.78 1175.43 1656.78L1153.48 1630.36L1098.82 1572.86L1201.97 1547.08L1252.47 1585.96Z" fill="#e5b665" fill-rule="evenodd" opacity="1" stroke="#f0c08e" stroke-linecap="butt" stroke-linejoin="round" stroke-width="0.1"/>
<path d="M1099.04 1571.01C1099.04 1571.01 1145.03 1426.89 1123.64 1390.57C1123.64 1390.57 1108.71 1353.08 1143.27 1380.91C1143.27 1380.91 1171.1 1483.43 1151.76 1524.14C1151.76 1524.14 1170.22 1386.77 1153.52 1353.08C1153.52 1353.08 1147.96 1314.12 1173.15 1346.93C1173.15 1346.93 1211.22 1455.89 1184.86 1501L1185.74 1547.57L1131.26 1577.74L1099.04 1571.01Z" fill="#e5b665" fill-rule="evenodd" opacity="1" stroke="#f0c08e" stroke-linecap="butt" stroke-linejoin="round" stroke-width="0.1"/>
<path d="M2446.99 1538.65C2446.99 1538.65 2398.55 1393.32 2409.94 1365.96C2409.94 1365.96 2378.54 1363.72 2391.29 1403.98C2391.29 1403.98 2389.61 1442.57 2400.35 1469.74C2400.35 1469.74 2373.17 1376.81 2381.89 1354.66C2381.89 1354.66 2369.81 1312.05 2362.1 1351.31C2362.1 1351.31 2351.7 1373.45 2365.79 1415.05C2365.79 1415.05 2363.44 1453.97 2376.19 1472.76C2376.19 1472.76 2340.52 1353.32 2346.66 1335.2C2346.66 1335.2 2333.58 1291.25 2323.51 1351.98C2323.51 1351.98 2321.5 1373.79 2337.61 1409.02C2337.61 1409.02 2327.88 1421.76 2343.64 1455.99C2343.64 1455.99 2301.04 1357.68 2273.19 1366.74C2273.19 1366.74 2205.75 1395.6 2224.88 1458C2224.88 1458 2241.99 1495.91 2247.35 1478.13C2247.35 1478.13 2229.24 1410.02 2273.86 1406C2273.86 1406 2362.43 1513.36 2337.94 1534.83C2337.94 1534.83 2284.26 1554.62 2269.83 1503.29C2269.83 1503.29 2238.3 1465.04 2243.33 1507.65C2243.33 1507.65 2241.32 1566.03 2289.29 1579.45C2289.29 1579.45 2373.84 1581.13 2392.29 1616.02C2410.75 1650.92 2461.74 1581.8 2461.74 1581.8L2446.99 1538.65Z" fill="#e5b665" fill-rule="evenodd" opacity="1" stroke="none"/>
<path d="M1875.37 1894.88C1875.37 1894.88 1981.42 1527.48 2023.93 1561.57L1935.97 1494.23L2098.84 1365.87C2135.04 1355.82 1931.23 1235.42 1931.23 1235.42L1865.07 1301.17L1875.37 1894.88Z" fill="#434b66" fill-rule="evenodd" opacity="1" stroke="none"/>
<path d="M1875.95 1874.35L1862.85 1284.95L1921.37 1344.84L1915.99 1415.17L1837.66 1286.12C1837.66 1286.12 1787.04 1802.38 1875.95 1874.35Z" fill="#434b66" fill-rule="evenodd" opacity="1" stroke="none"/>
<path d="M1906.14 1370.36L1906.95 1382.95L1985.32 1386.42L1986.24 1371.05L1960.35 1366.31L1918.28 1365.27L1907.76 1366.08L1906.14 1370.36Z" fill="#ffffff" fill-rule="evenodd" opacity="1" stroke="none"/>
<path d="M1906.37 1359.38L1906.26 1369.2L1986.59 1371.16L1986.59 1358.8L1906.37 1359.38Z" fill="#932721" fill-rule="evenodd" opacity="1" stroke="none"/>
<path d="M1906.95 1379.6L1908.22 1391.74L1985.08 1395.9L1985.32 1381.34L1906.95 1379.6Z" fill="#932721" fill-rule="evenodd" opacity="1" stroke="none"/>
<path d="M1908.47 1389.96L1908.82 1407.14L1985.92 1407.07L1983.96 1393.67L1908.47 1389.96Z" fill="#ffffff" fill-rule="evenodd" opacity="1" stroke="none"/>
<path d="M1908.94 1398.99L1908.94 1410.57L1986.19 1411.93L1984.97 1401.22L1908.94 1398.99Z" fill="#932721" fill-rule="evenodd" opacity="1" stroke="none"/>
<path d="M1906.21 1359.72C1906.21 1359.72 1903.84 1382.64 1908.21 1389.24C1912.59 1395.84 1937 1391.54 1939.3 1391.17C1941.6 1390.8 1941.52 1360.01 1938.41 1358.46C1935.29 1356.9 1909.99 1356.45 1906.21 1359.72Z" fill="#283067" fill-rule="evenodd" opacity="1" stroke="none"/>
<path d="M1924.78 1370.71L1923.12 1367.33L1919.39 1366.79L1922.09 1364.16L1921.45 1360.46L1924.78 1362.21L1928.11 1360.46L1927.48 1364.16L1930.17 1366.79L1926.45 1367.33L1924.78 1370.71Z" fill="#ffffff" fill-rule="evenodd" opacity="1" stroke="none"/>
<path d="M1933.79 1372.89L1932.89 1371.07L1930.89 1370.78L1932.34 1369.36L1932 1367.37L1933.79 1368.31L1935.58 1367.37L1935.24 1369.36L1936.69 1370.78L1934.69 1371.07L1933.79 1372.89Z" fill="#ffffff" fill-rule="evenodd" opacity="1" stroke="none"/>
<path d="M1922.24 1384.73L1920.75 1381.7L1917.41 1381.21L1919.82 1378.86L1919.25 1375.53L1922.24 1377.1L1925.23 1375.53L1924.66 1378.86L1927.08 1381.21L1923.74 1381.7L1922.24 1384.73Z" fill="#ffffff" fill-rule="evenodd" opacity="1" stroke="none"/>
<path d="M1923.84 1391.7L1923.28 1390.58L1922.04 1390.39L1922.94 1389.52L1922.73 1388.28L1923.84 1388.87L1924.95 1388.28L1924.74 1389.52L1925.64 1390.39L1924.39 1390.58L1923.84 1391.7Z" fill="#ffffff" fill-rule="evenodd" opacity="1" stroke="none"/>
<path d="M1934.23 1365.77L1933.63 1364.56L1932.29 1364.36L1933.26 1363.42L1933.03 1362.09L1934.23 1362.72L1935.42 1362.09L1935.19 1363.42L1936.16 1364.36L1934.82 1364.56L1934.23 1365.77Z" fill="#ffffff" fill-rule="evenodd" opacity="1" stroke="none"/>
<path d="M1854.83 1312.75L1871.03 1817.51C1871.03 1817.51 1915.86 1650.26 1917.74 1643.48C1919.62 1636.7 1881.95 1349.29 1881.95 1349.29L1884.21 1294.29L1854.83 1312.75Z" fill="#434b66" fill-rule="evenodd" opacity="1" stroke="none"/>
<path d="M1910.2 1367.97L1909.3 1366.14L1907.28 1365.84L1908.74 1364.42L1908.4 1362.4L1910.2 1363.35L1912.01 1362.4L1911.67 1364.42L1913.13 1365.84L1911.11 1366.14L1910.2 1367.97Z" fill="#ffffff" fill-rule="evenodd" opacity="1" stroke="none"/>
<path d="M1931.21 1381.47L1930.43 1379.91L1928.71 1379.65L1929.96 1378.44L1929.66 1376.72L1931.21 1377.53L1932.75 1376.72L1932.45 1378.44L1933.7 1379.65L1931.98 1379.91L1931.21 1381.47Z" fill="#ffffff" fill-rule="evenodd" opacity="1" stroke="none"/>
<path d="M1909.6 1381.92L1907.64 1377.94L1903.25 1377.31L1906.43 1374.21L1905.68 1369.84L1909.6 1371.91L1913.53 1369.84L1912.78 1374.21L1915.95 1377.31L1911.57 1377.94L1909.6 1381.92Z" fill="#ffffff" fill-rule="evenodd" opacity="1" stroke="none"/>
<path d="M1935.63 1386.79L1934.88 1385.28L1933.21 1385.03L1934.42 1383.85L1934.13 1382.18L1935.63 1382.97L1937.13 1382.18L1936.84 1383.85L1938.06 1385.03L1936.38 1385.28L1935.63 1386.79Z" fill="#ffffff" fill-rule="evenodd" opacity="1" stroke="none"/>
<path d="M1913.35 1390.54L1912.05 1387.91L1909.14 1387.49L1911.25 1385.44L1910.75 1382.54L1913.35 1383.91L1915.96 1382.54L1915.46 1385.44L1917.56 1387.49L1914.65 1387.91L1913.35 1390.54Z" fill="#ffffff" fill-rule="evenodd" opacity="1" stroke="none"/>
<path d="M1918.45 1372.69L1918.1 1371.98L1917.31 1371.86L1917.88 1371.31L1917.75 1370.52L1918.45 1370.89L1919.16 1370.52L1919.03 1371.31L1919.6 1371.86L1918.81 1371.98L1918.45 1372.69Z" fill="#ffffff" fill-rule="evenodd" opacity="1" stroke="none"/>
<path d="M1916.05 1362.79L1915.44 1361.54L1914.06 1361.34L1915.06 1360.37L1914.82 1358.99L1916.05 1359.64L1917.29 1358.99L1917.05 1360.37L1918.05 1361.34L1916.67 1361.54L1916.05 1362.79Z" fill="#ffffff" fill-rule="evenodd" opacity="1" stroke="none"/>
<path d="M1935.63 1379.82L1935.21 1378.97L1934.28 1378.83L1934.95 1378.17L1934.79 1377.24L1935.63 1377.68L1936.47 1377.24L1936.31 1378.17L1936.99 1378.83L1936.05 1378.97L1935.63 1379.82Z" fill="#ffffff" fill-rule="evenodd" opacity="1" stroke="none"/>
<path d="M1938.56 1374.87L1938.31 1374.38L1937.77 1374.3L1938.16 1373.92L1938.07 1373.38L1938.56 1373.63L1939.04 1373.38L1938.95 1373.92L1939.34 1374.3L1938.8 1374.38L1938.56 1374.87Z" fill="#ffffff" fill-rule="evenodd" opacity="1" stroke="none"/>
<path d="M1928.96 1374.57L1928.8 1374.26L1928.46 1374.21L1928.71 1373.96L1928.65 1373.62L1928.96 1373.78L1929.26 1373.62L1929.21 1373.96L1929.46 1374.21L1929.11 1374.26L1928.96 1374.57Z" fill="#ffffff" fill-rule="evenodd" opacity="1" stroke="none"/>
<path d="M2449.73 1541.55C2449.73 1541.55 2401.29 1396.22 2412.68 1368.87C2412.68 1368.87 2381.28 1366.62 2394.03 1406.89C2394.03 1406.89 2392.35 1445.47 2403.08 1472.64C2403.08 1472.64 2375.91 1379.71 2384.63 1357.57C2384.63 1357.57 2372.55 1314.96 2364.84 1354.21C2364.84 1354.21 2354.44 1376.35 2368.53 1417.96C2368.53 1417.96 2366.18 1456.88 2378.93 1475.66C2378.93 1475.66 2343.26 1356.22 2349.4 1338.11C2349.4 1338.11 2336.32 1294.16 2326.25 1354.88C2326.25 1354.88 2324.24 1376.69 2340.34 1411.92C2340.34 1411.92 2330.62 1424.67 2346.38 1458.89C2346.38 1458.89 2303.77 1360.59 2275.93 1369.64C2275.93 1369.64 2208.49 1398.5 2227.61 1460.9C2227.61 1460.9 2244.73 1498.81 2250.09 1481.03C2250.09 1481.03 2231.98 1412.92 2276.6 1408.9C2276.6 1408.9 2365.17 1516.26 2340.68 1537.73C2340.68 1537.73 2287 1557.53 2272.57 1506.19C2272.57 1506.19 2241.04 1467.95 2246.07 1510.56C2246.07 1510.56 2244.05 1568.93 2292.03 1582.35C2292.03 1582.35 2376.58 1584.03 2395.03 1618.92C2413.49 1653.82 2464.48 1584.7 2464.48 1584.7L2449.73 1541.55Z" fill="#e5b665" fill-rule="evenodd" opacity="1" stroke="none"/>
<path d="M1927.23 1370.44L1926.92 1369.82L1926.23 1369.72L1926.73 1369.23L1926.61 1368.54L1927.23 1368.87L1927.85 1368.54L1927.73 1369.23L1928.23 1369.72L1927.54 1369.82L1927.23 1370.44Z" fill="#ffffff" fill-rule="evenodd" opacity="1" stroke="none"/>
<path d="M1930.53 1370.37L1930.31 1369.92L1929.82 1369.85L1930.17 1369.5L1930.09 1369.01L1930.53 1369.24L1930.97 1369.01L1930.89 1369.5L1931.24 1369.85L1930.75 1369.92L1930.53 1370.37Z" fill="#ffffff" fill-rule="evenodd" opacity="1" stroke="none"/>
<path d="M771.848 1580.83C771.848 1580.83 1076.63 1538.93 1107.38 1525.1L889.842 1688.06L737.642 1654.24L735.72 1633.1L768.005 1600.04L763.777 1588.51L771.848 1580.83Z" fill="#2b324e" fill-rule="evenodd" opacity="1" stroke="none"/>
<path d="M2323.84 1636.05C2323.84 1636.05 2458.47 1542.29 2438.22 1508.54C2438.22 1508.54 2621.61 1518.67 2644.48 1564.8C2644.48 1564.8 2675.07 1346.54 2697.97 1361.97C2697.97 1361.97 2740.79 1300.74 2806 1296.26C2806 1296.26 2917.03 1321.15 2927.98 1551.16C2927.98 1551.16 3036.51 1983.29 2699.46 1867.79C2699.46 1867.79 2491.28 1757.29 2323.84 1636.05Z" fill="#566082" fill-rule="evenodd" opacity="1" stroke="none"/>
<path d="M603.595 1344.62C603.595 1344.62 85.0554 1996.76 820.978 1888.43C820.978 1888.43 1246.35 1878.32 1294.02 1674.66C1294.02 1674.66 1075.19 1702.11 1094.69 1546.11C1094.69 1546.11 771.868 1649.39 713.37 1656.61C713.37 1656.61 847.699 1514.34 815.922 1460.17C815.922 1460.17 823.866 1310.67 603.595 1344.62Z" fill="#566082" fill-rule="evenodd" opacity="1" stroke="none"/>
<path d="M620.694 1322.76C620.694 1322.76 102.154 1974.9 838.076 1866.57C838.076 1866.57 1263.45 1856.46 1311.12 1652.8C1311.12 1652.8 1092.29 1680.24 1111.79 1524.25C1111.79 1524.25 788.967 1627.52 730.468 1634.75C730.468 1634.75 864.798 1492.47 833.021 1438.31C833.021 1438.31 840.965 1288.81 620.694 1322.76Z" fill="#566082" fill-rule="evenodd" opacity="1" stroke="none"/>
<path d="M745.513 1481.5C745.513 1481.5 779.414 1577.99 737.169 1631.7C737.169 1631.7 842.52 1564.95 745.513 1481.5Z" fill="#2b324e" fill-rule="evenodd" opacity="1" stroke="none"/>
<path d="M1062.71 1852.46C1062.71 1852.46 1262.72 1744 1272.34 1724.77" fill="#566082" fill-rule="evenodd" opacity="1" stroke="none"/>
<path d="M1061.17 1851.31C1061.17 1851.31 1276.19 1732.84 1282.34 1698.99L1061.17 1851.31Z" fill="#2b324e" fill-rule="evenodd" opacity="1" stroke="none"/>
<path d="M1157.91 1628.98C1157.91 1628.98 1256.33 1695.57 1277.89 1698.37C1277.89 1698.37 1258.58 1670.23 1253.76 1653.41C1253.76 1653.41 1210.69 1653.11 1157.91 1628.98Z" fill="#2b324e" fill-rule="evenodd" opacity="1" stroke="none"/>
<path d="M2479.73 1531.43C2479.73 1531.43 2686.26 1610.94 2728.77 1656.45C2728.77 1656.45 2641.26 1549.43 2479.73 1531.43Z" fill="#2b324e" fill-rule="evenodd" opacity="1" stroke="none"/>
<path d="M2720.34 1435.68C2720.34 1435.68 2696.33 1620.33 2689.28 1622.56C2682.24 1624.79 2723.36 1644.05 2727.58 1655.43C2727.58 1655.43 2710.13 1510.38 2720.34 1435.68Z" fill="#2b324e" fill-rule="evenodd" opacity="1" stroke="none"/>
<path d="M2362.2 1666.49C2362.2 1666.49 2521.4 1813.85 2611.5 1831.51C2611.5 1831.51 2378.57 1676.95 2362.2 1666.49Z" fill="#2b324e" fill-rule="evenodd" opacity="1" stroke="none"/>
<path d="M2365.71 1596.54C2365.71 1596.54 2344.66 1620.23 2340.66 1638.04C2340.66 1638.04 2372.83 1602.87 2373.22 1598.8C2373.61 1594.72 2365.71 1596.54 2365.71 1596.54Z" fill="#2b324e" fill-rule="evenodd" opacity="1" stroke="none"/>
<path d="M1617.38 1519.27C1617.38 1519.27 1637.03 1528.77 1648.02 1525.97L1617.38 1519.27Z" fill="#932721" fill-rule="evenodd" opacity="1" stroke="none"/>
</g>
<g id="Layer-1" vectornator:layerName="Layer 1">
<path d="M1262.97 811.501C1262.97 811.501 873.94 1040.14 1269.8 1277.31C1269.8 1277.31 1779.97 1569.09 2150.23 1115.22C2150.23 1115.22 2290.15 956.535 2047.86 816.62C2047.86 816.62 2136.58 744.957 1986.43 589.686C1986.43 589.686 1645.18 328.627 1302.21 564.092C1302.21 564.092 1196.43 622.105 1262.97 811.501Z" fill="#e5b665" fill-rule="evenodd" opacity="1" stroke="none"/>
<path d="M2110.73 889.871C2110.73 889.871 2255.67 854.711 2210.1 792.644C2210.1 792.644 2168.13 634.069 2018.16 777.576C1868.2 921.083 2078.8 900.275 2078.8 900.275L2110.73 889.871Z" fill="#e5b665" fill-rule="evenodd" opacity="1" stroke="none"/>
<path d="M2056.47 672.347C2056.47 672.347 1993.29 834.502 2088.06 859.773C2088.06 859.773 2053.31 800.808 2077.53 779.748C2077.53 779.748 2055.41 852.402 2110.17 851.349C2110.17 851.349 2116.48 781.854 2100.69 765.007C2100.69 765.007 2128.07 836.608 2162.81 832.396" fill="#e0c58e" fill-rule="evenodd" opacity="1" stroke="#f0c08e" stroke-linecap="butt" stroke-linejoin="round" stroke-width="0.1"/>
<path d="M2121.75 793.437L2152.29 819.761C2152.29 819.761 2128.07 660.765 2108.06 642.865C2088.06 624.964 2060.68 642.865 2060.68 642.865L2071.21 738.683L2121.75 793.437Z" fill="#e0c58e" fill-rule="evenodd" opacity="1" stroke="#f0c08e" stroke-linecap="butt" stroke-linejoin="round" stroke-width="0.1"/>
<path d="M1434.77 849.687C1434.77 849.687 1714.03 882.768 1654.02 830.455" fill="none" fill-rule="evenodd" opacity="1" stroke="#d4924d" stroke-linecap="butt" stroke-linejoin="round" stroke-width="8"/>
<path d="M1771.73 837.378C1771.73 837.378 1734.03 892 1931.74 881.229" fill="none" fill-rule="evenodd" opacity="1" stroke="#d4924d" stroke-linecap="butt" stroke-linejoin="round" stroke-width="8"/>
<path d="M1378.61 987.394C1378.61 987.394 1850.19 1098.17 1977.9 1062.02C2105.61 1025.86 1847.12 1334.35 1548.63 1219.73C1250.13 1105.1 1378.61 987.394 1378.61 987.394Z" fill="#f0f0f0" fill-rule="evenodd" opacity="1" stroke="#e29b5c" stroke-linecap="butt" stroke-linejoin="round" stroke-width="8"/>
<path d="M1961.73 876.046C1961.73 876.046 2007.93 857.565 1996.96 832.742" fill="none" fill-rule="evenodd" opacity="1" stroke="#d4924d" stroke-linecap="butt" stroke-linejoin="round" stroke-width="8"/>
<path d="M1969.67 885.538C1969.67 885.538 2007.97 906.516 2009.11 879.633" fill="none" fill-rule="evenodd" opacity="1" stroke="#d4924d" stroke-linecap="butt" stroke-linejoin="round" stroke-width="8"/>
<path d="M1965.36 905.863C1965.36 905.863 1987.61 944.868 2019.09 922.567" fill="none" fill-rule="evenodd" opacity="1" stroke="#d4924d" stroke-linecap="butt" stroke-linejoin="round" stroke-width="8"/>
<path d="M1414.75 831.152C1414.75 831.152 1370.14 824.674 1391.13 793.282" fill="none" fill-rule="evenodd" opacity="1" stroke="#d4924d" stroke-linecap="butt" stroke-linejoin="round" stroke-width="8"/>
<path d="M1397.7 853.482C1397.7 853.482 1341.01 862.873 1333.78 838.383" fill="none" fill-rule="evenodd" opacity="1" stroke="#d4924d" stroke-linecap="butt" stroke-linejoin="round" stroke-width="8"/>
<path d="M1401.36 875.772C1401.36 875.772 1385.42 913.889 1348.87 887.419" fill="none" fill-rule="evenodd" opacity="1" stroke="#d4924d" stroke-linecap="butt" stroke-linejoin="round" stroke-width="8"/>
<path d="M1669.02 921.805C1669.02 921.805 1654.77 951.058 1688.53 942.515C1688.53 942.515 1720.62 997.014 1728.9 950.007C1728.9 950.007 1789.35 969.755 1762.78 925.332C1736.22 880.909 1790.63 898.593 1730.76 798.629" fill="none" fill-rule="evenodd" opacity="1" stroke="#d4924d" stroke-linecap="butt" stroke-linejoin="round" stroke-width="8"/>
<path d="M1822.22 956.975C1822.22 956.975 1890.11 1068.91 2001.32 1042.19" fill="none" fill-rule="evenodd" opacity="1" stroke="#d4924d" stroke-linecap="butt" stroke-linejoin="round" stroke-width="8"/>
<path d="M1623.63 925.201C1623.63 925.201 1469.81 1008.25 1403.37 964.197" fill="none" fill-rule="evenodd" opacity="1" stroke="#d4924d" stroke-linecap="butt" stroke-linejoin="round" stroke-width="8"/>
<path d="M1952.82 1088.01C1952.82 1088.01 1883.56 1070.78 1833.83 1069.81C1833.83 1069.81 1925 1072.76 1969.78 1066.38C2014.57 1059.99 1968.85 1089 1968.85 1089L1952.82 1088.01Z" fill="#000000" fill-rule="evenodd" opacity="1" stroke="none"/>
<path d="M1308.36 803.587C1308.36 803.587 1349.66 645.19 1429.64 716.286C1429.64 716.286 1777.8 898.206 1949.26 708.967C2120.73 519.728 1881.3 563.64 1881.3 563.64L1395.66 536.979L1289.02 587.164L1261.83 769.607L1308.36 803.587Z" fill="#dda749" fill-rule="evenodd" opacity="1" stroke="none"/>
<path d="M1348.88 503.875C1348.88 503.875 1131.97 517.563 1178.3 755.531C1178.3 755.531 1236.22 815.549 1203.57 883.991C1203.57 883.991 1261.49 848.19 1255.17 816.602C1255.17 816.602 1256.22 870.302 1269.91 881.885C1269.91 881.885 1308.87 839.767 1292.02 810.284C1292.02 810.284 1309.92 876.62 1321.51 783.96C1321.51 783.96 1327.82 544.94 1377.31 586.005C1426.8 627.07 1407.85 537.569 1407.85 537.569L1348.88 503.875Z" fill="#e0c58e" fill-rule="evenodd" opacity="1" stroke="#f0c08e" stroke-linecap="butt" stroke-linejoin="round" stroke-width="0.1"/>
<path d="M1912.53 1173.56C1912.53 1173.56 2012.8 1112.21 2008.02 1068.38L2006.86 1062.27C2006.86 1062.27 1975.59 1062.37 1959.43 1068.59C1943.26 1074.81 1959.67 1137.22 1912.53 1173.56Z" fill="#000000" fill-rule="evenodd" opacity="1" stroke="none"/>
<path d="M1293.08 491.239C1293.08 491.239 1281.49 679.718 1653.19 750.266C2024.88 820.814 2092.27 664.977 2117.54 628.123C2142.81 591.27 2090.16 386.997 1945.91 353.303C1801.65 319.608 1515.25 273.278 1383.63 349.091C1252.01 424.903 1232 407.003 1145.66 459.651C1059.32 512.298 1352.04 397.527 1293.08 491.239Z" fill="#e0c58e" fill-rule="evenodd" opacity="1" stroke="#f0c08e" stroke-linecap="butt" stroke-linejoin="round" stroke-width="0.1"/>
<path d="M1156.34 916.414C1156.34 916.414 1076.51 964.859 1040.13 846.896C1040.13 846.896 1019.08 761.522 1115.77 742.922C1212.46 724.321 1208.63 814.605 1228.09 827.594C1247.55 840.582 1238.6 893.855 1238.6 893.855L1156.34 916.414Z" fill="#e5b665" fill-rule="evenodd" opacity="1" stroke="#f0c08e" stroke-linecap="butt" stroke-linejoin="round" stroke-width="0.1"/>
<path d="M1120.65 872.928C1119.91 872.928 1120.19 872.766 1119.84 873.474" fill="#e5b665" fill-rule="evenodd" opacity="1" stroke="#f0c08e" stroke-linecap="butt" stroke-linejoin="round" stroke-width="0.1"/>
<path d="M1105.38 871.019C1105.38 871.019 1151.47 865.019 1146.02 836.11C1146.02 836.11 1146.02 784.565 1188.29 853.019" fill="none" fill-rule="evenodd" opacity="1" stroke="#d3914c" stroke-linecap="butt" stroke-linejoin="round" stroke-width="8.23817"/>
<path d="M1091.33 869.476C1091.33 869.476 1021.46 760.762 1151.45 781.163" fill="none" fill-rule="evenodd" opacity="1" stroke="#d3914c" stroke-linecap="butt" stroke-linejoin="round" stroke-width="8.23817"/>
<path d="M1463.69 1268.86C1463.69 1268.86 1668.48 1410.75 1836.71 1273.97" fill="none" fill-rule="evenodd" opacity="1" stroke="#d3914c" stroke-linecap="butt" stroke-linejoin="round" stroke-width="8.23817"/>
</g>
</svg>
